<?xml version="1.0" encoding="UTF-8" standalone="no"?>
<svg
   xmlns:dc="http://purl.org/dc/elements/1.1/"
   xmlns:cc="http://creativecommons.org/ns#"
   xmlns:rdf="http://www.w3.org/1999/02/22-rdf-syntax-ns#"
   xmlns:svg="http://www.w3.org/2000/svg"
   xmlns="http://www.w3.org/2000/svg"
   viewBox="0 0 577.33331 120"
   height="120"
   width="577.33331"
   xml:space="preserve"
   id="svg2"
   version="1.1"><metadata
     id="metadata8"><rdf:RDF><cc:Work
         rdf:about=""><dc:format>image/svg+xml</dc:format><dc:type
           rdf:resource="http://purl.org/dc/dcmitype/StillImage" /></cc:Work></rdf:RDF></metadata><defs
     id="defs6"><clipPath
       id="clipPath20"
       clipPathUnits="userSpaceOnUse"><path
         id="path18"
         d="M 0.023,0.074 H 432.921 V 88.961 H 0.023 Z" /></clipPath><clipPath
       id="clipPath30"
       clipPathUnits="userSpaceOnUse"><path
         id="path28"
         d="M 0,0 H 901 V 185 H 0 Z" /></clipPath><clipPath
       id="clipPath148"
       clipPathUnits="userSpaceOnUse"><path
         id="path146"
         d="m 612,160 h 70 v 21.828 h -70 z" /></clipPath><clipPath
       id="clipPath170"
       clipPathUnits="userSpaceOnUse"><path
         id="path168"
         d="m 417,160 h 70 v 21.828 h -70 z" /></clipPath></defs><g
     transform="matrix(1.3333333,0,0,1.3333333,0,3e-6)"
     id="g10"><g
       id="g12" /><g
       id="g14"><g
         clip-path="url(#clipPath20)"
         id="g16"><g
           transform="matrix(0.480466,0,0,0.480473,0.025,0.075)"
           id="g22"><g
             id="g24"><g
               clip-path="url(#clipPath30)"
               id="g26"><g
                 id="g32"><path
                   id="path34"
                   style="fill:#ffffff;fill-opacity:1;fill-rule:nonzero;stroke:none"
                   d="M 0,0 H 901 V 185 H 0 Z" /><path
                   id="path36"
                   style="fill:#ffffff;fill-opacity:1;fill-rule:nonzero;stroke:none"
                   d="M 0,0 H 901 V 185 H 0 Z" /><path
                   id="path38"
                   style="fill:#ffffff;fill-opacity:1;fill-rule:nonzero;stroke:none"
                   d="M 11.27,3.758 H 897.868 V 169.055 H 11.27 Z" /><path
                   id="path40"
                   style="fill:#636eff;fill-opacity:1;fill-rule:nonzero;stroke:none"
                   d="m 3.906,119.465 h 113.906 c 0.418,0 0.821,0.082 1.208,0.242 0.386,0.16 0.726,0.387 1.023,0.684 0.297,0.293 0.523,0.636 0.684,1.023 0.16,0.387 0.242,0.789 0.242,1.207 v 14.727 c 0,0.418 -0.082,0.82 -0.242,1.207 -0.161,0.386 -0.387,0.726 -0.684,1.023 -0.297,0.297 -0.637,0.524 -1.023,0.684 -0.387,0.16 -0.79,0.242 -1.208,0.242 H 3.906 c -0.418,0 -0.82,-0.082 -1.207,-0.242 -0.387,-0.16 -0.726,-0.387 -1.023,-0.684 -0.297,-0.297 -0.524,-0.637 -0.684,-1.023 -0.16,-0.387 -0.242,-0.789 -0.242,-1.207 v -14.727 c 0,-0.418 0.082,-0.82 0.242,-1.207 0.16,-0.387 0.387,-0.73 0.684,-1.023 0.297,-0.297 0.636,-0.524 1.023,-0.684 0.387,-0.16 0.789,-0.242 1.207,-0.242 z" /><text
                   id="text44"
                   style="font-variant:normal;font-size:11.98406219px;font-family:CairoFont-0;-inkscape-font-specification:CairoFont-0-0;writing-mode:lr-tb;fill:#ffffff;fill-opacity:1;fill-rule:nonzero;stroke:none"
                   transform="translate(20.662176,133.74063)"><tspan
                     id="tspan42"
                     y="0"
                     x="0 6.6631384 13.362229 20.025368 26.736443 34.717827 41.428902 44.089363 46.749825">LoadSplit</tspan></text>
<text
                   id="text48"
                   style="font-variant:normal;font-size:11.98406219px;font-family:CairoFont-0;-inkscape-font-specification:CairoFont-0-1;writing-mode:lr-tb;fill:#ffffff;fill-opacity:1;fill-rule:nonzero;stroke:none"
                   transform="translate(70.731587,133.74063)"><tspan
                     id="tspan46"
                     y="0"
                     x="0"> </tspan></text>
<text
                   id="text52"
                   style="font-variant:normal;font-size:11.98406219px;font-family:CairoFont-0;-inkscape-font-specification:CairoFont-0-0;writing-mode:lr-tb;fill:#ffffff;fill-opacity:1;fill-rule:nonzero;stroke:none"
                   transform="translate(74.099108,133.74063)"><tspan
                     id="tspan50"
                     y="0"
                     x="0 8.6884451 15.351583 18.671169">Data</tspan></text>
<path
                   id="path54"
                   style="fill:#636eff;fill-opacity:1;fill-rule:nonzero;stroke:none"
                   d="m 199.258,119.465 h 113.906 c 0.418,0 0.82,0.082 1.207,0.242 0.387,0.16 0.727,0.387 1.024,0.684 0.296,0.293 0.523,0.636 0.683,1.023 0.16,0.387 0.242,0.789 0.242,1.207 v 14.727 c 0,0.418 -0.082,0.82 -0.242,1.207 -0.16,0.386 -0.387,0.726 -0.683,1.023 -0.297,0.297 -0.637,0.524 -1.024,0.684 -0.387,0.16 -0.789,0.242 -1.207,0.242 H 199.258 c -0.418,0 -0.82,-0.082 -1.207,-0.242 -0.387,-0.16 -0.727,-0.387 -1.024,-0.684 -0.297,-0.297 -0.523,-0.637 -0.683,-1.023 -0.16,-0.387 -0.242,-0.789 -0.242,-1.207 v -14.727 c 0,-0.418 0.082,-0.82 0.242,-1.207 0.16,-0.387 0.386,-0.73 0.683,-1.023 0.297,-0.297 0.637,-0.524 1.024,-0.684 0.387,-0.16 0.789,-0.242 1.207,-0.242 z" /><text
                   id="text58"
                   style="font-variant:normal;font-size:11.98406219px;font-family:CairoFont-0;-inkscape-font-specification:CairoFont-0-0;writing-mode:lr-tb;fill:#ffffff;fill-opacity:1;fill-rule:nonzero;stroke:none"
                   transform="translate(208.00706,133.74063)"><tspan
                     id="tspan56"
                     y="0"
                     x="0 8.6524925 15.363567 25.382244 32.045383 36.036076 38.732487 44.724518 51.423611 54.084072 57.403656 67.446304 74.109436 80.808533 84.128113 90.827209">NumericalImputer</tspan></text>
<path
                   id="path60"
                   style="fill:#636eff;fill-opacity:1;fill-rule:nonzero;stroke:none"
                   d="m 394.609,119.465 h 113.907 c 0.418,0 0.82,0.082 1.207,0.242 0.386,0.16 0.726,0.387 1.023,0.684 0.297,0.293 0.524,0.636 0.684,1.023 0.16,0.387 0.242,0.789 0.242,1.207 v 14.727 c 0,0.418 -0.082,0.82 -0.242,1.207 -0.16,0.386 -0.387,0.726 -0.684,1.023 -0.297,0.297 -0.637,0.524 -1.023,0.684 -0.387,0.16 -0.789,0.242 -1.207,0.242 H 394.609 c -0.418,0 -0.82,-0.082 -1.207,-0.242 -0.386,-0.16 -0.726,-0.387 -1.023,-0.684 -0.297,-0.297 -0.524,-0.637 -0.684,-1.023 -0.16,-0.387 -0.242,-0.789 -0.242,-1.207 v -14.727 c 0,-0.418 0.082,-0.82 0.242,-1.207 0.16,-0.387 0.387,-0.73 0.684,-1.023 0.297,-0.297 0.637,-0.524 1.023,-0.684 0.387,-0.16 0.789,-0.242 1.207,-0.242 z" /><text
                   id="text64"
                   style="font-variant:normal;font-size:11.98406219px;font-family:CairoFont-0;-inkscape-font-specification:CairoFont-0-0;writing-mode:lr-tb;fill:#ffffff;fill-opacity:1;fill-rule:nonzero;stroke:none"
                   transform="translate(433.7648,133.74063)"><tspan
                     id="tspan62"
                     y="0"
                     x="0 7.9813852 14.021353 20.68449 23.344954 30.056028">Scaler</tspan></text>
<path
                   id="path66"
                   style="fill:#636eff;fill-opacity:1;fill-rule:nonzero;stroke:none"
                   d="m 589.961,119.465 h 113.906 c 0.418,0 0.821,0.082 1.207,0.242 0.387,0.16 0.727,0.387 1.024,0.684 0.297,0.293 0.523,0.636 0.683,1.023 0.16,0.387 0.242,0.789 0.242,1.207 v 14.727 c 0,0.418 -0.082,0.82 -0.242,1.207 -0.16,0.386 -0.386,0.726 -0.683,1.023 -0.297,0.297 -0.637,0.524 -1.024,0.684 -0.386,0.16 -0.789,0.242 -1.207,0.242 H 589.961 c -0.418,0 -0.82,-0.082 -1.207,-0.242 -0.387,-0.16 -0.727,-0.387 -1.024,-0.684 -0.296,-0.297 -0.523,-0.637 -0.683,-1.023 -0.16,-0.387 -0.242,-0.789 -0.242,-1.207 v -14.727 c 0,-0.418 0.082,-0.82 0.242,-1.207 0.16,-0.387 0.387,-0.73 0.683,-1.023 0.297,-0.297 0.637,-0.524 1.024,-0.684 0.387,-0.16 0.789,-0.242 1.207,-0.242 z" /><text
                   id="text70"
                   style="font-variant:normal;font-size:11.98406219px;font-family:CairoFont-0;-inkscape-font-specification:CairoFont-0-0;writing-mode:lr-tb;fill:#ffffff;fill-opacity:1;fill-rule:nonzero;stroke:none"
                   transform="translate(589.69379,133.74063)"><tspan
                     id="tspan68"
                     y="0"
                     x="0 7.3102779 14.021353 20.68449 24.004076 30.715151 34.705845 41.404934 49.386318 53.412964 60.076103 66.775192 70.765884 77.464973 83.457008 90.168083 96.16011 102.1881 108.85123">FeaturePreprocessor</tspan></text>
<path
                   id="path72"
                   style="fill:#636eff;fill-opacity:1;fill-rule:nonzero;stroke:none"
                   d="m 785.086,119.465 h 114.355 c 0.391,0 0.766,0.074 1.125,0.223 0.356,0.148 0.676,0.359 0.95,0.636 0.273,0.274 0.484,0.59 0.636,0.949 0.149,0.36 0.223,0.735 0.223,1.122 v 13.675 c 0,0.387 -0.074,0.762 -0.223,1.121 -0.152,0.36 -0.363,0.676 -0.636,0.95 -0.274,0.277 -0.594,0.488 -0.95,0.636 -0.359,0.149 -0.734,0.223 -1.125,0.223 H 785.086 c -0.387,0 -0.762,-0.074 -1.121,-0.223 -0.36,-0.148 -0.676,-0.359 -0.949,-0.636 -0.274,-0.274 -0.489,-0.59 -0.637,-0.95 -0.149,-0.359 -0.223,-0.734 -0.223,-1.121 v -13.675 c 0,-0.387 0.074,-0.762 0.223,-1.122 0.148,-0.359 0.363,-0.675 0.637,-0.949 0.273,-0.277 0.589,-0.488 0.949,-0.636 0.359,-0.149 0.734,-0.223 1.121,-0.223 z" /><text
                   id="text76"
                   style="font-variant:normal;font-size:11.98406219px;font-family:CairoFont-0;-inkscape-font-specification:CairoFont-0-0;writing-mode:lr-tb;fill:#ffffff;fill-opacity:1;fill-rule:nonzero;stroke:none"
                   transform="translate(816.78986,133.74063)"><tspan
                     id="tspan74"
                     y="0"
                     x="0 8.6524925 11.348907 18.012045 24.040028 30.032059 32.728474 36.048058 38.708519 45.407612">Classifier</tspan></text>
<g
                   id="g78"><path
                     id="path80"
                     style="fill:none;stroke:#050505;stroke-width:1.50270402;stroke-linecap:butt;stroke-linejoin:miter;stroke-miterlimit:10;stroke-dasharray:none;stroke-opacity:1"
                     d="m 120.969,135.242 h 70.07" /></g><g
                   id="g82"><path
                     id="path84"
                     style="fill:#050505;fill-opacity:1;fill-rule:nonzero;stroke:#050505;stroke-width:1.50270402;stroke-linecap:butt;stroke-linejoin:miter;stroke-miterlimit:10;stroke-dasharray:none;stroke-opacity:1"
                     d="m 194.418,135.242 -4.508,2.254 1.129,-2.254 -1.129,-2.254 z" /></g><path
                   id="path86"
                   style="fill:#ffffff;fill-opacity:1;fill-rule:nonzero;stroke:none"
                   d="m 162.293,123.223 h 7.512 v 15.027 h -7.512 z" /><text
                   id="text90"
                   style="font-variant:normal;font-size:13.48206902px;font-family:CairoFont-1;-inkscape-font-specification:CairoFont-1-0;writing-mode:lr-tb;fill:#666666;fill-opacity:1;fill-rule:nonzero;stroke:none"
                   transform="translate(162.33896,135.24333)"><tspan
                     id="tspan88"
                     y="0"
                     x="0">x</tspan></text>
<path
                   id="path92"
                   style="fill:#ffffff;fill-opacity:1;fill-rule:nonzero;stroke:none"
                   d="m 169.805,124.723 h 9.016 v 13.527 h -9.016 z" /><text
                   id="text96"
                   style="font-variant:normal;font-size:9.36254787px;font-family:CairoFont-1;-inkscape-font-specification:CairoFont-1-0;writing-mode:lr-tb;fill:#666666;fill-opacity:1;fill-rule:nonzero;stroke:none"
                   transform="translate(169.10112,139.00009)"><tspan
                     id="tspan94"
                     y="0"
                     x="0 2.5934258 4.934063">t,v</tspan></text>
<g
                   id="g98"><path
                     id="path100"
                     style="fill:none;stroke:#000000;stroke-width:1.50270402;stroke-linecap:butt;stroke-linejoin:miter;stroke-miterlimit:10;stroke-dasharray:none;stroke-opacity:1"
                     d="m 120.969,129.984 h 30.054 v -28.55 h 375.676 v 33.808 h 55.043" /></g><g
                   id="g102"><path
                     id="path104"
                     style="fill:#000000;fill-opacity:1;fill-rule:nonzero;stroke:#000000;stroke-width:1.50270402;stroke-linecap:butt;stroke-linejoin:miter;stroke-miterlimit:10;stroke-dasharray:none;stroke-opacity:1"
                     d="m 585.121,135.242 -4.508,2.254 1.129,-2.254 -1.129,-2.254 z" /></g><path
                   id="path106"
                   style="fill:#7aa860;fill-opacity:1;fill-rule:nonzero;stroke:none"
                   d="m 17.43,157.031 h 88.359 c 0.418,0 0.824,0.082 1.207,0.242 0.387,0.161 0.731,0.387 1.027,0.684 0.293,0.297 0.524,0.637 0.684,1.023 0.16,0.387 0.238,0.79 0.238,1.208 v 14.726 c 0,0.418 -0.078,0.82 -0.238,1.207 -0.16,0.387 -0.391,0.731 -0.684,1.024 -0.296,0.296 -0.64,0.527 -1.027,0.687 -0.383,0.16 -0.789,0.238 -1.207,0.238 H 17.43 c -0.418,0 -0.821,-0.078 -1.207,-0.238 -0.387,-0.16 -0.727,-0.391 -1.024,-0.687 -0.297,-0.293 -0.523,-0.637 -0.683,-1.024 -0.161,-0.387 -0.239,-0.789 -0.239,-1.207 v -14.726 c 0,-0.418 0.078,-0.821 0.239,-1.208 0.16,-0.386 0.386,-0.726 0.683,-1.023 0.297,-0.297 0.637,-0.523 1.024,-0.684 0.386,-0.16 0.789,-0.242 1.207,-0.242 z" /><text
                   id="text110"
                   style="font-variant:normal;font-size:11.98406219px;font-family:CairoFont-0;-inkscape-font-specification:CairoFont-0-0;writing-mode:lr-tb;fill:#ffffff;fill-opacity:1;fill-rule:nonzero;stroke:none"
                   transform="translate(22.423157,171.30821)"><tspan
                     id="tspan108"
                     y="0"
                     x="0 6.6631384 13.362229 20.025368 26.736443 35.388935 43.418255 51.399643 60.112057 66.775192 70.09478">LoadCSVData</tspan></text>
<g
                   id="g112"><path
                     id="path114"
                     style="fill:none;stroke:#050505;stroke-width:1.50270402;stroke-linecap:butt;stroke-linejoin:miter;stroke-miterlimit:10;stroke-dasharray:none;stroke-opacity:1"
                     d="m 316.32,135.242 h 70.071" /></g><g
                   id="g116"><path
                     id="path118"
                     style="fill:#050505;fill-opacity:1;fill-rule:nonzero;stroke:#050505;stroke-width:1.50270402;stroke-linecap:butt;stroke-linejoin:miter;stroke-miterlimit:10;stroke-dasharray:none;stroke-opacity:1"
                     d="m 389.77,135.242 -4.508,2.254 1.129,-2.254 -1.129,-2.254 z" /></g><g
                   id="g120"><path
                     id="path122"
                     style="fill:none;stroke:#050505;stroke-width:1.50270402;stroke-linecap:butt;stroke-linejoin:miter;stroke-miterlimit:10;stroke-dasharray:none;stroke-opacity:1"
                     d="m 616.859,11.27 h 120.215 v 112.703 l 40.02,0.332" /></g><g
                   id="g124"><path
                     id="path126"
                     style="fill:#050505;fill-opacity:1;fill-rule:nonzero;stroke:#050505;stroke-width:1.50270402;stroke-linecap:butt;stroke-linejoin:miter;stroke-miterlimit:10;stroke-dasharray:none;stroke-opacity:1"
                     d="m 780.473,124.332 -4.524,2.227 1.145,-2.254 -1.114,-2.254 z" /></g><path
                   id="path128"
                   style="fill:#7aa860;fill-opacity:1;fill-rule:nonzero;stroke:none"
                   d="m 810.859,157.031 h 62.813 c 0.418,0 0.82,0.082 1.207,0.242 0.387,0.161 0.726,0.387 1.023,0.684 0.297,0.297 0.524,0.637 0.684,1.023 0.16,0.387 0.242,0.79 0.242,1.208 v 14.726 c 0,0.418 -0.082,0.82 -0.242,1.207 -0.16,0.387 -0.387,0.731 -0.684,1.024 -0.297,0.296 -0.636,0.527 -1.023,0.687 -0.387,0.16 -0.789,0.238 -1.207,0.238 h -62.813 c -0.418,0 -0.82,-0.078 -1.207,-0.238 -0.386,-0.16 -0.73,-0.391 -1.023,-0.687 -0.297,-0.293 -0.527,-0.637 -0.688,-1.024 -0.16,-0.387 -0.238,-0.789 -0.238,-1.207 v -14.726 c 0,-0.418 0.078,-0.821 0.238,-1.208 0.161,-0.386 0.391,-0.726 0.688,-1.023 0.293,-0.297 0.637,-0.523 1.023,-0.684 0.387,-0.16 0.789,-0.242 1.207,-0.242 z" /><text
                   id="text132"
                   style="font-variant:normal;font-size:11.98406219px;font-family:CairoFont-0;-inkscape-font-specification:CairoFont-0-0;writing-mode:lr-tb;fill:#ffffff;fill-opacity:1;fill-rule:nonzero;stroke:none"
                   transform="translate(811.43652,171.30821)"><tspan
                     id="tspan130"
                     y="0"
                     x="0 6.6631384">16</tspan></text>
<text
                   id="text136"
                   style="font-variant:normal;font-size:11.98406219px;font-family:CairoFont-0;-inkscape-font-specification:CairoFont-0-1;writing-mode:lr-tb;fill:#ffffff;fill-opacity:1;fill-rule:nonzero;stroke:none"
                   transform="translate(824.79875,171.30821)"><tspan
                     id="tspan134"
                     y="0"
                     x="0"> </tspan></text>
<text
                   id="text140"
                   style="font-variant:normal;font-size:11.98406219px;font-family:CairoFont-0;-inkscape-font-specification:CairoFont-0-0;writing-mode:lr-tb;fill:#ffffff;fill-opacity:1;fill-rule:nonzero;stroke:none"
                   transform="translate(828.11834,171.30821)"><tspan
                     id="tspan138"
                     y="0"
                     x="0 8.700429 15.363567 22.062658 24.72312 30.715151 37.426224">Choices</tspan></text>
</g><g
                 id="g142"><g
                   clip-path="url(#clipPath148)"
                   id="g144"><path
                     id="path150"
                     style="fill:#7aa860;fill-opacity:1;fill-rule:nonzero;stroke:none"
                     d="m 615.508,160.039 h 62.812 c 0.418,0 0.821,0.078 1.207,0.238 0.387,0.161 0.727,0.391 1.024,0.684 0.297,0.297 0.523,0.637 0.683,1.023 0.161,0.387 0.243,0.789 0.243,1.211 v 14.727 c 0,0.418 -0.082,0.82 -0.243,1.207 -0.16,0.387 -0.386,0.726 -0.683,1.023 -0.297,0.297 -0.637,0.524 -1.024,0.684 -0.386,0.16 -0.789,0.238 -1.207,0.238 h -62.812 c -0.418,0 -0.82,-0.078 -1.207,-0.238 -0.387,-0.16 -0.731,-0.387 -1.024,-0.684 -0.297,-0.297 -0.523,-0.636 -0.683,-1.023 -0.16,-0.387 -0.242,-0.789 -0.242,-1.207 v -14.727 c 0,-0.422 0.082,-0.824 0.242,-1.211 0.16,-0.386 0.386,-0.726 0.683,-1.023 0.293,-0.293 0.637,-0.523 1.024,-0.684 0.387,-0.16 0.789,-0.238 1.207,-0.238 z" /><text
                     id="text154"
                     style="font-variant:normal;font-size:11.98406219px;font-family:CairoFont-0;-inkscape-font-specification:CairoFont-0-0;writing-mode:lr-tb;fill:#ffffff;fill-opacity:1;fill-rule:nonzero;stroke:none"
                     transform="translate(616.08502,174.31363)"><tspan
                       id="tspan152"
                       y="0"
                       x="0 6.6631384 16.705782 25.358274 32.069351 38.732487 41.428902 47.420933 54.120026">12Choices</tspan></text>
</g></g><g
                 id="g156"><path
                   id="path158"
                   style="fill:#7aa860;fill-opacity:1;fill-rule:nonzero;stroke:none"
                   d="m 212.781,157.031 h 88.36 c 0.418,0 0.82,0.082 1.207,0.242 0.386,0.161 0.73,0.387 1.027,0.684 0.293,0.297 0.523,0.637 0.684,1.023 0.16,0.387 0.238,0.79 0.238,1.208 v 14.726 c 0,0.418 -0.078,0.82 -0.238,1.207 -0.161,0.387 -0.391,0.731 -0.684,1.024 -0.297,0.296 -0.641,0.527 -1.027,0.687 -0.387,0.16 -0.789,0.238 -1.207,0.238 h -88.36 c -0.418,0 -0.82,-0.078 -1.207,-0.238 -0.386,-0.16 -0.726,-0.391 -1.023,-0.687 -0.297,-0.293 -0.524,-0.637 -0.684,-1.024 -0.16,-0.387 -0.238,-0.789 -0.238,-1.207 v -14.726 c 0,-0.418 0.078,-0.821 0.238,-1.208 0.16,-0.386 0.387,-0.726 0.684,-1.023 0.297,-0.297 0.637,-0.523 1.023,-0.684 0.387,-0.16 0.789,-0.242 1.207,-0.242 z" /><text
                   id="text162"
                   style="font-variant:normal;font-size:11.98406219px;font-family:CairoFont-0;-inkscape-font-specification:CairoFont-0-0;writing-mode:lr-tb;fill:#ffffff;fill-opacity:1;fill-rule:nonzero;stroke:none"
                   transform="translate(215.77885,171.30821)"><tspan
                     id="tspan160"
                     y="0"
                     x="0 7.9813852 10.677799 20.660522 27.371597 30.032059 40.062717 43.382305 53.412964 60.076103 66.775192 70.09478 76.793869">SimpleImputer</tspan></text>
</g><g
                 id="g164"><g
                   clip-path="url(#clipPath170)"
                   id="g166"><path
                     id="path172"
                     style="fill:#7aa860;fill-opacity:1;fill-rule:nonzero;stroke:none"
                     d="m 420.156,160.039 h 62.813 c 0.418,0 0.82,0.078 1.207,0.238 0.386,0.161 0.73,0.391 1.023,0.684 0.297,0.297 0.524,0.637 0.684,1.023 0.16,0.387 0.242,0.789 0.242,1.211 v 14.727 c 0,0.418 -0.082,0.82 -0.242,1.207 -0.16,0.387 -0.387,0.726 -0.684,1.023 -0.293,0.297 -0.637,0.524 -1.023,0.684 -0.387,0.16 -0.789,0.238 -1.207,0.238 h -62.813 c -0.418,0 -0.82,-0.078 -1.207,-0.238 -0.387,-0.16 -0.73,-0.387 -1.023,-0.684 -0.297,-0.297 -0.524,-0.636 -0.684,-1.023 -0.16,-0.387 -0.242,-0.789 -0.242,-1.207 v -14.727 c 0,-0.422 0.082,-0.824 0.242,-1.211 0.16,-0.386 0.387,-0.726 0.684,-1.023 0.293,-0.293 0.636,-0.523 1.023,-0.684 0.387,-0.16 0.789,-0.238 1.207,-0.238 z" /><text
                     id="text176"
                     style="font-variant:normal;font-size:11.98406219px;font-family:CairoFont-0;-inkscape-font-specification:CairoFont-0-0;writing-mode:lr-tb;fill:#ffffff;fill-opacity:1;fill-rule:nonzero;stroke:none"
                     transform="translate(424.06766,174.31363)"><tspan
                       id="tspan174"
                       y="0"
                       x="0 10.018676 18.707121 25.370258 32.069351 34.729813 40.721844 47.432919">6Choices</tspan></text>
</g></g><g
                 id="g178"><path
                   id="path180"
                   style="fill:#7a7a7a;fill-opacity:1;fill-rule:nonzero;stroke:none"
                   d="m 60.859,157.066 -0.207,-4.504 1.504,-0.066 0.207,4.504 m -1.914,-8.941 -0.113,-2.473 1.5,-0.07 0.113,2.476" /><g
                   id="g182"><path
                     id="path184"
                     style="fill:#7a7a7a;fill-opacity:1;fill-rule:nonzero;stroke:#7a7a7a;stroke-width:1.50270402;stroke-linecap:butt;stroke-linejoin:miter;stroke-miterlimit:10;stroke-dasharray:none;stroke-opacity:1"
                     d="m 60.934,142.188 2.464,4.402 -2.312,-1.039 -2.195,1.234 z" /></g><path
                   id="path186"
                   style="fill:#7a7a7a;fill-opacity:1;fill-rule:nonzero;stroke:none"
                   d="m 256.211,157.066 -0.207,-4.504 1.504,-0.066 0.207,4.504 m -1.914,-8.941 -0.113,-2.473 1.5,-0.07 0.113,2.476" /><g
                   id="g188"><path
                     id="path190"
                     style="fill:#7a7a7a;fill-opacity:1;fill-rule:nonzero;stroke:#7a7a7a;stroke-width:1.50270402;stroke-linecap:butt;stroke-linejoin:miter;stroke-miterlimit:10;stroke-dasharray:none;stroke-opacity:1"
                     d="m 256.285,142.188 2.465,4.402 -2.312,-1.039 -2.196,1.234 z" /></g><path
                   id="path192"
                   style="fill:#7a7a7a;fill-opacity:1;fill-rule:nonzero;stroke:none"
                   d="m 841.516,157.031 v -4.508 h 1.5 v 4.508 m -1.5,-9.015 v -3.954 h 1.5 v 3.954" /><g
                   id="g194"><path
                     id="path196"
                     style="fill:#7a7a7a;fill-opacity:1;fill-rule:nonzero;stroke:#7a7a7a;stroke-width:1.50270402;stroke-linecap:butt;stroke-linejoin:miter;stroke-miterlimit:10;stroke-dasharray:none;stroke-opacity:1"
                     d="m 842.266,140.684 2.254,4.507 -2.254,-1.129 -2.254,1.129 z" /></g><path
                   id="path198"
                   style="fill:#7a7a7a;fill-opacity:1;fill-rule:nonzero;stroke:none"
                   d="m 450.812,160.039 v -4.508 h 1.5 v 4.508 z m 0,-9.016 v -4.511 h 1.5 v 4.511 z" /><g
                   id="g200"><path
                     id="path202"
                     style="fill:#7a7a7a;fill-opacity:1;fill-rule:nonzero;stroke:#7a7a7a;stroke-width:1.50270402;stroke-linecap:butt;stroke-linejoin:miter;stroke-miterlimit:10;stroke-dasharray:none;stroke-opacity:1"
                     d="m 451.562,142.188 2.254,4.507 -2.254,-1.129 -2.253,1.129 z" /></g><path
                   id="path204"
                   style="fill:#7a7a7a;fill-opacity:1;fill-rule:nonzero;stroke:none"
                   d="m 646.164,160.039 v -4.508 h 1.5 v 4.508 m -1.5,-9.016 v -4.511 h 1.5 v 4.511" /><g
                   id="g206"><path
                     id="path208"
                     style="fill:#7a7a7a;fill-opacity:1;fill-rule:nonzero;stroke:#7a7a7a;stroke-width:1.50270402;stroke-linecap:butt;stroke-linejoin:miter;stroke-miterlimit:10;stroke-dasharray:none;stroke-opacity:1"
                     d="m 646.914,142.188 2.254,4.507 -2.254,-1.129 -2.254,1.129 z" /></g><path
                   id="path210"
                   style="fill:#ffffff;fill-opacity:1;fill-rule:nonzero;stroke:none"
                   d="m 351.633,124.723 h 7.512 v 15.027 h -7.512 z" /><text
                   id="text214"
                   style="font-variant:normal;font-size:13.48206902px;font-family:CairoFont-1;-inkscape-font-specification:CairoFont-1-0;writing-mode:lr-tb;fill:#666666;fill-opacity:1;fill-rule:nonzero;stroke:none"
                   transform="translate(351.67963,136.74603)"><tspan
                     id="tspan212"
                     y="0"
                     x="0">x</tspan></text>
<path
                   id="path216"
                   style="fill:#ffffff;fill-opacity:1;fill-rule:nonzero;stroke:none"
                   d="m 359.145,126.227 h 9.02 v 13.523 h -9.02 z" /><text
                   id="text220"
                   style="font-variant:normal;font-size:9.36254787px;font-family:CairoFont-1;-inkscape-font-specification:CairoFont-1-0;writing-mode:lr-tb;fill:#666666;fill-opacity:1;fill-rule:nonzero;stroke:none"
                   transform="translate(358.44177,140.50279)"><tspan
                     id="tspan218"
                     y="0"
                     x="0 2.5934258 4.934063">t,v</tspan></text>
<path
                   id="path222"
                   style="fill:#ffffff;fill-opacity:1;fill-rule:nonzero;stroke:none"
                   d="m 743.84,112.703 h 7.512 v 15.027 h -7.512 z" /><text
                   id="text226"
                   style="font-variant:normal;font-size:13.48206902px;font-family:CairoFont-1;-inkscape-font-specification:CairoFont-1-0;writing-mode:lr-tb;fill:#666666;fill-opacity:1;fill-rule:nonzero;stroke:none"
                   transform="translate(743.88525,124.7244)"><tspan
                     id="tspan224"
                     y="0"
                     x="0">x</tspan></text>
<path
                   id="path228"
                   style="fill:#ffffff;fill-opacity:1;fill-rule:nonzero;stroke:none"
                   d="m 751.352,114.207 h 9.016 v 13.523 h -9.016 z" /><text
                   id="text232"
                   style="font-variant:normal;font-size:9.36254787px;font-family:CairoFont-1;-inkscape-font-specification:CairoFont-1-0;writing-mode:lr-tb;fill:#666666;fill-opacity:1;fill-rule:nonzero;stroke:none"
                   transform="translate(750.64746,128.48117)"><tspan
                     id="tspan230"
                     y="0"
                     x="0 2.5934258 4.934063">t,v</tspan></text>
<path
                   id="path234"
                   style="fill:#ffffff;fill-opacity:1;fill-rule:nonzero;stroke:none"
                   d="m 537.969,126.227 h 7.512 v 15.027 h -7.512 z" /><text
                   id="text238"
                   style="font-variant:normal;font-size:13.48206902px;font-family:CairoFont-1;-inkscape-font-specification:CairoFont-1-0;writing-mode:lr-tb;fill:#666666;fill-opacity:1;fill-rule:nonzero;stroke:none"
                   transform="translate(538.01489,138.24873)"><tspan
                     id="tspan236"
                     y="0"
                     x="0">y</tspan></text>
<path
                   id="path240"
                   style="fill:#ffffff;fill-opacity:1;fill-rule:nonzero;stroke:none"
                   d="m 545.48,127.73 h 9.016 v 13.523 h -9.016 z" /><text
                   id="text244"
                   style="font-variant:normal;font-size:9.36254787px;font-family:CairoFont-1;-inkscape-font-specification:CairoFont-1-0;writing-mode:lr-tb;fill:#666666;fill-opacity:1;fill-rule:nonzero;stroke:none"
                   transform="translate(544.77704,142.00549)"><tspan
                     id="tspan242"
                     y="0"
                     x="0 2.5934258 4.934063">t,v</tspan></text>
<path
                   id="path246"
                   style="fill:#636eff;fill-opacity:1;fill-rule:nonzero;stroke:none"
                   d="m 499.801,0.75 h 113.902 c 0.418,0 0.82,0.082 1.207,0.242 0.387,0.16 0.731,0.387 1.024,0.684 0.296,0.297 0.527,0.636 0.687,1.023 0.16,0.387 0.238,0.789 0.238,1.207 v 14.727 c 0,0.418 -0.078,0.82 -0.238,1.207 -0.16,0.387 -0.391,0.73 -0.687,1.023 -0.293,0.297 -0.637,0.528 -1.024,0.688 -0.387,0.16 -0.789,0.238 -1.207,0.238 H 499.801 c -0.422,0 -0.824,-0.078 -1.211,-0.238 -0.387,-0.16 -0.727,-0.391 -1.024,-0.688 -0.293,-0.293 -0.523,-0.636 -0.683,-1.023 -0.16,-0.387 -0.238,-0.789 -0.238,-1.207 V 3.906 c 0,-0.418 0.078,-0.82 0.238,-1.207 0.16,-0.387 0.39,-0.726 0.683,-1.023 0.297,-0.297 0.637,-0.524 1.024,-0.684 0.387,-0.16 0.789,-0.242 1.211,-0.242 z" /><text
                   id="text250"
                   style="font-variant:normal;font-size:11.98406219px;font-family:CairoFont-0;-inkscape-font-specification:CairoFont-0-0;writing-mode:lr-tb;fill:#ffffff;fill-opacity:1;fill-rule:nonzero;stroke:none"
                   transform="translate(507.53818,15.027037)"><tspan
                     id="tspan248"
                     y="0"
                     x="0 8.6524925 15.363567 18.683153 25.382244 33.363628 37.390274 44.053413 50.752502 54.743195 61.442287 67.434319 74.133408 80.125435 86.153419 92.816559">DataPreprocessor</tspan></text>
<path
                   id="path252"
                   style="fill:#636eff;fill-opacity:1;fill-rule:nonzero;stroke:none"
                   d="m 301.441,54.848 h 125.926 c 0.422,0 0.824,0.082 1.211,0.242 0.387,0.16 0.727,0.387 1.024,0.683 0.293,0.297 0.523,0.637 0.683,1.024 0.16,0.387 0.238,0.789 0.238,1.207 V 72.73 c 0,0.418 -0.078,0.821 -0.238,1.208 -0.16,0.386 -0.39,0.73 -0.683,1.023 -0.297,0.297 -0.637,0.523 -1.024,0.684 -0.387,0.16 -0.789,0.242 -1.211,0.242 H 301.441 c -0.418,0 -0.82,-0.082 -1.207,-0.242 -0.386,-0.161 -0.726,-0.387 -1.023,-0.684 -0.297,-0.293 -0.523,-0.637 -0.684,-1.023 -0.16,-0.387 -0.242,-0.79 -0.242,-1.208 V 58.004 c 0,-0.418 0.082,-0.82 0.242,-1.207 0.161,-0.387 0.387,-0.727 0.684,-1.024 0.297,-0.296 0.637,-0.523 1.023,-0.683 0.387,-0.16 0.789,-0.242 1.207,-0.242 z" /><text
                   id="text256"
                   style="font-variant:normal;font-size:11.98406219px;font-family:CairoFont-0;-inkscape-font-specification:CairoFont-0-0;writing-mode:lr-tb;fill:#ffffff;fill-opacity:1;fill-rule:nonzero;stroke:none"
                   transform="translate(300.84598,69.124367)"><tspan
                     id="tspan254"
                     y="0"
                     x="0 8.6524925 15.363567 25.382244 32.045383 36.036076 38.732487 44.724518 51.423611 54.084072 62.10141 66.092102 72.791191 79.45433 83.480972 90.144112 96.172096 102.83524 108.86322 114.85525 121.56632">NumericalPreprocessor</tspan></text>
<path
                   id="path258"
                   style="fill:#7a7a7a;fill-opacity:1;fill-rule:nonzero;stroke:none"
                   d="M 363.652,54.848 V 50.34 h 1.504 v 4.508 z m 3.758,-6.762 h 4.508 v 1.504 h -4.508 z m 9.016,0 h 4.508 v 1.504 h -4.508 z m 9.019,0 h 4.508 v 1.504 h -4.508 z m 9.016,0 h 4.508 v 1.504 h -4.508 z m 9.016,0 h 4.507 v 1.504 h -4.507 z m 9.015,0 H 417 v 1.504 h -4.508 z m 9.016,0 h 4.508 v 1.504 h -4.508 z m 9.015,0 h 4.508 v 1.504 h -4.508 z m 9.016,0 h 4.512 v 1.504 h -4.512 z m 9.02,0 h 4.507 v 1.504 h -4.507 z m 9.015,0 h 4.508 v 1.504 h -4.508 z m 9.016,0 h 4.508 v 1.504 h -4.508 z m 9.015,0 h 4.508 v 1.504 h -4.508 z m 9.016,0 h 4.508 v 1.504 h -4.508 z m 9.016,0 h 4.508 v 1.504 h -4.508 z m 9.019,0 h 4.508 v 1.504 h -4.508 z m 9.016,0 h 4.508 v 1.504 h -4.508 z m 9.016,0 h 4.507 v 1.504 h -4.507 z m 5.257,-2.254 v -4.508 h 1.504 v 4.508 z m 0,-9.016 v -4.507 h 1.504 v 4.507 z m 0,-9.015 v -0.949 h 1.504 v 0.949 z" /><g
                   id="g260"><path
                     id="path262"
                     style="fill:#7a7a7a;fill-opacity:1;fill-rule:nonzero;stroke:#7a7a7a;stroke-width:1.50270402;stroke-linecap:butt;stroke-linejoin:miter;stroke-miterlimit:10;stroke-dasharray:none;stroke-opacity:1"
                     d="m 526.699,23.473 2.254,4.507 -2.254,-1.128 -2.254,1.128 z" /></g><g
                   id="g264"><path
                     id="path266"
                     style="fill:none;stroke:#050505;stroke-width:1.50270402;stroke-linecap:butt;stroke-linejoin:miter;stroke-miterlimit:10;stroke-dasharray:none;stroke-opacity:1"
                     d="m 430.523,65.367 111.204,-1.504 v 60.86 h 40.015" /></g><g
                   id="g268"><path
                     id="path270"
                     style="fill:#050505;fill-opacity:1;fill-rule:nonzero;stroke:#050505;stroke-width:1.50270402;stroke-linecap:butt;stroke-linejoin:miter;stroke-miterlimit:10;stroke-dasharray:none;stroke-opacity:1"
                     d="m 585.121,124.723 -4.508,2.254 1.129,-2.254 -1.129,-2.254 z" /></g><path
                   id="path272"
                   style="fill:#ffffff;fill-opacity:1;fill-rule:nonzero;stroke:none"
                   d="m 554.496,114.207 h 7.516 v 15.027 h -7.516 z" /><text
                   id="text276"
                   style="font-variant:normal;font-size:13.48206902px;font-family:CairoFont-1;-inkscape-font-specification:CairoFont-1-0;writing-mode:lr-tb;fill:#666666;fill-opacity:1;fill-rule:nonzero;stroke:none"
                   transform="translate(554.54462,126.22711)"><tspan
                     id="tspan274"
                     y="0"
                     x="0">x</tspan></text>
<path
                   id="path278"
                   style="fill:#ffffff;fill-opacity:1;fill-rule:nonzero;stroke:none"
                   d="m 562.012,115.707 h 9.016 v 13.527 h -9.016 z" /><text
                   id="text282"
                   style="font-variant:normal;font-size:9.36254787px;font-family:CairoFont-1;-inkscape-font-specification:CairoFont-1-0;writing-mode:lr-tb;fill:#666666;fill-opacity:1;fill-rule:nonzero;stroke:none"
                   transform="translate(561.30676,129.98387)"><tspan
                     id="tspan280"
                     y="0"
                     x="0 2.5934258 4.934063">t,v</tspan></text>
<g
                   id="g284"><path
                     id="path286"
                     style="fill:none;stroke:#000000;stroke-width:1.50270402;stroke-linecap:butt;stroke-linejoin:miter;stroke-miterlimit:4;stroke-dasharray:none;stroke-opacity:1"
                     d="M 14.277,30.805 H 179.574 V 75.887 H 14.277 Z" /></g><path
                   id="path288"
                   style="fill:#ffffff;fill-opacity:1;fill-rule:nonzero;stroke:none"
                   d="M 16.531,37.566 H 172.812 V 69.125 H 16.531 Z" /><text
                   id="text292"
                   style="font-variant:normal;font-size:13.48206902px;font-family:CairoFont-1;-inkscape-font-specification:CairoFont-1-1;writing-mode:lr-tb;fill:#000000;fill-opacity:1;fill-rule:nonzero;stroke:none"
                   transform="translate(16.529739,49.589222)"><tspan
                     id="tspan290"
                     y="0"
                     x="0"> </tspan></text>
<text
                   id="text296"
                   style="font-variant:normal;font-size:13.48206902px;font-family:CairoFont-1;-inkscape-font-specification:CairoFont-1-0;writing-mode:lr-tb;fill:#000000;fill-opacity:1;fill-rule:nonzero;stroke:none"
                   transform="translate(23.297738,49.589222)"><tspan
                     id="tspan294"
                     y="0"
                     x="0 6.7410345 13.522515 20.26355 27.409046 31.898575 37.871132 43.897617 47.632149 54.373184 58.90316 64.875717 73.544685 79.517242 86.298721 96.437241 100.17178 106.14433 110.43163 117.17266 123.18566 126.9202">x,y:featuresandtargets</tspan></text>
<text
                   id="text300"
                   style="font-variant:normal;font-size:13.48206902px;font-family:CairoFont-1;-inkscape-font-specification:CairoFont-1-1;writing-mode:lr-tb;fill:#000000;fill-opacity:1;fill-rule:nonzero;stroke:none"
                   transform="translate(16.529739,66.118953)"><tspan
                     id="tspan298"
                     y="0"
                     x="0"> </tspan></text>
<text
                   id="text304"
                   style="font-variant:normal;font-size:13.48206902px;font-family:CairoFont-1;-inkscape-font-specification:CairoFont-1-0;writing-mode:lr-tb;fill:#000000;fill-opacity:1;fill-rule:nonzero;stroke:none"
                   transform="translate(23.297738,66.118953)"><tspan
                     id="tspan302"
                     y="0"
                     x="0 3.7345331 10.502532 17.243567 24.389063 28.123596 32.613125 38.63961 42.374142 49.115177 52.890156 59.631191 69.796669 75.769226 82.550705 92.689224 99.43026 105.44326 109.1778 112.91233 119.69381 125.66637 129.44135 133.17587 139.91692">t,v:trainingandvalidation</tspan></text>
<text
                   id="text308"
                   style="font-variant:normal;font-size:13.48206902px;font-family:CairoFont-1;-inkscape-font-specification:CairoFont-1-1;writing-mode:lr-tb;fill:#000000;fill-opacity:1;fill-rule:nonzero;stroke:none"
                   transform="translate(170.00961,66.118953)"><tspan
                     id="tspan306"
                     y="0"
                     x="0"> </tspan></text>
<g
                   id="g310"><path
                     id="path312"
                     style="fill:none;stroke:#000000;stroke-width:1.50270402;stroke-linecap:butt;stroke-linejoin:miter;stroke-miterlimit:10;stroke-dasharray:none;stroke-opacity:1"
                     d="m 120.969,124.723 h 15.027 V 93.918 h 398.215 c 0,-9.766 15.027,-9.766 15.027,0 h 172.813 v 40.273 l 55.043,-0.074" /></g><g
                   id="g314"><path
                     id="path316"
                     style="fill:#000000;fill-opacity:1;fill-rule:nonzero;stroke:#000000;stroke-width:1.50270402;stroke-linecap:butt;stroke-linejoin:miter;stroke-miterlimit:10;stroke-dasharray:none;stroke-opacity:1"
                     d="m 780.473,134.117 -4.508,2.27 1.129,-2.27 -1.129,-2.238 z" /></g><path
                   id="path318"
                   style="fill:#7a7a7a;fill-opacity:1;fill-rule:nonzero;stroke:none"
                   d="m 450.812,119.465 v -4.508 h 1.5 v 4.508 z m 0,-9.016 v -1.504 h 0.75 v 0.754 h -3.003 v -1.504 h 3.753 v 2.254 z m -6.761,-0.75 h -4.512 v -1.504 h 4.512 z m -9.02,0 h -4.508 v -1.504 h 4.508 z m -9.015,0 h -4.508 v -1.504 h 4.508 z m -9.016,0 h -4.508 v -1.504 H 417 Z m -9.016,0 h -4.507 v -1.504 h 4.507 z m -9.015,0 h -2.254 v -3.758 h 1.5 v 3.004 h -0.75 v -0.75 h 1.504 z m -2.254,-8.265 v -4.508 h 1.5 v 4.508 z m 0,-9.016 v -4.512 h 1.5 v 4.512 z m 0,-9.02 v -2.449 h 1.5 v 2.449 z" /><g
                   id="g320"><path
                     id="path322"
                     style="fill:#7a7a7a;fill-opacity:1;fill-rule:nonzero;stroke:#7a7a7a;stroke-width:1.50270402;stroke-linecap:butt;stroke-linejoin:miter;stroke-miterlimit:10;stroke-dasharray:none;stroke-opacity:1"
                     d="m 397.465,77.57 2.254,4.508 -2.254,-1.129 -2.254,1.129 z" /></g><path
                   id="path324"
                   style="fill:#7a7a7a;fill-opacity:1;fill-rule:nonzero;stroke:none"
                   d="m 255.461,119.465 v -4.508 h 1.5 v 4.508 z m 0,-9.016 v -2.254 h 3.754 v 1.504 h -3.004 v -0.754 h 0.75 v 1.504 z m 8.262,-2.254 h 4.511 v 1.504 h -4.511 z m 9.019,0 h 4.508 v 1.504 h -4.508 z m 9.016,0 h 4.508 v 1.504 h -4.508 z m 9.015,0 h 4.508 v 1.504 h -4.508 z m 9.016,0 h 4.508 v 1.504 h -4.508 z m 9.016,0 h 4.507 v 1.504 h -4.507 z m 9.015,0 h 4.508 v 1.504 h -4.508 z m 9.02,0 h 4.508 v 1.504 h -4.508 z m 3.754,-3.757 V 99.93 h 1.504 v 4.508 z m 0,-9.016 v -4.508 h 1.504 v 4.508 z m 0,-9.016 v -4.508 h 1.504 v 4.508 z" /><g
                   id="g326"><path
                     id="path328"
                     style="fill:#7a7a7a;fill-opacity:1;fill-rule:nonzero;stroke:#7a7a7a;stroke-width:1.50270402;stroke-linecap:butt;stroke-linejoin:miter;stroke-miterlimit:10;stroke-dasharray:none;stroke-opacity:1"
                     d="m 331.348,77.57 2.254,4.508 -2.254,-1.129 -2.254,1.129 z" /></g><path
                   id="path330"
                   style="fill:#7a7a7a;fill-opacity:1;fill-rule:nonzero;stroke:none"
                   d="m 646.164,119.465 v -4.508 h 1.5 v 4.508 z m 0,-9.016 v -4.508 h 1.5 v 4.508 z m 0,-9.015 v -4.508 h 1.5 v 4.508 z m 0,-9.016 v -4.512 h 1.5 v 4.512 z m 0,-9.02 v -4.507 h 1.5 v 4.507 z m 0,-9.015 v -4.508 h 1.5 v 4.508 z m 0,-9.016 v -4.508 h 1.5 v 4.508 z m 0,-9.015 v -4.508 h 1.5 v 4.508 z M 645.41,49.59 h -4.508 v -1.504 h 4.508 z m -9.015,0 h -4.508 v -1.504 h 4.508 z m -9.016,0 h -4.508 v -1.504 h 4.508 z m -9.016,0 h -4.508 v -1.504 h 4.508 z m -9.015,0 h -4.508 v -1.504 h 4.508 z m -9.016,0 h -4.512 v -1.504 h 4.512 z m -9.02,0 h -4.507 v -1.504 h 4.507 z m -5.257,-5.262 V 39.82 h 1.504 v 4.508 z m 0,-9.016 v -4.507 h 1.504 v 4.507 z" /><g
                   id="g332"><path
                     id="path334"
                     style="fill:#7a7a7a;fill-opacity:1;fill-rule:nonzero;stroke:#7a7a7a;stroke-width:1.50270402;stroke-linecap:butt;stroke-linejoin:miter;stroke-miterlimit:10;stroke-dasharray:none;stroke-opacity:1"
                     d="m 586.805,23.473 2.254,4.507 -2.254,-1.128 -2.254,1.128 z" /></g><path
                   id="path336"
                   style="fill:#ffffff;fill-opacity:1;fill-rule:nonzero;stroke:none"
                   d="m 731.816,126.227 h 7.516 v 15.027 h -7.516 z" /><text
                   id="text340"
                   style="font-variant:normal;font-size:13.48206902px;font-family:CairoFont-1;-inkscape-font-specification:CairoFont-1-0;writing-mode:lr-tb;fill:#666666;fill-opacity:1;fill-rule:nonzero;stroke:none"
                   transform="translate(731.86365,138.24873)"><tspan
                     id="tspan338"
                     y="0"
                     x="0">y</tspan></text>
<path
                   id="path342"
                   style="fill:#ffffff;fill-opacity:1;fill-rule:nonzero;stroke:none"
                   d="m 739.332,127.73 h 9.016 v 13.523 h -9.016 z" /><text
                   id="text346"
                   style="font-variant:normal;font-size:9.36254787px;font-family:CairoFont-1;-inkscape-font-specification:CairoFont-1-0;writing-mode:lr-tb;fill:#666666;fill-opacity:1;fill-rule:nonzero;stroke:none"
                   transform="translate(738.62579,142.00549)"><tspan
                     id="tspan344"
                     y="0"
                     x="0 2.5934258 4.934063">t,v</tspan></text>
</g></g></g></g></g></g></g></svg>