<?xml version="1.0" encoding="UTF-8" standalone="no"?>
<svg
   xmlns:dc="http://purl.org/dc/elements/1.1/"
   xmlns:cc="http://creativecommons.org/ns#"
   xmlns:rdf="http://www.w3.org/1999/02/22-rdf-syntax-ns#"
   xmlns:svg="http://www.w3.org/2000/svg"
   xmlns="http://www.w3.org/2000/svg"
   viewBox="0 0 404.16 136"
   height="136"
   width="404.16"
   xml:space="preserve"
   id="svg2"
   version="1.1"><metadata
     id="metadata8"><rdf:RDF><cc:Work
         rdf:about=""><dc:format>image/svg+xml</dc:format><dc:type
           rdf:resource="http://purl.org/dc/dcmitype/StillImage" /></cc:Work></rdf:RDF></metadata><defs
     id="defs6"><clipPath
       id="clipPath18"
       clipPathUnits="userSpaceOnUse"><path
         style="clip-rule:evenodd"
         id="path16"
         d="M 0,0 H 1262.5 V 426 H 0 Z" /></clipPath><clipPath
       id="clipPath30"
       clipPathUnits="userSpaceOnUse"><path
         style="clip-rule:evenodd"
         id="path28"
         d="M 0,0 H 1262.5 V 417.82739 H 0 Z" /></clipPath></defs><g
     transform="matrix(0.31999998,0,0,0.31999998,0,3.4e-6)"
     id="g10"><g
       id="g12"><g
         clip-path="url(#clipPath18)"
         id="g14"><g
           transform="scale(3.0059524)"
           id="g20"><path
             id="path22"
             style="fill:#ffffff;fill-opacity:1;fill-rule:nonzero;stroke:none"
             d="M 0,0 H 420 V 142 H 0 Z" /></g></g></g><g
       id="g24"><g
         clip-path="url(#clipPath30)"
         id="g26"><g
           transform="matrix(3.0059524,0,0,3.0059524,1.5029762,1.5029762)"
           id="g32"><path
             id="path34"
             style="fill:#ffffff;fill-opacity:1;fill-rule:nonzero;stroke:none"
             d="M 6.7800002,13.75 H 396.78 v 120 H 6.7800002 Z" /><path
             id="path36"
             style="fill:#ffffff;fill-opacity:1;fill-rule:nonzero;stroke:none"
             d="M 188.62,83 H 399 v 53 H 188.62 Z" /><path
             id="path38"
             style="fill:none;stroke:#000000;stroke-width:1;stroke-linecap:butt;stroke-linejoin:miter;stroke-miterlimit:10;stroke-dasharray:none;stroke-opacity:1"
             d="M 188.62,83 H 399 v 53 H 188.62 Z" /><path
             id="path40"
             style="fill:#666666;fill-opacity:1;fill-rule:nonzero;stroke:none"
             d="m 15.5,19 h 29 c 0.19891,0 0.390247,0.03806 0.57402,0.11418 0.183773,0.07612 0.34599,0.184505 0.486641,0.325159 0.140652,0.140649 0.249035,0.302862 0.325157,0.486633 C 45.961937,20.109743 45.999996,20.301085 46,20.5 v 7 c -4e-6,0.198912 -0.03806,0.390251 -0.114182,0.574022 -0.07612,0.18377 -0.184505,0.345982 -0.325157,0.486636 -0.140651,0.140651 -0.302868,0.249036 -0.486641,0.325157 C 44.890247,28.961935 44.69891,28.999998 44.5,29 h -29 c -0.198914,-2e-6 -0.390256,-0.03806 -0.574027,-0.114187 -0.183771,-0.07612 -0.345983,-0.184504 -0.486634,-0.325155 -0.140653,-0.140654 -0.24904,-0.302866 -0.32516,-0.486636 C 14.038058,27.890251 13.999999,27.698912 14,27.5 v -7 c -10e-7,-0.198915 0.03806,-0.390257 0.114179,-0.574028 0.07612,-0.183771 0.184507,-0.345984 0.32516,-0.486633 C 14.57999,19.298685 14.742202,19.1903 14.925973,19.11418 15.109744,19.038059 15.301086,19 15.5,19 Z" /></g><g
           transform="scale(3.0059524)"
           id="g42"><text
             id="text46"
             style="font-variant:normal;font-weight:normal;font-size:7px;font-family:ArialMT;-inkscape-font-specification:ArialMT;writing-mode:lr-tb;fill:#ffffff;fill-opacity:1;fill-rule:nonzero;stroke:none"
             transform="translate(17.546875,26)"><tspan
               id="tspan44"
               y="0"
               x="0 3.8930664 7.7861328 11.679199 15.572266 17.51709 19.848145 21.40332">LoadIris</tspan></text>
</g><g
           transform="matrix(3.0059524,0,0,3.0059524,1.5029762,1.5029762)"
           id="g48"><path
             id="path50"
             style="fill:#666666;fill-opacity:1;fill-rule:nonzero;stroke:none"
             d="m 192.28,87.75 h 7 c 0.1989,0 0.39023,0.03805 0.574,0.114174 0.18377,0.07612 0.34598,0.184509 0.48665,0.325157 0.14064,0.140648 0.24901,0.302864 0.32514,0.486633 0.0761,0.18377 0.11419,0.375115 0.11421,0.574036 v 7 c -2e-5,0.198906 -0.0381,0.390251 -0.1142,0.57402 -0.0761,0.183762 -0.18451,0.345971 -0.32515,0.486634 -0.14067,0.140648 -0.30288,0.249031 -0.48665,0.325149 -0.18377,0.07613 -0.3751,0.114189 -0.574,0.114197 h -7 c -0.19893,-8e-6 -0.39028,-0.03807 -0.57404,-0.114197 -0.18379,-0.07612 -0.34599,-0.184501 -0.48663,-0.325149 -0.14067,-0.140663 -0.24905,-0.302872 -0.32518,-0.486641 C 190.81802,96.640244 190.77998,96.448906 190.78,96.25 v -7 c -2e-5,-0.198921 0.038,-0.390266 0.11415,-0.574036 0.0761,-0.183769 0.18451,-0.345985 0.32518,-0.486633 0.14064,-0.140648 0.30284,-0.249039 0.48663,-0.325157 C 191.88972,87.788055 192.08107,87.75 192.28,87.75 Z" /></g><g
           transform="scale(3.0059524)"
           id="g52"><text
             id="text56"
             style="font-variant:normal;font-weight:normal;font-size:7px;font-family:ArialMT;-inkscape-font-specification:ArialMT;writing-mode:lr-tb;fill:#ffffff;fill-opacity:1;fill-rule:nonzero;stroke:none"
             transform="translate(193.65625,95)"><tspan
               id="tspan54"
               y="0"
               x="0">A</tspan></text>
</g><g
           transform="matrix(3.0059524,0,0,3.0059524,1.5029762,1.5029762)"
           id="g58"><path
             id="path60"
             style="fill:#7a7a7a;fill-opacity:1;fill-rule:nonzero;stroke:none"
             d="m 318.78,123.74748 0.0152,-2.99997 1,0.005 -0.0152,2.99997 z M 317.25003,120.3 h -3 v -1 h 3 z m -6,0 h -3 v -1 h 3 z m -6,0 h -3 v -1 h 3 z m -6,0 h -3 v -1 h 3 z m -6,0 h -0.75195 l 0.0125,-3.25187 1,0.004 -0.0106,2.74994 -0.5,-0.002 v -0.5 h 0.25003 v 1 z" /><path
             id="path62"
             style="fill:#7a7a7a;fill-opacity:1;fill-rule:nonzero;stroke:none"
             d="m 293.03,113.87 0.48999,1 -0.5,-0.25 -0.5,0.25 z" /><path
             id="path64"
             style="fill:none;stroke:#7a7a7a;stroke-width:1;stroke-linecap:butt;stroke-linejoin:miter;stroke-miterlimit:10;stroke-dasharray:none;stroke-opacity:1"
             d="m 293.03,113.87 0.48999,1 -0.5,-0.25 -0.5,0.25 z" /></g><g
           transform="scale(3.0059524)"
           id="g66"><text
             id="text70"
             style="font-variant:normal;font-weight:normal;font-size:8px;font-family:ArialMT;-inkscape-font-specification:ArialMT;writing-mode:lr-tb;fill:#000000;fill-opacity:1;fill-rule:nonzero;stroke:none"
             transform="translate(2,11)"><tspan
               id="tspan68"
               y="0"
               x="0 2.6640625 8 10.664062 12.742188 17.1875 22.964844 27.414062 29.636719 34.972656 39.421875 43.871094 48.320312 50.984375 55.433594 57.65625 62.105469 64.328125 68.777344 73.226562 75.003906 79.453125 81.230469 83.453125 88.789062 90.566406 95.015625 99.464844 101.24219 103.01953 107.46875 111.91797">(A) Two Seperate Luigi Pipelines</tspan></text>
<text
             id="text74"
             style="font-variant:normal;font-weight:normal;font-size:8px;font-family:ArialMT;-inkscape-font-specification:ArialMT;writing-mode:lr-tb;fill:#000000;fill-opacity:1;fill-rule:nonzero;stroke:none"
             transform="translate(191,11)"><tspan
               id="tspan72"
               y="0"
               x="0 2.6640625 8 10.664062 12.886719 18.664062 23.113281 28.449219 31.113281 35.5625 40.011719 41.789062 46.238281 48.015625 50.09375 54.09375 58.542969 65.207031 69.65625 71.433594 75.882812 78.105469">(B) CLS-Luigi Template</tspan></text>
<text
             id="text78"
             style="font-variant:normal;font-weight:normal;font-size:8px;font-family:ArialMT;-inkscape-font-specification:ArialMT;writing-mode:lr-tb;fill:#000000;fill-opacity:1;fill-rule:nonzero;stroke:none"
             transform="translate(2,85)"><tspan
               id="tspan76"
               y="0"
               x="0 2.6640625 8.4414062 11.105469 13.328125 19.105469 23.554688 28.890625 31.554688 36.003906 40.453125 42.230469 46.679688 48.457031 50.679688 56.457031 60.90625 65.355469 69.804688 74.253906 78.703125 83.152344 87.601562 91.601562 95.601562 97.824219 104.04688 106.71094 111.16016 115.60938">(C) CLS-Luigi Dependency Graph</tspan></text>
<text
             id="text82"
             style="font-variant:normal;font-weight:normal;font-size:7px;font-family:ArialMT;-inkscape-font-specification:ArialMT;writing-mode:lr-tb;fill:#000000;fill-opacity:1;fill-rule:nonzero;stroke:none"
             transform="translate(205,94)"><tspan
               id="tspan80"
               y="0"
               x="0 3.8930664 7.7861328 9.3413086 13.234375 14.789551 16.734375 18.679199 22.572266 26.072266 29.572266 31.130859">Luigi task A</tspan></text>
<text
             id="text86"
             style="font-variant:normal;font-weight:normal;font-size:7px;font-family:ArialMT;-inkscape-font-specification:ArialMT;writing-mode:lr-tb;fill:#000000;fill-opacity:1;fill-rule:nonzero;stroke:none"
             transform="translate(330,91)"><tspan
               id="tspan84"
               y="0"
               x="0 5.0551758 8.9482422 10.893066 14.786133 16.730957 18.675781 20.230957 24.124023 29.179199 31.124023 33.068848 35.399902 39.292969 45.124023 46.682617 50.965332 52.910156 54.85498 58.748047 60.692871">Data flow from A to B</tspan></text>
<text
             id="text90"
             style="font-variant:normal;font-weight:normal;font-size:7px;font-family:ArialMT;-inkscape-font-specification:ArialMT;writing-mode:lr-tb;fill:#000000;fill-opacity:1;fill-rule:nonzero;stroke:none"
             transform="translate(330,99)"><tspan
               id="tspan88"
               y="0"
               x="0 4.6689453 6.6137695 10.506836 14.399902 18.292969 22.186035 26.079102 29.972168 33.472168 35.416992 39.310059 43.203125 44.761719">B depends on A</tspan></text>
<text
             id="text94"
             style="font-variant:normal;font-weight:normal;font-size:7px;font-family:ArialMT;-inkscape-font-specification:ArialMT;writing-mode:lr-tb;fill:#000000;fill-opacity:1;fill-rule:nonzero;stroke:none"
             transform="translate(205,110)"><tspan
               id="tspan92"
               y="0"
               x="0 4.6689453 8.5620117 12.062012 14.006836 16.337891 20.230957 23.730957 25.675781 27.620605 31.120605 35.013672 40.844727 44.737793 48.630859 52.523926 56.416992 60.310059 62.254883 64.199707">Abstract component B</tspan></text>
<text
             id="text98"
             style="font-variant:normal;font-weight:normal;font-size:7px;font-family:ArialMT;-inkscape-font-specification:ArialMT;writing-mode:lr-tb;fill:#000000;fill-opacity:1;fill-rule:nonzero;stroke:none"
             transform="translate(205,126)"><tspan
               id="tspan96"
               y="0"
               x="0 5.0551758 8.9482422 12.841309 16.341309 18.672363 22.56543 26.458496 28.40332 32.296387 34.241211 37.741211 41.634277 47.465332 51.358398 55.251465 59.144531 63.037598 66.930664 68.875488 72.378906">Concreate component A</tspan></text>
<text
             id="text102"
             style="font-variant:normal;font-weight:normal;font-size:7px;font-family:ArialMT;-inkscape-font-specification:ArialMT;writing-mode:lr-tb;fill:#000000;fill-opacity:1;fill-rule:nonzero;stroke:none"
             transform="translate(332,125)"><tspan
               id="tspan100"
               y="0"
               x="0 4.2827148 6.2275391 9.7275391 13.620605 17.513672 21.013672 22.568848 26.461914 28.01709 29.572266 33.072266 36.965332 40.465332 42.410156">A specializes B</tspan></text>
</g><g
           transform="matrix(3.0059524,0,0,3.0059524,1.5029762,1.5029762)"
           id="g104"><path
             id="path106"
             style="fill:#666666;fill-opacity:1;fill-rule:nonzero;stroke:none"
             d="m 61.5,19 h 47 c 0.19891,0 0.39024,0.03806 0.57401,0.11418 0.18376,0.07612 0.34598,0.184505 0.48664,0.325159 0.14064,0.140649 0.24904,0.302862 0.32516,0.486633 0.0761,0.183771 0.11418,0.375113 0.11419,0.574028 v 7 c -1e-5,0.198912 -0.0381,0.390251 -0.1142,0.574022 -0.0761,0.18377 -0.18451,0.345982 -0.32515,0.486636 -0.14066,0.140651 -0.30287,0.249036 -0.48664,0.325157 C 108.89024,28.961935 108.69891,28.999998 108.5,29 h -47 c -0.198917,-2e-6 -0.390259,-0.03806 -0.574032,-0.114187 -0.183773,-0.07612 -0.345981,-0.184504 -0.486633,-0.325155 C 60.298679,28.420004 60.190292,28.257792 60.114174,28.074022 60.038052,27.890251 59.999996,27.698912 60,27.5 v -7 c -4e-6,-0.198915 0.03805,-0.390257 0.114174,-0.574028 0.07612,-0.183771 0.184505,-0.345984 0.325161,-0.486633 0.140652,-0.140654 0.30286,-0.249039 0.486633,-0.325159 C 61.109741,19.038059 61.301083,19 61.5,19 Z" /></g><g
           transform="scale(3.0059524)"
           id="g108"><text
             id="text112"
             style="font-variant:normal;font-weight:normal;font-size:7px;font-family:ArialMT;-inkscape-font-specification:ArialMT;writing-mode:lr-tb;fill:#ffffff;fill-opacity:1;fill-rule:nonzero;stroke:none"
             transform="translate(62.421875,26)"><tspan
               id="tspan110"
               y="0"
               x="0 5.0551758 8.9482422 12.841309 16.734375 20.234375 22.179199 26.848145 30.348145 34.241211 35.796387 37.351562 41.244629">RobustScaling</tspan></text>
</g><g
           transform="matrix(3.0059524,0,0,3.0059524,1.5029762,1.5029762)"
           id="g114"><path
             id="path116"
             style="fill:none;stroke:#000000;stroke-width:1;stroke-linecap:butt;stroke-linejoin:miter;stroke-miterlimit:10;stroke-dasharray:none;stroke-opacity:1"
             d="M 46,24 H 56.630001" /><path
             id="path118"
             style="fill:#000000;fill-opacity:1;fill-rule:nonzero;stroke:none"
             d="m 58.880001,24 -3,1.5 0.75,-1.5 -0.75,-1.5 z" /><path
             id="path120"
             style="fill:none;stroke:#000000;stroke-width:1;stroke-linecap:butt;stroke-linejoin:miter;stroke-miterlimit:10;stroke-dasharray:none;stroke-opacity:1"
             d="m 58.880001,24 -3,1.5 0.75,-1.5 -0.75,-1.5 z" /><path
             id="path122"
             style="fill:none;stroke:#000000;stroke-width:1;stroke-linecap:butt;stroke-linejoin:miter;stroke-miterlimit:10;stroke-dasharray:none;stroke-opacity:1"
             d="m 110,24 h 8.63" /><path
             id="path124"
             style="fill:#000000;fill-opacity:1;fill-rule:nonzero;stroke:none"
             d="m 120.88,24 -3,1.5 0.75,-1.5 -0.75,-1.5 z" /><path
             id="path126"
             style="fill:none;stroke:#000000;stroke-width:1;stroke-linecap:butt;stroke-linejoin:miter;stroke-miterlimit:10;stroke-dasharray:none;stroke-opacity:1"
             d="m 120.88,24 -3,1.5 0.75,-1.5 -0.75,-1.5 z" /><path
             id="path128"
             style="fill:#666666;fill-opacity:1;fill-rule:nonzero;stroke:none"
             d="m 15.5,30 h 29 c 0.19891,0 0.390247,0.03806 0.57402,0.114178 0.183773,0.07612 0.34599,0.184507 0.486641,0.325161 0.140652,0.140649 0.249035,0.302862 0.325157,0.486633 C 45.961937,31.109743 45.999996,31.301085 46,31.5 v 7 c -4e-6,0.19891 -0.03806,0.390251 -0.114182,0.57402 -0.07612,0.18377 -0.184505,0.345982 -0.325157,0.486638 -0.140651,0.140651 -0.302868,0.249034 -0.486641,0.325153 C 44.890247,39.961933 44.69891,39.999996 44.5,40 h -29 c -0.198914,-4e-6 -0.390256,-0.03807 -0.574027,-0.114189 C 14.742202,39.809692 14.57999,39.701309 14.439339,39.560658 14.298686,39.420002 14.190299,39.25779 14.114179,39.07402 14.038058,38.890251 13.999999,38.69891 14,38.5 v -7 c -10e-7,-0.198915 0.03806,-0.390257 0.114179,-0.574028 0.07612,-0.183771 0.184507,-0.345984 0.32516,-0.486633 0.140651,-0.140654 0.302863,-0.249041 0.486634,-0.325159 C 15.109744,30.038059 15.301086,30 15.5,30 Z" /></g><g
           transform="scale(3.0059524)"
           id="g130"><text
             id="text134"
             style="font-variant:normal;font-weight:normal;font-size:7px;font-family:ArialMT;-inkscape-font-specification:ArialMT;writing-mode:lr-tb;fill:#ffffff;fill-opacity:1;fill-rule:nonzero;stroke:none"
             transform="translate(17.546875,37)"><tspan
               id="tspan132"
               y="0"
               x="0 3.8930664 7.7861328 11.679199 15.572266 17.51709 19.848145 21.40332">LoadIris</tspan></text>
</g><g
           transform="matrix(3.0059524,0,0,3.0059524,1.5029762,1.5029762)"
           id="g136"><path
             id="path138"
             style="fill:#666666;fill-opacity:1;fill-rule:nonzero;stroke:none"
             d="m 61.5,30 h 47 c 0.19891,0 0.39024,0.03806 0.57401,0.114178 0.18376,0.07612 0.34598,0.184507 0.48664,0.325161 0.14064,0.140649 0.24904,0.302862 0.32516,0.486633 0.0761,0.183771 0.11418,0.375113 0.11419,0.574028 v 7 c -1e-5,0.19891 -0.0381,0.390251 -0.1142,0.57402 -0.0761,0.18377 -0.18451,0.345982 -0.32515,0.486638 -0.14066,0.140651 -0.30287,0.249034 -0.48664,0.325153 C 108.89024,39.961933 108.69891,39.999996 108.5,40 h -47 c -0.198917,-4e-6 -0.390259,-0.03807 -0.574032,-0.114189 -0.183773,-0.07612 -0.345981,-0.184502 -0.486633,-0.325153 C 60.298679,39.420002 60.190292,39.25779 60.114174,39.07402 60.038052,38.890251 59.999996,38.69891 60,38.5 v -7 c -4e-6,-0.198915 0.03805,-0.390257 0.114174,-0.574028 0.07612,-0.183771 0.184505,-0.345984 0.325161,-0.486633 0.140652,-0.140654 0.30286,-0.249041 0.486633,-0.325159 C 61.109741,30.038059 61.301083,30 61.5,30 Z" /></g><g
           transform="scale(3.0059524)"
           id="g140"><text
             id="text144"
             style="font-variant:normal;font-weight:normal;font-size:7px;font-family:ArialMT;-inkscape-font-specification:ArialMT;writing-mode:lr-tb;fill:#ffffff;fill-opacity:1;fill-rule:nonzero;stroke:none"
             transform="translate(62.421875,38)"><tspan
               id="tspan142"
               y="0"
               x="0 5.0551758 8.9482422 12.841309 16.734375 20.234375 22.179199 26.848145 30.348145 34.241211 35.796387 37.351562 41.244629">RobustScaling</tspan></text>
</g><g
           transform="matrix(3.0059524,0,0,3.0059524,1.5029762,1.5029762)"
           id="g146"><path
             id="path148"
             style="fill:none;stroke:#000000;stroke-width:1;stroke-linecap:butt;stroke-linejoin:miter;stroke-miterlimit:10;stroke-dasharray:none;stroke-opacity:1"
             d="M 46,35 H 56.630001" /><path
             id="path150"
             style="fill:#000000;fill-opacity:1;fill-rule:nonzero;stroke:none"
             d="m 58.880001,35 -3,1.5 0.75,-1.5 -0.75,-1.5 z" /><path
             id="path152"
             style="fill:none;stroke:#000000;stroke-width:1;stroke-linecap:butt;stroke-linejoin:miter;stroke-miterlimit:10;stroke-dasharray:none;stroke-opacity:1"
             d="m 58.880001,35 -3,1.5 0.75,-1.5 -0.75,-1.5 z" /><path
             id="path154"
             style="fill:none;stroke:#000000;stroke-width:1;stroke-linecap:butt;stroke-linejoin:miter;stroke-miterlimit:10;stroke-dasharray:none;stroke-opacity:1"
             d="m 110,35 h 8.63" /><path
             id="path156"
             style="fill:#000000;fill-opacity:1;fill-rule:nonzero;stroke:none"
             d="m 120.88,35 -3,1.5 0.75,-1.5 -0.75,-1.5 z" /><path
             id="path158"
             style="fill:none;stroke:#000000;stroke-width:1;stroke-linecap:butt;stroke-linejoin:miter;stroke-miterlimit:10;stroke-dasharray:none;stroke-opacity:1"
             d="m 120.88,35 -3,1.5 0.75,-1.5 -0.75,-1.5 z" /><path
             id="path160"
             style="fill:#666666;fill-opacity:1;fill-rule:nonzero;stroke:none"
             d="m 15.5,41 h 29 c 0.19891,0 0.390247,0.03806 0.57402,0.114178 0.183773,0.07612 0.34599,0.184509 0.486641,0.325161 0.140652,0.140648 0.249035,0.302856 0.325157,0.486629 C 45.961937,42.109741 45.999996,42.301086 46,42.5 v 7 c -4e-6,0.19891 -0.03806,0.390247 -0.114182,0.57402 -0.07612,0.18377 -0.184505,0.345982 -0.325157,0.486638 -0.140651,0.140651 -0.302868,0.249034 -0.486641,0.325157 C 44.890247,50.961937 44.69891,50.999996 44.5,51 h -29 c -0.198914,-4e-6 -0.390256,-0.03806 -0.574027,-0.114185 C 14.742202,50.809692 14.57999,50.701309 14.439339,50.560658 14.298686,50.420002 14.190299,50.25779 14.114179,50.07402 14.038058,49.890247 13.999999,49.69891 14,49.5 v -7 c -10e-7,-0.198914 0.03806,-0.390259 0.114179,-0.574032 0.07612,-0.183773 0.184507,-0.345981 0.32516,-0.486629 C 14.57999,41.298687 14.742202,41.1903 14.925973,41.114178 15.109744,41.038059 15.301086,41 15.5,41 Z" /></g><g
           transform="scale(3.0059524)"
           id="g162"><text
             id="text166"
             style="font-variant:normal;font-weight:normal;font-size:7px;font-family:ArialMT;-inkscape-font-specification:ArialMT;writing-mode:lr-tb;fill:#ffffff;fill-opacity:1;fill-rule:nonzero;stroke:none"
             transform="translate(17.546875,49)"><tspan
               id="tspan164"
               y="0"
               x="0 3.8930664 7.7861328 11.679199 15.572266 17.51709 19.848145 21.40332">LoadIris</tspan></text>
</g><g
           transform="matrix(3.0059524,0,0,3.0059524,1.5029762,1.5029762)"
           id="g168"><path
             id="path170"
             style="fill:#666666;fill-opacity:1;fill-rule:nonzero;stroke:none"
             d="m 61.5,41 h 47 c 0.19891,0 0.39024,0.03806 0.57401,0.114178 0.18376,0.07612 0.34598,0.184509 0.48664,0.325161 0.14064,0.140648 0.24904,0.302856 0.32516,0.486629 0.0761,0.183773 0.11418,0.375118 0.11419,0.574032 v 7 c -1e-5,0.19891 -0.0381,0.390247 -0.1142,0.57402 -0.0761,0.18377 -0.18451,0.345982 -0.32515,0.486638 -0.14066,0.140651 -0.30287,0.249034 -0.48664,0.325157 C 108.89024,50.961937 108.69891,50.999996 108.5,51 h -47 c -0.198917,-4e-6 -0.390259,-0.03806 -0.574032,-0.114185 -0.183773,-0.07612 -0.345981,-0.184506 -0.486633,-0.325157 C 60.298679,50.420002 60.190292,50.25779 60.114174,50.07402 60.038052,49.890247 59.999996,49.69891 60,49.5 v -7 c -4e-6,-0.198914 0.03805,-0.390259 0.114174,-0.574032 0.07612,-0.183773 0.184505,-0.345981 0.325161,-0.486629 0.140652,-0.140652 0.30286,-0.249039 0.486633,-0.325161 C 61.109741,41.038059 61.301083,41 61.5,41 Z" /></g><g
           transform="scale(3.0059524)"
           id="g172"><text
             id="text176"
             style="font-variant:normal;font-weight:normal;font-size:7px;font-family:ArialMT;-inkscape-font-specification:ArialMT;writing-mode:lr-tb;fill:#ffffff;fill-opacity:1;fill-rule:nonzero;stroke:none"
             transform="translate(61.265625,48)"><tspan
               id="tspan174"
               y="0"
               x="0 5.8310547 7.3862305 11.279297 17.110352 21.003418 24.503418 29.172363 32.672363 36.56543 38.120605 39.675781 43.568848">MinMaxScaling</tspan></text>
</g><g
           transform="matrix(3.0059524,0,0,3.0059524,1.5029762,1.5029762)"
           id="g178"><path
             id="path180"
             style="fill:none;stroke:#000000;stroke-width:1;stroke-linecap:butt;stroke-linejoin:miter;stroke-miterlimit:10;stroke-dasharray:none;stroke-opacity:1"
             d="M 46,46 H 56.630001" /><path
             id="path182"
             style="fill:#000000;fill-opacity:1;fill-rule:nonzero;stroke:none"
             d="m 58.880001,46 -3,1.5 0.75,-1.5 -0.75,-1.5 z" /><path
             id="path184"
             style="fill:none;stroke:#000000;stroke-width:1;stroke-linecap:butt;stroke-linejoin:miter;stroke-miterlimit:10;stroke-dasharray:none;stroke-opacity:1"
             d="m 58.880001,46 -3,1.5 0.75,-1.5 -0.75,-1.5 z" /><path
             id="path186"
             style="fill:none;stroke:#000000;stroke-width:1;stroke-linecap:butt;stroke-linejoin:miter;stroke-miterlimit:10;stroke-dasharray:none;stroke-opacity:1"
             d="m 110,46 h 8.63" /><path
             id="path188"
             style="fill:#000000;fill-opacity:1;fill-rule:nonzero;stroke:none"
             d="m 120.88,46 -3,1.5 0.75,-1.5 -0.75,-1.5 z" /><path
             id="path190"
             style="fill:none;stroke:#000000;stroke-width:1;stroke-linecap:butt;stroke-linejoin:miter;stroke-miterlimit:10;stroke-dasharray:none;stroke-opacity:1"
             d="m 120.88,46 -3,1.5 0.75,-1.5 -0.75,-1.5 z" /><path
             id="path192"
             style="fill:#666666;fill-opacity:1;fill-rule:nonzero;stroke:none"
             d="m 15.5,52 h 29 c 0.19891,0 0.390247,0.03806 0.57402,0.114174 0.183773,0.07612 0.34599,0.184509 0.486641,0.325161 0.140652,0.140652 0.249035,0.30286 0.325157,0.486633 C 45.961937,53.109741 45.999996,53.301083 46,53.5 v 7 c -4e-6,0.19891 -0.03806,0.390247 -0.114182,0.574017 -0.07612,0.183773 -0.184505,0.345985 -0.325157,0.486641 -0.140651,0.140647 -0.302868,0.249034 -0.486641,0.325157 C 44.890247,61.961937 44.69891,61.999996 44.5,62 h -29 c -0.198914,-4e-6 -0.390256,-0.03806 -0.574027,-0.114185 -0.183771,-0.07612 -0.345983,-0.18451 -0.486634,-0.325157 C 14.298686,61.420002 14.190299,61.25779 14.114179,61.07402 14.038058,60.890247 13.999999,60.69891 14,60.5 v -7 c -10e-7,-0.198917 0.03806,-0.390259 0.114179,-0.574032 0.07612,-0.183773 0.184507,-0.345981 0.32516,-0.486633 0.140651,-0.140652 0.302863,-0.249039 0.486634,-0.325157 C 15.109744,52.038059 15.301086,52 15.5,52 Z" /></g><g
           transform="scale(3.0059524)"
           id="g194"><text
             id="text198"
             style="font-variant:normal;font-weight:normal;font-size:7px;font-family:ArialMT;-inkscape-font-specification:ArialMT;writing-mode:lr-tb;fill:#ffffff;fill-opacity:1;fill-rule:nonzero;stroke:none"
             transform="translate(17.546875,59)"><tspan
               id="tspan196"
               y="0"
               x="0 3.8930664 7.7861328 11.679199 15.572266 17.51709 19.848145 21.40332">LoadIris</tspan></text>
</g><g
           transform="matrix(3.0059524,0,0,3.0059524,1.5029762,1.5029762)"
           id="g200"><path
             id="path202"
             style="fill:#666666;fill-opacity:1;fill-rule:nonzero;stroke:none"
             d="m 61.5,52 h 47 c 0.19891,0 0.39024,0.03806 0.57401,0.114174 0.18376,0.07612 0.34598,0.184509 0.48664,0.325161 0.14064,0.140652 0.24904,0.30286 0.32516,0.486633 0.0761,0.183773 0.11418,0.375115 0.11419,0.574032 v 7 c -1e-5,0.19891 -0.0381,0.390247 -0.1142,0.574017 -0.0761,0.183773 -0.18451,0.345985 -0.32515,0.486641 -0.14066,0.140647 -0.30287,0.249034 -0.48664,0.325157 C 108.89024,61.961937 108.69891,61.999996 108.5,62 h -47 c -0.198917,-4e-6 -0.390259,-0.03806 -0.574032,-0.114185 -0.183773,-0.07612 -0.345981,-0.18451 -0.486633,-0.325157 C 60.298679,61.420002 60.190292,61.25779 60.114174,61.07402 60.038052,60.890247 59.999996,60.69891 60,60.5 v -7 c -4e-6,-0.198917 0.03805,-0.390259 0.114174,-0.574032 0.07612,-0.183773 0.184505,-0.345981 0.325161,-0.486633 0.140652,-0.140652 0.30286,-0.249039 0.486633,-0.325157 C 61.109741,52.038059 61.301083,52 61.5,52 Z" /></g><g
           transform="scale(3.0059524)"
           id="g204"><text
             id="text208"
             style="font-variant:normal;font-weight:normal;font-size:7px;font-family:ArialMT;-inkscape-font-specification:ArialMT;writing-mode:lr-tb;fill:#ffffff;fill-opacity:1;fill-rule:nonzero;stroke:none"
             transform="translate(61.265625,59)"><tspan
               id="tspan206"
               y="0"
               x="0 5.8310547 7.3862305 11.279297 17.110352 21.003418 24.503418 29.172363 32.672363 36.56543 38.120605 39.675781 43.568848">MinMaxScaling</tspan></text>
</g><g
           transform="matrix(3.0059524,0,0,3.0059524,1.5029762,1.5029762)"
           id="g210"><path
             id="path212"
             style="fill:none;stroke:#000000;stroke-width:1;stroke-linecap:butt;stroke-linejoin:miter;stroke-miterlimit:10;stroke-dasharray:none;stroke-opacity:1"
             d="M 46,57 H 56.630001" /><path
             id="path214"
             style="fill:#000000;fill-opacity:1;fill-rule:nonzero;stroke:none"
             d="m 58.880001,57 -3,1.5 0.75,-1.5 -0.75,-1.5 z" /><path
             id="path216"
             style="fill:none;stroke:#000000;stroke-width:1;stroke-linecap:butt;stroke-linejoin:miter;stroke-miterlimit:10;stroke-dasharray:none;stroke-opacity:1"
             d="m 58.880001,57 -3,1.5 0.75,-1.5 -0.75,-1.5 z" /><path
             id="path218"
             style="fill:none;stroke:#000000;stroke-width:1;stroke-linecap:butt;stroke-linejoin:miter;stroke-miterlimit:10;stroke-dasharray:none;stroke-opacity:1"
             d="m 110,57 h 8.63" /><path
             id="path220"
             style="fill:#000000;fill-opacity:1;fill-rule:nonzero;stroke:none"
             d="m 120.88,57 -3,1.5 0.75,-1.5 -0.75,-1.5 z" /><path
             id="path222"
             style="fill:none;stroke:#000000;stroke-width:1;stroke-linecap:butt;stroke-linejoin:miter;stroke-miterlimit:10;stroke-dasharray:none;stroke-opacity:1"
             d="m 120.88,57 -3,1.5 0.75,-1.5 -0.75,-1.5 z" /><path
             id="path224"
             style="fill:#7aa860;fill-opacity:1;fill-rule:nonzero;stroke:none"
             d="m 207.12,20 h 29 c 0.19889,0 0.39024,0.03806 0.574,0.114178 0.18376,0.07612 0.34596,0.184507 0.48663,0.325161 0.14064,0.140649 0.24903,0.302862 0.32515,0.486635 0.0761,0.183769 0.1142,0.375111 0.11422,0.574026 v 7 c -2e-5,0.19891 -0.0381,0.390251 -0.11422,0.574022 -0.0761,0.183771 -0.18451,0.345982 -0.32515,0.486636 -0.14067,0.140649 -0.30288,0.249036 -0.48665,0.325157 C 236.51022,29.961935 236.31889,29.999998 236.12,30 h -29 c -0.19893,-2e-6 -0.39028,-0.03806 -0.57404,-0.114185 -0.18378,-0.07612 -0.34599,-0.184508 -0.48663,-0.325157 -0.14067,-0.140654 -0.24906,-0.302865 -0.32518,-0.486636 C 205.65802,28.890251 205.61998,28.69891 205.62,28.5 v -7 c -2e-5,-0.198915 0.038,-0.390257 0.11415,-0.574026 0.0761,-0.183773 0.18451,-0.345986 0.32518,-0.486635 0.14064,-0.140654 0.30285,-0.249041 0.48663,-0.325161 C 206.72972,20.038059 206.92107,20 207.12,20 Z" /></g><g
           transform="scale(3.0059524)"
           id="g226"><text
             id="text230"
             style="font-variant:normal;font-weight:normal;font-size:7px;font-family:ArialMT;-inkscape-font-specification:ArialMT;writing-mode:lr-tb;fill:#ffffff;fill-opacity:1;fill-rule:nonzero;stroke:none"
             transform="translate(209.54688,27)"><tspan
               id="tspan228"
               y="0"
               x="0 3.8930664 7.7861328 11.679199 15.572266 17.51709 19.848145 21.40332">LoadIris</tspan></text>
</g><g
           transform="matrix(3.0059524,0,0,3.0059524,1.5029762,1.5029762)"
           id="g232"><path
             id="path234"
             style="fill:#636eff;fill-opacity:1;fill-rule:nonzero;stroke:none"
             d="m 265.12,20 h 26 c 0.19888,0 0.39022,0.03806 0.574,0.114178 0.18375,0.07612 0.34598,0.184507 0.48663,0.325161 0.14066,0.140649 0.24903,0.302862 0.32514,0.486635 0.0761,0.183769 0.11419,0.375111 0.11423,0.574026 v 7 c -4e-5,0.19891 -0.0381,0.390251 -0.11423,0.574022 -0.0761,0.183771 -0.18448,0.345982 -0.32514,0.486636 -0.14065,0.140649 -0.30288,0.249036 -0.48663,0.325157 -0.18378,0.07612 -0.37512,0.114183 -0.574,0.114185 h -26 c -0.19895,-2e-6 -0.39029,-0.03806 -0.57407,-0.114185 -0.18378,-0.07612 -0.34598,-0.184508 -0.48663,-0.325157 -0.14066,-0.140654 -0.24906,-0.302865 -0.32517,-0.486636 C 263.65802,28.890251 263.61996,28.69891 263.62,28.5 v -7 c -4e-5,-0.198915 0.038,-0.390257 0.11413,-0.574026 0.0761,-0.183773 0.18451,-0.345986 0.32517,-0.486635 0.14065,-0.140654 0.30285,-0.249041 0.48663,-0.325161 C 264.72971,20.038059 264.92105,20 265.12,20 Z" /></g><g
           transform="scale(3.0059524)"
           id="g236"><text
             id="text240"
             style="font-variant:normal;font-weight:normal;font-size:7px;font-family:ArialMT;-inkscape-font-specification:ArialMT;writing-mode:lr-tb;fill:#ffffff;fill-opacity:1;fill-rule:nonzero;stroke:none"
             transform="translate(268.57813,27)"><tspan
               id="tspan238"
               y="0"
               x="0 4.6689453 8.1689453 12.062012 13.617188 17.510254">Scaler</tspan></text>
</g><g
           transform="matrix(3.0059524,0,0,3.0059524,1.5029762,1.5029762)"
           id="g242"><path
             id="path244"
             style="fill:none;stroke:#000000;stroke-width:1;stroke-linecap:butt;stroke-linejoin:miter;stroke-miterlimit:10;stroke-dasharray:none;stroke-opacity:1"
             d="m 237.62,25 h 22.63" /><path
             id="path246"
             style="fill:#000000;fill-opacity:1;fill-rule:nonzero;stroke:none"
             d="m 262.5,25 -3,1.5 0.75,-1.5 -0.75,-1.5 z" /><path
             id="path248"
             style="fill:none;stroke:#000000;stroke-width:1;stroke-linecap:butt;stroke-linejoin:miter;stroke-miterlimit:10;stroke-dasharray:none;stroke-opacity:1"
             d="m 262.5,25 -3,1.5 0.75,-1.5 -0.75,-1.5 z" /><path
             id="path250"
             style="fill:#636eff;fill-opacity:1;fill-rule:nonzero;stroke:none"
             d="m 317.12,20 h 32 c 0.19888,0 0.39022,0.03806 0.574,0.114178 0.18375,0.07612 0.34595,0.184507 0.48663,0.325161 0.14066,0.140649 0.24903,0.302862 0.32514,0.486635 0.0761,0.183769 0.11419,0.375111 0.11423,0.574026 v 7 c -4e-5,0.19891 -0.0381,0.390251 -0.11423,0.574022 -0.0761,0.183771 -0.18448,0.345982 -0.32514,0.486636 -0.14068,0.140649 -0.30288,0.249036 -0.48663,0.325157 -0.18378,0.07612 -0.37512,0.114183 -0.574,0.114185 h -32 c -0.19895,-2e-6 -0.39029,-0.03806 -0.57407,-0.114185 -0.18378,-0.07612 -0.34598,-0.184508 -0.48663,-0.325157 -0.14066,-0.140654 -0.24903,-0.302865 -0.32517,-0.486636 C 315.65802,28.890251 315.61996,28.69891 315.62,28.5 v -7 c -4e-5,-0.198915 0.038,-0.390257 0.11413,-0.574026 0.0761,-0.183773 0.18451,-0.345986 0.32517,-0.486635 0.14065,-0.140654 0.30285,-0.249041 0.48663,-0.325161 C 316.72971,20.038059 316.92105,20 317.12,20 Z" /></g><g
           transform="scale(3.0059524)"
           id="g252"><text
             id="text256"
             style="font-variant:normal;font-weight:normal;font-size:7px;font-family:ArialMT;-inkscape-font-specification:ArialMT;writing-mode:lr-tb;fill:#ffffff;fill-opacity:1;fill-rule:nonzero;stroke:none"
             transform="translate(319.09375,27)"><tspan
               id="tspan254"
               y="0"
               x="0 5.0551758 6.6103516 10.503418 14.003418 17.503418 19.058594 21.003418 22.558594 26.45166">Classifier</tspan></text>
</g><g
           transform="matrix(3.0059524,0,0,3.0059524,1.5029762,1.5029762)"
           id="g258"><path
             id="path260"
             style="fill:none;stroke:#000000;stroke-width:1;stroke-linecap:butt;stroke-linejoin:miter;stroke-miterlimit:10;stroke-dasharray:none;stroke-opacity:1"
             d="m 292.62,25 h 19.63" /><path
             id="path262"
             style="fill:#000000;fill-opacity:1;fill-rule:nonzero;stroke:none"
             d="m 314.5,25 -3,1.5 0.75,-1.5 -0.75,-1.5 z" /><path
             id="path264"
             style="fill:none;stroke:#000000;stroke-width:1;stroke-linecap:butt;stroke-linejoin:miter;stroke-miterlimit:10;stroke-dasharray:none;stroke-opacity:1"
             d="m 314.5,25 -3,1.5 0.75,-1.5 -0.75,-1.5 z" /><path
             id="path266"
             style="fill:#7aa860;fill-opacity:1;fill-rule:nonzero;stroke:none"
             d="m 269.12,47 h 47 c 0.19891,0 0.39022,0.03806 0.57397,0.114174 0.18378,0.07612 0.34601,0.184509 0.48666,0.325161 0.14066,0.140652 0.24903,0.30286 0.32514,0.486633 0.0761,0.183773 0.11419,0.375115 0.11423,0.574032 v 7 c -4e-5,0.19891 -0.0381,0.390247 -0.11423,0.574017 -0.0761,0.183769 -0.18448,0.345981 -0.32514,0.486637 -0.14065,0.140651 -0.30288,0.249035 -0.48666,0.325157 C 316.51022,56.961933 316.31891,56.999996 316.12,57 h -47 c -0.19895,-4e-6 -0.39029,-0.03807 -0.57407,-0.114189 -0.18375,-0.07612 -0.34595,-0.184506 -0.4866,-0.325157 -0.14069,-0.140656 -0.24909,-0.302868 -0.3252,-0.486637 C 267.65802,55.890247 267.61996,55.69891 267.62,55.5 v -7 c -4e-5,-0.198917 0.038,-0.390259 0.11413,-0.574032 0.0761,-0.183773 0.18451,-0.345981 0.3252,-0.486633 0.14065,-0.140652 0.30285,-0.249039 0.4866,-0.325161 C 268.72971,47.038059 268.92105,47 269.12,47 Z" /></g><g
           transform="scale(3.0059524)"
           id="g268"><text
             id="text272"
             style="font-variant:normal;font-weight:normal;font-size:7px;font-family:ArialMT;-inkscape-font-specification:ArialMT;writing-mode:lr-tb;fill:#ffffff;fill-opacity:1;fill-rule:nonzero;stroke:none"
             transform="translate(270.42188,54)"><tspan
               id="tspan270"
               y="0"
               x="0 5.0551758 8.9482422 12.841309 16.734375 20.234375 22.179199 26.848145 30.348145 34.241211 35.796387 37.351562 41.244629">RobustScaling</tspan></text>
</g><g
           transform="matrix(3.0059524,0,0,3.0059524,1.5029762,1.5029762)"
           id="g274"><path
             id="path276"
             style="fill:#7aa860;fill-opacity:1;fill-rule:nonzero;stroke:none"
             d="m 248.28,63.5 h 47 c 0.19888,0 0.39023,0.03806 0.574,0.114174 0.18375,0.07612 0.34598,0.184505 0.48664,0.325161 0.14062,0.140652 0.24899,0.30286 0.32513,0.486629 0.0761,0.18377 0.1142,0.375115 0.11423,0.574036 v 7 c -3e-5,0.198906 -0.0381,0.390244 -0.11423,0.574013 -0.0761,0.183769 -0.18451,0.345978 -0.32513,0.486641 -0.14066,0.140648 -0.30289,0.249038 -0.48664,0.325164 C 295.67023,73.461937 295.47888,73.5 295.28,73.5 h -47 c -0.19893,0 -0.39029,-0.03806 -0.57407,-0.114182 -0.18377,-0.07613 -0.34598,-0.184516 -0.48662,-0.325164 -0.14067,-0.140663 -0.24905,-0.302872 -0.32516,-0.486641 C 246.81802,72.390244 246.77998,72.198906 246.78,72 v -7 c -2e-5,-0.198921 0.038,-0.390266 0.11412,-0.574036 0.0761,-0.183769 0.18452,-0.345977 0.32519,-0.486629 0.14064,-0.140656 0.30285,-0.249043 0.48661,-0.325161 C 247.88971,63.538059 248.08107,63.5 248.28,63.5 Z" /></g><g
           transform="scale(3.0059524)"
           id="g278"><text
             id="text282"
             style="font-variant:normal;font-weight:normal;font-size:7px;font-family:ArialMT;-inkscape-font-specification:ArialMT;writing-mode:lr-tb;fill:#ffffff;fill-opacity:1;fill-rule:nonzero;stroke:none"
             transform="translate(248.26563,71)"><tspan
               id="tspan280"
               y="0"
               x="0 5.8310547 7.3862305 11.279297 17.110352 21.003418 24.503418 29.172363 32.672363 36.56543 38.120605 39.675781 43.568848">MinMaxScaling</tspan></text>
</g><g
           transform="matrix(3.0059524,0,0,3.0059524,1.5029762,1.5029762)"
           id="g284"><path
             id="path286"
             style="fill:#7a7a7a;fill-opacity:1;fill-rule:nonzero;stroke:none"
             d="m 292.12,47.001999 -0.012,-2.999977 1,-0.004 0.012,2.999977 z M 291.60004,42.5 h -3 v -1 h 3 z m -6,0 h -0.69898 l -0.007,-3.298874 1,-0.0021 0.006,2.799942 -0.5,0.0011 v -0.5 h 0.20005 v 1 z m -0.71241,-6.29887 -0.006,-2.999992 1,-0.0021 0.006,2.999992 z" /><path
             id="path288"
             style="fill:#7a7a7a;fill-opacity:1;fill-rule:nonzero;stroke:none"
             d="m 285.37,31.120001 1.01,1.999998 -1,-0.5 -1,0.5 z" /><path
             id="path290"
             style="fill:none;stroke:#7a7a7a;stroke-width:1;stroke-linecap:butt;stroke-linejoin:miter;stroke-miterlimit:10;stroke-dasharray:none;stroke-opacity:1"
             d="m 285.37,31.120001 1.01,1.999998 -1,-0.5 -1,0.5 z" /><path
             id="path292"
             style="fill:#7a7a7a;fill-opacity:1;fill-rule:nonzero;stroke:none"
             d="m 258.78,63.499538 0.003,-3 1,9.24e-4 -0.003,3 z m 0.006,-5.999996 0.003,-3 1,9.23e-4 -0.003,3 z m 0.006,-5.999996 0.003,-3 1,9.23e-4 -0.003,3 z m 0.006,-6.000008 0.003,-3 1,9.39e-4 -0.003,3 z M 261.79999,41.5 h 3 v 1 h -3 z m 6,0 h 3 v 1 h -3 z m 2.59381,-2.398914 -0.006,-2.999997 1,-0.0021 0.006,2.999996 z m -0.0128,-5.999974 -10e-4,-0.480034 1,-0.0022 10e-4,0.480034 z" /><path
             id="path294"
             style="fill:#7a7a7a;fill-opacity:1;fill-rule:nonzero;stroke:none"
             d="m 270.87,31.120001 1.01,1.999998 -1,-0.5 -1,0.5 z" /><path
             id="path296"
             style="fill:none;stroke:#7a7a7a;stroke-width:1;stroke-linecap:butt;stroke-linejoin:miter;stroke-miterlimit:10;stroke-dasharray:none;stroke-opacity:1"
             d="m 270.87,31.120001 1.01,1.999998 -1,-0.5 -1,0.5 z" /><path
             id="path298"
             style="fill:#7aa860;fill-opacity:1;fill-rule:nonzero;stroke:none"
             d="m 313.62,63.5 h 52 c 0.19888,0 0.39019,0.03806 0.574,0.114174 0.18375,0.07612 0.34595,0.184505 0.48663,0.325161 0.14063,0.140652 0.249,0.30286 0.32514,0.486629 0.0761,0.18377 0.11419,0.375115 0.11423,0.574036 v 7 c -4e-5,0.198906 -0.0381,0.390244 -0.11423,0.574013 -0.0761,0.183769 -0.18451,0.345978 -0.32514,0.486641 -0.14068,0.140648 -0.30291,0.249038 -0.48666,0.325164 C 366.01019,73.461937 365.81888,73.5 365.62,73.5 h -52 c -0.19892,0 -0.39026,-0.03806 -0.57407,-0.114182 -0.18378,-0.07613 -0.34598,-0.184516 -0.48663,-0.325164 -0.14066,-0.140663 -0.24906,-0.302872 -0.32517,-0.486641 C 312.15802,72.390244 312.11996,72.198906 312.12,72 v -7 c -4e-5,-0.198921 0.038,-0.390266 0.11413,-0.574036 0.0761,-0.183769 0.18451,-0.345977 0.32517,-0.486629 0.14065,-0.140656 0.30285,-0.249043 0.48663,-0.325161 C 313.22974,63.538059 313.42108,63.5 313.62,63.5 Z" /></g><g
           transform="scale(3.0059524)"
           id="g300"><text
             id="text304"
             style="font-variant:normal;font-weight:normal;font-size:7px;font-family:ArialMT;-inkscape-font-specification:ArialMT;writing-mode:lr-tb;fill:#ffffff;fill-opacity:1;fill-rule:nonzero;stroke:none"
             transform="translate(316.34375,71)"><tspan
               id="tspan302"
               y="0"
               x="0 5.0551758 8.9482422 12.841309 16.734375 20.627441 26.458496 30.734375 34.627441 36.958496 40.851562 44.351562">RandomForest</tspan></text>
</g><g
           transform="matrix(3.0059524,0,0,3.0059524,1.5029762,1.5029762)"
           id="g306"><path
             id="path308"
             style="fill:#7aa860;fill-opacity:1;fill-rule:nonzero;stroke:none"
             d="m 330.37,47 h 52 c 0.19888,0 0.39022,0.03806 0.574,0.114174 0.18375,0.07612 0.34595,0.184509 0.48663,0.325161 0.14066,0.140652 0.24903,0.30286 0.32514,0.486633 0.0761,0.183773 0.11419,0.375115 0.11423,0.574032 v 7 c -4e-5,0.19891 -0.0381,0.390247 -0.11423,0.574017 -0.0761,0.183769 -0.18448,0.345981 -0.32514,0.486637 -0.14068,0.140651 -0.30288,0.249035 -0.48663,0.325157 -0.18378,0.07612 -0.37512,0.114185 -0.574,0.114189 h -52 c -0.19895,-4e-6 -0.39029,-0.03807 -0.57407,-0.114189 -0.18375,-0.07612 -0.34595,-0.184506 -0.4866,-0.325157 -0.14066,-0.140656 -0.24906,-0.302868 -0.3252,-0.486637 C 328.90802,55.890247 328.86996,55.69891 328.87,55.5 v -7 c -4e-5,-0.198917 0.038,-0.390259 0.11413,-0.574032 0.0761,-0.183773 0.18454,-0.345981 0.3252,-0.486633 0.14065,-0.140652 0.30285,-0.249039 0.4866,-0.325161 C 329.97971,47.038059 330.17105,47 330.37,47 Z" /></g><g
           transform="scale(3.0059524)"
           id="g310"><text
             id="text314"
             style="font-variant:normal;font-weight:normal;font-size:7px;font-family:ArialMT;-inkscape-font-specification:ArialMT;writing-mode:lr-tb;fill:#ffffff;fill-opacity:1;fill-rule:nonzero;stroke:none"
             transform="translate(336,54)"><tspan
               id="tspan312"
               y="0"
               x="0 5.0551758 8.9482422 12.448242 14.003418 17.503418 19.058594 22.95166 26.844727 30.86084 33.191895 37.084961">DecisionTree</tspan></text>
</g><g
           transform="matrix(3.0059524,0,0,3.0059524,1.5029762,1.5029762)"
           id="g316"><path
             id="path318"
             style="fill:#7a7a7a;fill-opacity:1;fill-rule:nonzero;stroke:none"
             d="m 355.87,46.996998 0.018,-2.999947 1,0.006 -0.018,2.999946 z M 355.40009,42.5 h -3 v -1 h 3 z m -6,0 h -3 v -1 h 3 z m -6,0 h -1.99903 l -0.004,-1.99884 1,-0.0021 0.003,1.499909 -0.5,0.0011 v -0.5 h 1.5001 v 1 z m -2.00968,-4.998833 -0.006,-2.999992 1,-0.0021 0.006,2.999992 z" /><path
             id="path320"
             style="fill:#7a7a7a;fill-opacity:1;fill-rule:nonzero;stroke:none"
             d="m 341.87,31.120001 1.01,1.999998 -1,-0.5 -1,0.5 z" /><path
             id="path322"
             style="fill:none;stroke:#7a7a7a;stroke-width:1;stroke-linecap:butt;stroke-linejoin:miter;stroke-miterlimit:10;stroke-dasharray:none;stroke-opacity:1"
             d="m 341.87,31.120001 1.01,1.999998 -1,-0.5 -1,0.5 z" /><path
             id="path324"
             style="fill:#7a7a7a;fill-opacity:1;fill-rule:nonzero;stroke:none"
             d="m 319.54001,63.670918 -0.006,-2.999997 1,-0.0018 0.006,2.999996 z m -0.0111,-5.999989 -0.006,-2.999996 1,-0.0018 0.006,2.999996 z m -0.0111,-5.999989 -0.006,-3 1,-0.0018 0.006,3 z m -0.0111,-5.999992 -0.006,-2.999996 1,-0.0018 0.006,2.999996 z M 322.32996,41.5 h 2.07003 V 42 l -0.5,0.0011 -0.002,-0.92997 1,-0.0021 0.003,1.431038 h -2.5711 v -1 z m 1.56167,-3.428894 -0.006,-2.999992 1,-0.0021 0.006,2.999993 z" /><path
             id="path326"
             style="fill:#7a7a7a;fill-opacity:1;fill-rule:nonzero;stroke:none"
             d="m 324.37,31.120001 1.01,1.999998 -1,-0.5 -1,0.5 z" /><path
             id="path328"
             style="fill:none;stroke:#7a7a7a;stroke-width:1;stroke-linecap:butt;stroke-linejoin:miter;stroke-miterlimit:10;stroke-dasharray:none;stroke-opacity:1"
             d="m 324.37,31.120001 1.01,1.999998 -1,-0.5 -1,0.5 z" /><path
             id="path330"
             style="fill:#666666;fill-opacity:1;fill-rule:nonzero;stroke:none"
             d="m 62.57,104.5 h 47 c 0.19891,0 0.39024,0.0381 0.57401,0.11417 0.18377,0.0761 0.34598,0.18451 0.48664,0.32516 0.14065,0.14065 0.24903,0.30287 0.32515,0.48663 0.0761,0.18377 0.11419,0.37512 0.1142,0.57404 v 7 c -10e-6,0.19891 -0.0381,0.39024 -0.11421,0.57401 -0.0761,0.18377 -0.18449,0.34598 -0.32514,0.48664 -0.14066,0.14064 -0.30287,0.24903 -0.48664,0.32515 -0.18377,0.0761 -0.3751,0.11419 -0.57401,0.1142 h -47 c -0.198918,-1e-5 -0.390259,-0.0381 -0.574032,-0.1142 -0.183773,-0.0761 -0.345986,-0.18451 -0.486633,-0.32515 -0.14066,-0.14066 -0.249047,-0.30287 -0.325165,-0.48664 C 61.108051,113.39024 61.069996,113.19891 61.07,113 v -7 c -4e-6,-0.19892 0.03805,-0.39027 0.11417,-0.57404 0.07612,-0.18376 0.184505,-0.34598 0.325165,-0.48663 0.140647,-0.14065 0.30286,-0.24904 0.486633,-0.32516 C 62.179741,104.53806 62.371082,104.5 62.57,104.5 Z" /></g><g
           transform="scale(3.0059524)"
           id="g332"><text
             id="text336"
             style="font-variant:normal;font-weight:normal;font-size:7px;font-family:ArialMT;-inkscape-font-specification:ArialMT;writing-mode:lr-tb;fill:#ffffff;fill-opacity:1;fill-rule:nonzero;stroke:none"
             transform="translate(63.421875,112)"><tspan
               id="tspan334"
               y="0"
               x="0 5.0551758 8.9482422 12.841309 16.734375 20.234375 22.179199 26.848145 30.348145 34.241211 35.796387 37.351562 41.244629">RobustScaling</tspan></text>
</g><g
           transform="matrix(3.0059524,0,0,3.0059524,1.5029762,1.5029762)"
           id="g338"><path
             id="path340"
             style="fill:#666666;fill-opacity:1;fill-rule:nonzero;stroke:none"
             d="m 126.57,94.5 h 52.00001 c 0.1989,0 0.39024,0.03805 0.57402,0.114166 0.18376,0.07613 0.34598,0.184517 0.48663,0.325173 0.14064,0.140648 0.24904,0.302856 0.32517,0.486625 0.0761,0.18377 0.11416,0.375115 0.11418,0.574036 v 7 c -2e-5,0.19891 -0.0381,0.39024 -0.11418,0.57401 -0.0761,0.18377 -0.18453,0.34599 -0.32517,0.48664 -0.14065,0.14065 -0.30287,0.24904 -0.48663,0.32516 -0.18378,0.0761 -0.37512,0.11418 -0.57402,0.11419 H 126.57 c -0.19892,-1e-5 -0.39027,-0.0381 -0.57404,-0.11419 -0.18377,-0.0761 -0.34598,-0.18451 -0.48663,-0.32516 -0.14066,-0.14065 -0.24905,-0.30287 -0.32516,-0.48664 -0.0761,-0.18377 -0.11418,-0.3751 -0.11417,-0.57401 v -7 c -10e-6,-0.198921 0.0381,-0.390266 0.11417,-0.574036 0.0761,-0.183769 0.1845,-0.345977 0.32516,-0.486625 0.14065,-0.140656 0.30286,-0.249047 0.48663,-0.325165 C 126.17973,94.538055 126.37108,94.5 126.57,94.5 Z" /></g><g
           transform="scale(3.0059524)"
           id="g342"><text
             id="text346"
             style="font-variant:normal;font-weight:normal;font-size:7px;font-family:ArialMT;-inkscape-font-specification:ArialMT;writing-mode:lr-tb;fill:#ffffff;fill-opacity:1;fill-rule:nonzero;stroke:none"
             transform="translate(132,102)"><tspan
               id="tspan344"
               y="0"
               x="0 5.0551758 8.9482422 12.448242 14.003418 17.503418 19.058594 22.95166 26.844727 30.86084 33.191895 37.084961">DecisionTree</tspan></text>
</g><g
           transform="matrix(3.0059524,0,0,3.0059524,1.5029762,1.5029762)"
           id="g348"><path
             id="path350"
             style="fill:#666666;fill-opacity:1;fill-rule:nonzero;stroke:none"
             d="m 62.57,115.5 h 47 c 0.19891,0 0.39024,0.0381 0.57401,0.11417 0.18377,0.0761 0.34598,0.18451 0.48664,0.32517 0.14065,0.14065 0.24903,0.30286 0.32515,0.48662 0.0761,0.18377 0.11419,0.37512 0.1142,0.57404 v 7 c -10e-6,0.1989 -0.0381,0.39024 -0.11421,0.57401 -0.0761,0.18377 -0.18449,0.34599 -0.32514,0.48664 -0.14066,0.14065 -0.30287,0.24904 -0.48664,0.32515 -0.18377,0.0761 -0.3751,0.11419 -0.57401,0.1142 h -47 c -0.198918,-1e-5 -0.390259,-0.0381 -0.574032,-0.1142 -0.183773,-0.0761 -0.345986,-0.1845 -0.486633,-0.32515 C 61.368675,124.92 61.260288,124.75778 61.18417,124.57401 61.108051,124.39024 61.069996,124.1989 61.07,124 v -7 c -4e-6,-0.19892 0.03805,-0.39027 0.11417,-0.57404 0.07612,-0.18376 0.184505,-0.34597 0.325165,-0.48662 0.140647,-0.14066 0.30286,-0.24905 0.486633,-0.32517 C 62.179741,115.53806 62.371082,115.5 62.57,115.5 Z" /></g><g
           transform="scale(3.0059524)"
           id="g352"><text
             id="text356"
             style="font-variant:normal;font-weight:normal;font-size:7px;font-family:ArialMT;-inkscape-font-specification:ArialMT;writing-mode:lr-tb;fill:#ffffff;fill-opacity:1;fill-rule:nonzero;stroke:none"
             transform="translate(62.265625,123)"><tspan
               id="tspan354"
               y="0"
               x="0 5.8310547 7.3862305 11.279297 17.110352 21.003418 24.503418 29.172363 32.672363 36.56543 38.120605 39.675781 43.568848">MinMaxScaling</tspan></text>
</g><g
           transform="matrix(3.0059524,0,0,3.0059524,1.5029762,1.5029762)"
           id="g358"><path
             id="path360"
             style="fill:#666666;fill-opacity:1;fill-rule:nonzero;stroke:none"
             d="m 126.42,105.5 h 52.3 c 0.37279,0 0.69098,0.1318 0.95459,0.3954 0.26361,0.2636 0.39542,0.5818 0.39542,0.9546 v 6.3 c 0,0.37279 -0.13181,0.69098 -0.39542,0.95458 -0.26361,0.26361 -0.5818,0.39541 -0.95459,0.39542 h -52.3 c -0.3728,-1e-5 -0.691,-0.13182 -0.9546,-0.39542 -0.2636,-0.2636 -0.39541,-0.58179 -0.3954,-0.95458 v -6.3 c -10e-6,-0.3728 0.13179,-0.691 0.39539,-0.9546 C 125.729,105.6318 126.0472,105.5 126.42,105.5 Z" /></g><g
           transform="scale(3.0059524)"
           id="g362"><text
             id="text366"
             style="font-variant:normal;font-weight:normal;font-size:7px;font-family:ArialMT;-inkscape-font-specification:ArialMT;writing-mode:lr-tb;fill:#ffffff;fill-opacity:1;fill-rule:nonzero;stroke:none"
             transform="translate(129.34375,112)"><tspan
               id="tspan364"
               y="0"
               x="0 5.0551758 8.9482422 12.841309 16.734375 20.627441 26.458496 30.734375 34.627441 36.958496 40.851562 44.351562">RandomForest</tspan></text>
</g><g
           transform="matrix(3.0059524,0,0,3.0059524,1.5029762,1.5029762)"
           id="g368"><path
             id="path370"
             style="fill:none;stroke:#000000;stroke-width:1;stroke-linecap:butt;stroke-linejoin:miter;stroke-miterlimit:10;stroke-dasharray:none;stroke-opacity:1"
             d="m 111.07,107 11.03,-5.91" /><path
             id="path372"
             style="fill:#000000;fill-opacity:1;fill-rule:nonzero;stroke:none"
             d="m 124.08,100.03 -1.93,2.74 -0.05,-1.68 -1.37,-0.97 z" /><path
             id="path374"
             style="fill:none;stroke:#000000;stroke-width:1;stroke-linecap:butt;stroke-linejoin:miter;stroke-miterlimit:10;stroke-dasharray:none;stroke-opacity:1"
             d="m 124.08,100.03 -1.93,2.74 -0.05,-1.68 -1.37,-0.97 z" /><path
             id="path376"
             style="fill:#666666;fill-opacity:1;fill-rule:nonzero;stroke:none"
             d="m 126.57,115.5 h 52.00001 c 0.1989,0 0.39024,0.0381 0.57402,0.11417 0.18376,0.0761 0.34598,0.18451 0.48663,0.32517 0.14064,0.14065 0.24904,0.30286 0.32517,0.48662 0.0761,0.18377 0.11416,0.37512 0.11418,0.57404 v 7 c -2e-5,0.1989 -0.0381,0.39024 -0.11418,0.57401 -0.0761,0.18377 -0.18453,0.34599 -0.32517,0.48664 -0.14065,0.14065 -0.30287,0.24904 -0.48663,0.32515 -0.18378,0.0761 -0.37512,0.11419 -0.57402,0.1142 H 126.57 c -0.19892,-1e-5 -0.39027,-0.0381 -0.57404,-0.1142 -0.18377,-0.0761 -0.34598,-0.1845 -0.48663,-0.32515 -0.14066,-0.14065 -0.24905,-0.30287 -0.32516,-0.48664 C 125.10805,124.39024 125.06999,124.1989 125.07,124 v -7 c -10e-6,-0.19892 0.0381,-0.39027 0.11417,-0.57404 0.0761,-0.18376 0.1845,-0.34597 0.32516,-0.48662 0.14065,-0.14066 0.30286,-0.24905 0.48663,-0.32517 0.18377,-0.0761 0.37512,-0.11417 0.57404,-0.11417 z" /></g><g
           transform="scale(3.0059524)"
           id="g378"><text
             id="text382"
             style="font-variant:normal;font-weight:normal;font-size:7px;font-family:ArialMT;-inkscape-font-specification:ArialMT;writing-mode:lr-tb;fill:#ffffff;fill-opacity:1;fill-rule:nonzero;stroke:none"
             transform="translate(132,123)"><tspan
               id="tspan380"
               y="0"
               x="0 5.0551758 8.9482422 12.448242 14.003418 17.503418 19.058594 22.95166 26.844727 30.86084 33.191895 37.084961">DecisionTree</tspan></text>
</g><g
           transform="matrix(3.0059524,0,0,3.0059524,1.5029762,1.5029762)"
           id="g384"><path
             id="path386"
             style="fill:#666666;fill-opacity:1;fill-rule:nonzero;stroke:none"
             d="m 126.57,126.5 h 52.00001 c 0.1989,0 0.39024,0.0381 0.57402,0.11417 0.18376,0.0761 0.34598,0.18451 0.48663,0.32516 0.14064,0.14065 0.24904,0.30287 0.32517,0.48663 0.0761,0.18377 0.11416,0.37512 0.11418,0.57404 v 7 c -2e-5,0.1989 -0.0381,0.39024 -0.11418,0.57402 -0.0761,0.18376 -0.18453,0.34598 -0.32517,0.48663 -0.14065,0.14066 -0.30287,0.24904 -0.48663,0.32515 -0.18378,0.0761 -0.37512,0.11418 -0.57402,0.1142 H 126.57 c -0.19892,-2e-5 -0.39027,-0.0381 -0.57404,-0.1142 -0.18377,-0.0761 -0.34598,-0.18449 -0.48663,-0.32515 -0.14066,-0.14065 -0.24905,-0.30287 -0.32516,-0.48663 C 125.10805,135.39024 125.06999,135.1989 125.07,135 v -7 c -10e-6,-0.19892 0.0381,-0.39027 0.11417,-0.57404 0.0761,-0.18376 0.1845,-0.34598 0.32516,-0.48663 0.14065,-0.14065 0.30286,-0.24904 0.48663,-0.32516 0.18377,-0.0761 0.37512,-0.11417 0.57404,-0.11417 z" /></g><g
           transform="scale(3.0059524)"
           id="g388"><text
             id="text392"
             style="font-variant:normal;font-weight:normal;font-size:7px;font-family:ArialMT;-inkscape-font-specification:ArialMT;writing-mode:lr-tb;fill:#ffffff;fill-opacity:1;fill-rule:nonzero;stroke:none"
             transform="translate(129.34375,134)"><tspan
               id="tspan390"
               y="0"
               x="0 5.0551758 8.9482422 12.841309 16.734375 20.627441 26.458496 30.734375 34.627441 36.958496 40.851562 44.351562">RandomForest</tspan></text>
</g><g
           transform="matrix(3.0059524,0,0,3.0059524,1.5029762,1.5029762)"
           id="g394"><path
             id="path396"
             style="fill:#666666;fill-opacity:1;fill-rule:nonzero;stroke:none"
             d="m 16.57,109.5 h 29 c 0.198909,0 0.390251,0.0381 0.574024,0.11417 0.183769,0.0761 0.345981,0.18451 0.486633,0.32516 0.140648,0.14065 0.249035,0.30286 0.325157,0.48663 0.07612,0.18377 0.114182,0.37512 0.114186,0.57404 v 7 c -4e-6,0.19891 -0.03807,0.39024 -0.114189,0.57401 -0.07612,0.18377 -0.184506,0.34599 -0.325154,0.48664 -0.140652,0.14065 -0.302864,0.24904 -0.486637,0.32515 -0.183769,0.0761 -0.375111,0.11419 -0.57402,0.1142 h -29 c -0.198914,-1e-5 -0.390255,-0.0381 -0.574027,-0.1142 -0.183772,-0.0761 -0.345985,-0.1845 -0.486636,-0.32515 C 15.368685,118.92 15.260299,118.75778 15.184178,118.57401 15.108058,118.39024 15.069999,118.19891 15.07,118 v -7 c -1e-6,-0.19892 0.03806,-0.39027 0.114178,-0.57404 0.07612,-0.18377 0.184507,-0.34598 0.325159,-0.48663 0.140651,-0.14065 0.302863,-0.24904 0.486635,-0.32516 C 16.179743,109.53806 16.371086,109.5 16.57,109.5 Z" /></g><g
           transform="scale(3.0059524)"
           id="g398"><text
             id="text402"
             style="font-variant:normal;font-weight:normal;font-size:7px;font-family:ArialMT;-inkscape-font-specification:ArialMT;writing-mode:lr-tb;fill:#ffffff;fill-opacity:1;fill-rule:nonzero;stroke:none"
             transform="translate(18.546875,117)"><tspan
               id="tspan400"
               y="0"
               x="0 3.8930664 7.7861328 11.679199 15.572266 17.51709 19.848145 21.40332">LoadIris</tspan></text>
</g><g
           transform="matrix(3.0059524,0,0,3.0059524,1.5029762,1.5029762)"
           id="g404"><path
             id="path406"
             style="fill:none;stroke:#000000;stroke-width:1;stroke-linecap:butt;stroke-linejoin:miter;stroke-miterlimit:10;stroke-dasharray:none;stroke-opacity:1"
             d="m 47.07,112 10.68,-1.91" /><path
             id="path408"
             style="fill:#000000;fill-opacity:1;fill-rule:nonzero;stroke:none"
             d="m 59.970001,109.7 -2.690002,2 0.470001,-1.61 -1,-1.34 z" /><path
             id="path410"
             style="fill:none;stroke:#000000;stroke-width:1;stroke-linecap:butt;stroke-linejoin:miter;stroke-miterlimit:10;stroke-dasharray:none;stroke-opacity:1"
             d="m 59.970001,109.7 -2.690002,2 0.470001,-1.61 -1,-1.34 z" /><path
             id="path412"
             style="fill:none;stroke:#000000;stroke-width:1;stroke-linecap:butt;stroke-linejoin:miter;stroke-miterlimit:10;stroke-dasharray:none;stroke-opacity:1"
             d="m 47.07,117 10.729999,2.68" /><path
             id="path414"
             style="fill:#000000;fill-opacity:1;fill-rule:nonzero;stroke:none"
             d="m 59.990002,120.23 -3.280003,0.73 1.09,-1.28 -0.36,-1.63 z" /><path
             id="path416"
             style="fill:none;stroke:#000000;stroke-width:1;stroke-linecap:butt;stroke-linejoin:miter;stroke-miterlimit:10;stroke-dasharray:none;stroke-opacity:1"
             d="m 59.990002,120.23 -3.280003,0.73 1.09,-1.28 -0.36,-1.63 z" /><path
             id="path418"
             style="fill:none;stroke:#000000;stroke-width:1;stroke-linecap:butt;stroke-linejoin:miter;stroke-miterlimit:10;stroke-dasharray:none;stroke-opacity:1"
             d="m 111.07,112 10.67,-1.52" /><path
             id="path420"
             style="fill:#000000;fill-opacity:1;fill-rule:nonzero;stroke:none"
             d="m 123.96,110.16 -2.75,1.91 0.53,-1.59 -0.96,-1.38 z" /><path
             id="path422"
             style="fill:none;stroke:#000000;stroke-width:1;stroke-linecap:butt;stroke-linejoin:miter;stroke-miterlimit:10;stroke-dasharray:none;stroke-opacity:1"
             d="m 123.96,110.16 -2.75,1.91 0.53,-1.59 -0.96,-1.38 z" /><path
             id="path424"
             style="fill:none;stroke:#000000;stroke-width:1;stroke-linecap:butt;stroke-linejoin:miter;stroke-miterlimit:10;stroke-dasharray:none;stroke-opacity:1"
             d="m 111.07,118 10.68,1.91" /><path
             id="path426"
             style="fill:#000000;fill-opacity:1;fill-rule:nonzero;stroke:none"
             d="m 123.97,120.3 -3.22,0.95 1,-1.34 -0.47,-1.61 z" /><path
             id="path428"
             style="fill:none;stroke:#000000;stroke-width:1;stroke-linecap:butt;stroke-linejoin:miter;stroke-miterlimit:10;stroke-dasharray:none;stroke-opacity:1"
             d="m 123.97,120.3 -3.22,0.95 1,-1.34 -0.47,-1.61 z" /><path
             id="path430"
             style="fill:none;stroke:#000000;stroke-width:1;stroke-linecap:butt;stroke-linejoin:miter;stroke-miterlimit:10;stroke-dasharray:none;stroke-opacity:1"
             d="m 111.07,123 11.12,6.75" /><path
             id="path432"
             style="fill:#000000;fill-opacity:1;fill-rule:nonzero;stroke:none"
             d="m 124.11,130.92 -3.34,-0.27001 1.42,-0.89999 0.14,-1.67 z" /><path
             id="path434"
             style="fill:none;stroke:#000000;stroke-width:1;stroke-linecap:butt;stroke-linejoin:miter;stroke-miterlimit:10;stroke-dasharray:none;stroke-opacity:1"
             d="m 124.11,130.92 -3.34,-0.27001 1.42,-0.89999 0.14,-1.67 z" /><path
             id="path436"
             style="fill:none;stroke:#000000;stroke-width:1;stroke-linecap:butt;stroke-linejoin:miter;stroke-miterlimit:10;stroke-dasharray:none;stroke-opacity:1"
             d="m 298.78,92.75 h 13.63" /><path
             id="path438"
             style="fill:#000000;fill-opacity:1;fill-rule:nonzero;stroke:none"
             d="m 314.66,92.75 -3,1.5 0.75,-1.5 -0.75,-1.5 z" /><path
             id="path440"
             style="fill:none;stroke:#000000;stroke-width:1;stroke-linecap:butt;stroke-linejoin:miter;stroke-miterlimit:10;stroke-dasharray:none;stroke-opacity:1"
             d="m 314.66,92.75 -3,1.5 0.75,-1.5 -0.75,-1.5 z" /><path
             id="path442"
             style="fill:#666666;fill-opacity:1;fill-rule:nonzero;stroke:none"
             d="m 123.5,41 h 52 c 0.1989,0 0.39024,0.03806 0.57401,0.114178 0.18376,0.07612 0.34597,0.184509 0.48664,0.325161 0.14064,0.140648 0.24903,0.302856 0.32515,0.486629 0.0761,0.183773 0.11418,0.375118 0.1142,0.574032 v 7 c -2e-5,0.19891 -0.0381,0.390247 -0.1142,0.57402 -0.0761,0.18377 -0.18451,0.345982 -0.32515,0.486638 -0.14067,0.140651 -0.30288,0.249034 -0.48664,0.325157 C 175.89024,50.961937 175.6989,50.999996 175.5,51 h -52 c -0.19892,-4e-6 -0.39027,-0.03806 -0.57404,-0.114185 -0.18377,-0.07612 -0.34598,-0.184506 -0.48663,-0.325157 -0.14065,-0.140656 -0.24904,-0.302868 -0.32516,-0.486638 C 122.03805,49.890247 121.99999,49.69891 122,49.5 v -7 c -1e-5,-0.198914 0.038,-0.390259 0.11417,-0.574032 0.0761,-0.183773 0.18451,-0.345981 0.32516,-0.486629 0.14065,-0.140652 0.30286,-0.249039 0.48663,-0.325161 C 123.10973,41.038059 123.30108,41 123.5,41 Z" /></g><g
           transform="scale(3.0059524)"
           id="g444"><text
             id="text448"
             style="font-variant:normal;font-weight:normal;font-size:7px;font-family:ArialMT;-inkscape-font-specification:ArialMT;writing-mode:lr-tb;fill:#ffffff;fill-opacity:1;fill-rule:nonzero;stroke:none"
             transform="translate(129,48)"><tspan
               id="tspan446"
               y="0"
               x="0 5.0551758 8.9482422 12.448242 14.003418 17.503418 19.058594 22.95166 26.844727 30.86084 33.191895 37.084961">DecisionTree</tspan></text>
</g><g
           transform="matrix(3.0059524,0,0,3.0059524,1.5029762,1.5029762)"
           id="g450"><path
             id="path452"
             style="fill:#666666;fill-opacity:1;fill-rule:nonzero;stroke:none"
             d="m 123.5,19 h 52 c 0.1989,0 0.39024,0.03806 0.57401,0.11418 0.18376,0.07612 0.34597,0.184505 0.48664,0.325159 0.14064,0.140649 0.24903,0.302862 0.32515,0.486633 0.0761,0.183771 0.11418,0.375113 0.1142,0.574028 v 7 c -2e-5,0.198912 -0.0381,0.390251 -0.1142,0.574022 -0.0761,0.18377 -0.18451,0.345982 -0.32515,0.486636 -0.14067,0.140651 -0.30288,0.249036 -0.48664,0.325157 C 175.89024,28.961935 175.6989,28.999998 175.5,29 h -52 c -0.19892,-2e-6 -0.39027,-0.03806 -0.57404,-0.114187 -0.18377,-0.07612 -0.34598,-0.184504 -0.48663,-0.325155 -0.14065,-0.140654 -0.24904,-0.302866 -0.32516,-0.486636 C 122.03805,27.890251 121.99999,27.698912 122,27.5 v -7 c -1e-5,-0.198915 0.038,-0.390257 0.11417,-0.574028 0.0761,-0.183771 0.18451,-0.345984 0.32516,-0.486633 0.14065,-0.140654 0.30286,-0.249039 0.48663,-0.325159 C 123.10973,19.038059 123.30108,19 123.5,19 Z" /></g><g
           transform="scale(3.0059524)"
           id="g454"><text
             id="text458"
             style="font-variant:normal;font-weight:normal;font-size:7px;font-family:ArialMT;-inkscape-font-specification:ArialMT;writing-mode:lr-tb;fill:#ffffff;fill-opacity:1;fill-rule:nonzero;stroke:none"
             transform="translate(129,26)"><tspan
               id="tspan456"
               y="0"
               x="0 5.0551758 8.9482422 12.448242 14.003418 17.503418 19.058594 22.95166 26.844727 30.86084 33.191895 37.084961">DecisionTree</tspan></text>
</g><g
           transform="matrix(3.0059524,0,0,3.0059524,1.5029762,1.5029762)"
           id="g460"><path
             id="path462"
             style="fill:#666666;fill-opacity:1;fill-rule:nonzero;stroke:none"
             d="m 123.5,30 h 52 c 0.1989,0 0.39024,0.03806 0.57401,0.114178 0.18376,0.07612 0.34597,0.184507 0.48664,0.325161 0.14064,0.140649 0.24903,0.302862 0.32515,0.486633 0.0761,0.183771 0.11418,0.375113 0.1142,0.574028 v 7 c -2e-5,0.19891 -0.0381,0.390251 -0.1142,0.57402 -0.0761,0.18377 -0.18451,0.345982 -0.32515,0.486638 -0.14067,0.140651 -0.30288,0.249034 -0.48664,0.325153 C 175.89024,39.961933 175.6989,39.999996 175.5,40 h -52 c -0.19892,-4e-6 -0.39027,-0.03807 -0.57404,-0.114189 -0.18377,-0.07612 -0.34598,-0.184502 -0.48663,-0.325153 -0.14065,-0.140656 -0.24904,-0.302868 -0.32516,-0.486638 C 122.03805,38.890251 121.99999,38.69891 122,38.5 v -7 c -1e-5,-0.198915 0.038,-0.390257 0.11417,-0.574028 0.0761,-0.183771 0.18451,-0.345984 0.32516,-0.486633 0.14065,-0.140654 0.30286,-0.249041 0.48663,-0.325159 C 123.10973,30.038059 123.30108,30 123.5,30 Z" /></g><g
           transform="scale(3.0059524)"
           id="g464"><text
             id="text468"
             style="font-variant:normal;font-weight:normal;font-size:7px;font-family:ArialMT;-inkscape-font-specification:ArialMT;writing-mode:lr-tb;fill:#ffffff;fill-opacity:1;fill-rule:nonzero;stroke:none"
             transform="translate(126.34375,37)"><tspan
               id="tspan466"
               y="0"
               x="0 5.0551758 8.9482422 12.841309 16.734375 20.627441 26.458496 30.734375 34.627441 36.958496 40.851562 44.351562">RandomForest</tspan></text>
</g><g
           transform="matrix(3.0059524,0,0,3.0059524,1.5029762,1.5029762)"
           id="g470"><path
             id="path472"
             style="fill:#666666;fill-opacity:1;fill-rule:nonzero;stroke:none"
             d="m 123.5,52 h 52 c 0.1989,0 0.39024,0.03806 0.57401,0.114174 0.18376,0.07612 0.34597,0.184509 0.48664,0.325161 0.14064,0.140652 0.24903,0.30286 0.32515,0.486633 0.0761,0.183773 0.11418,0.375115 0.1142,0.574032 v 7 c -2e-5,0.19891 -0.0381,0.390247 -0.1142,0.574017 -0.0761,0.183773 -0.18451,0.345985 -0.32515,0.486641 -0.14067,0.140647 -0.30288,0.249034 -0.48664,0.325157 C 175.89024,61.961937 175.6989,61.999996 175.5,62 h -52 c -0.19892,-4e-6 -0.39027,-0.03806 -0.57404,-0.114185 -0.18377,-0.07612 -0.34598,-0.18451 -0.48663,-0.325157 -0.14065,-0.140656 -0.24904,-0.302868 -0.32516,-0.486638 C 122.03805,60.890247 121.99999,60.69891 122,60.5 v -7 c -1e-5,-0.198917 0.038,-0.390259 0.11417,-0.574032 0.0761,-0.183773 0.18451,-0.345981 0.32516,-0.486633 0.14065,-0.140652 0.30286,-0.249039 0.48663,-0.325157 C 123.10973,52.038059 123.30108,52 123.5,52 Z" /></g><g
           transform="scale(3.0059524)"
           id="g474"><text
             id="text478"
             style="font-variant:normal;font-weight:normal;font-size:7px;font-family:ArialMT;-inkscape-font-specification:ArialMT;writing-mode:lr-tb;fill:#ffffff;fill-opacity:1;fill-rule:nonzero;stroke:none"
             transform="translate(126.34375,59)"><tspan
               id="tspan476"
               y="0"
               x="0 5.0551758 8.9482422 12.841309 16.734375 20.627441 26.458496 30.734375 34.627441 36.958496 40.851562 44.351562">RandomForest</tspan></text>
</g><g
           transform="matrix(3.0059524,0,0,3.0059524,1.5029762,1.5029762)"
           id="g480"><path
             id="path482"
             style="fill:#636eff;fill-opacity:1;fill-rule:nonzero;stroke:none"
             d="m 192.28,103.75 h 7 c 0.1989,0 0.39023,0.0381 0.574,0.11417 0.18377,0.0761 0.34598,0.18451 0.48665,0.32517 0.14064,0.14065 0.24901,0.30286 0.32514,0.48663 0.0761,0.18377 0.11419,0.37512 0.11421,0.57403 v 7 c -2e-5,0.19891 -0.0381,0.39025 -0.1142,0.57402 -0.0761,0.18376 -0.18451,0.34597 -0.32515,0.48663 -0.14067,0.14065 -0.30288,0.24904 -0.48665,0.32515 -0.18377,0.0761 -0.3751,0.11419 -0.574,0.1142 h -7 c -0.19893,-1e-5 -0.39028,-0.0381 -0.57404,-0.1142 -0.18379,-0.0761 -0.34599,-0.1845 -0.48663,-0.32515 -0.14067,-0.14066 -0.24905,-0.30287 -0.32518,-0.48664 -0.0761,-0.18377 -0.11417,-0.3751 -0.11415,-0.57401 v -7 c -2e-5,-0.19891 0.038,-0.39026 0.11415,-0.57403 0.0761,-0.18377 0.18451,-0.34598 0.32518,-0.48663 0.14064,-0.14066 0.30284,-0.24905 0.48663,-0.32517 0.18376,-0.0761 0.37511,-0.11417 0.57404,-0.11417 z" /></g><g
           transform="scale(3.0059524)"
           id="g484"><text
             id="text488"
             style="font-variant:normal;font-weight:normal;font-size:7px;font-family:ArialMT;-inkscape-font-specification:ArialMT;writing-mode:lr-tb;fill:#ffffff;fill-opacity:1;fill-rule:nonzero;stroke:none"
             transform="translate(193.65625,111)"><tspan
               id="tspan486"
               y="0"
               x="0">B</tspan></text>
</g><g
           transform="matrix(3.0059524,0,0,3.0059524,1.5029762,1.5029762)"
           id="g490"><path
             id="path492"
             style="fill:#7aa860;fill-opacity:1;fill-rule:nonzero;stroke:none"
             d="m 192.28,119.75 h 7 c 0.1989,0 0.39023,0.0381 0.574,0.11417 0.18377,0.0761 0.34598,0.1845 0.48665,0.32515 0.14064,0.14065 0.24901,0.30286 0.32514,0.48663 0.0761,0.18378 0.11419,0.37513 0.11421,0.57405 v 7 c -2e-5,0.1989 -0.0381,0.39024 -0.1142,0.574 -0.0761,0.18378 -0.18451,0.346 -0.32515,0.48665 -0.14067,0.14064 -0.30288,0.24903 -0.48665,0.32515 -0.18377,0.0761 -0.3751,0.11418 -0.574,0.1142 h -7 c -0.19893,-2e-5 -0.39028,-0.0381 -0.57404,-0.1142 -0.18379,-0.0761 -0.34599,-0.18451 -0.48663,-0.32515 -0.14067,-0.14065 -0.24905,-0.30287 -0.32518,-0.48665 -0.0761,-0.18376 -0.11417,-0.3751 -0.11415,-0.574 v -7 c -2e-5,-0.19892 0.038,-0.39027 0.11415,-0.57405 0.0761,-0.18377 0.18451,-0.34598 0.32518,-0.48663 0.14064,-0.14065 0.30284,-0.24903 0.48663,-0.32515 0.18376,-0.0761 0.37511,-0.11417 0.57404,-0.11417 z" /></g><g
           transform="scale(3.0059524)"
           id="g494"><text
             id="text498"
             style="font-variant:normal;font-weight:normal;font-size:7px;font-family:ArialMT;-inkscape-font-specification:ArialMT;writing-mode:lr-tb;fill:#ffffff;fill-opacity:1;fill-rule:nonzero;stroke:none"
             transform="translate(193.65625,127)"><tspan
               id="tspan496"
               y="0"
               x="0">A</tspan></text>
</g><g
           transform="matrix(3.0059524,0,0,3.0059524,1.5029762,1.5029762)"
           id="g500"><path
             id="path502"
             style="fill:#666666;fill-opacity:1;fill-rule:nonzero;stroke:none"
             d="m 289.53,87.25 h 7 c 0.19888,0 0.39023,0.03805 0.57397,0.114174 0.18381,0.07612 0.34601,0.184502 0.48667,0.325165 0.14065,0.140648 0.24902,0.302856 0.32513,0.486625 0.0761,0.183777 0.1142,0.375122 0.11423,0.574036 v 7 c -3e-5,0.198906 -0.0381,0.390251 -0.1142,0.57402 -0.0761,0.18377 -0.18451,0.345986 -0.32516,0.486641 -0.14066,0.140648 -0.30286,0.249039 -0.48664,0.325157 -0.18377,0.07612 -0.37512,0.114174 -0.574,0.114182 h -7 c -0.19895,-8e-6 -0.39029,-0.03806 -0.57404,-0.114182 -0.1838,-0.07612 -0.34601,-0.184509 -0.48663,-0.325157 -0.14066,-0.140655 -0.24905,-0.302871 -0.3252,-0.486641 -0.0761,-0.183769 -0.11416,-0.375114 -0.11413,-0.57402 v -7 c -3e-5,-0.198914 0.038,-0.390259 0.11413,-0.574036 0.0761,-0.183769 0.18454,-0.345977 0.3252,-0.486625 0.14062,-0.140663 0.30283,-0.249047 0.48663,-0.325165 C 289.13971,87.288055 289.33105,87.25 289.53,87.25 Z" /></g><g
           transform="scale(3.0059524)"
           id="g504"><text
             id="text508"
             style="font-variant:normal;font-weight:normal;font-size:7px;font-family:ArialMT;-inkscape-font-specification:ArialMT;writing-mode:lr-tb;fill:#ffffff;fill-opacity:1;fill-rule:nonzero;stroke:none"
             transform="translate(290.65625,94)"><tspan
               id="tspan506"
               y="0"
               x="0">A</tspan></text>
</g><g
           transform="matrix(3.0059524,0,0,3.0059524,1.5029762,1.5029762)"
           id="g510"><path
             id="path512"
             style="fill:#666666;fill-opacity:1;fill-rule:nonzero;stroke:none"
             d="m 317.28,87.25 h 7 c 0.19891,0 0.39023,0.03805 0.57397,0.114174 0.18378,0.07612 0.34601,0.184502 0.48667,0.325165 0.14062,0.140648 0.24899,0.302856 0.32513,0.486625 0.0761,0.183777 0.1142,0.375122 0.11423,0.574036 v 7 c -3e-5,0.198906 -0.0381,0.390251 -0.11423,0.57402 -0.0761,0.18377 -0.18451,0.345986 -0.32513,0.486641 -0.14066,0.140648 -0.30289,0.249039 -0.48667,0.325157 -0.18374,0.07612 -0.37506,0.114174 -0.57397,0.114182 h -7 c -0.19895,-8e-6 -0.39029,-0.03806 -0.57407,-0.114182 -0.18374,-0.07612 -0.34594,-0.184509 -0.4866,-0.325157 -0.14066,-0.140655 -0.24905,-0.302871 -0.32516,-0.486641 C 315.81805,96.140251 315.78,95.948906 315.78,95.75 v -7 c 0,-0.198914 0.0381,-0.390259 0.11417,-0.574036 0.0761,-0.183769 0.1845,-0.345977 0.32516,-0.486625 0.14066,-0.140663 0.30286,-0.249047 0.4866,-0.325165 C 316.88971,87.288055 317.08105,87.25 317.28,87.25 Z" /></g><g
           transform="scale(3.0059524)"
           id="g514"><text
             id="text518"
             style="font-variant:normal;font-weight:normal;font-size:7px;font-family:ArialMT;-inkscape-font-specification:ArialMT;writing-mode:lr-tb;fill:#ffffff;fill-opacity:1;fill-rule:nonzero;stroke:none"
             transform="translate(318.65625,94)"><tspan
               id="tspan516"
               y="0"
               x="0">B</tspan></text>
</g><g
           transform="matrix(3.0059524,0,0,3.0059524,1.5029762,1.5029762)"
           id="g520"><path
             id="path522"
             style="fill:#636eff;fill-opacity:1;fill-rule:nonzero;stroke:none"
             d="m 289.53,102.75 h 7 c 0.19888,0 0.39023,0.0381 0.57397,0.11417 0.18381,0.0761 0.34601,0.18451 0.48667,0.32516 0.14065,0.14065 0.24902,0.30287 0.32513,0.48663 0.0761,0.18377 0.1142,0.37512 0.11423,0.57404 v 7 c -3e-5,0.19891 -0.0381,0.39024 -0.1142,0.57402 -0.0761,0.18377 -0.18451,0.34598 -0.32516,0.48663 -0.14066,0.14065 -0.30286,0.24904 -0.48664,0.32515 -0.18377,0.0761 -0.37512,0.11419 -0.574,0.1142 h -7 c -0.19895,-1e-5 -0.39029,-0.0381 -0.57404,-0.11419 -0.1838,-0.0761 -0.34601,-0.18451 -0.48663,-0.32516 -0.14066,-0.14065 -0.24905,-0.30286 -0.3252,-0.48663 -0.0761,-0.18378 -0.11416,-0.37511 -0.11413,-0.57402 v -7 c -3e-5,-0.19892 0.038,-0.39027 0.11413,-0.57404 0.0761,-0.18376 0.18454,-0.34598 0.3252,-0.48663 0.14062,-0.14065 0.30283,-0.24904 0.48663,-0.32516 0.18375,-0.0761 0.37509,-0.11417 0.57404,-0.11417 z" /></g><g
           transform="scale(3.0059524)"
           id="g524"><text
             id="text528"
             style="font-variant:normal;font-weight:normal;font-size:7px;font-family:ArialMT;-inkscape-font-specification:ArialMT;writing-mode:lr-tb;fill:#ffffff;fill-opacity:1;fill-rule:nonzero;stroke:none"
             transform="translate(290.65625,110)"><tspan
               id="tspan526"
               y="0"
               x="0">B</tspan></text>
</g><g
           transform="matrix(3.0059524,0,0,3.0059524,1.5029762,1.5029762)"
           id="g530"><path
             id="path532"
             style="fill:#7aa860;fill-opacity:1;fill-rule:nonzero;stroke:none"
             d="m 315.78,123.75 h 7 c 0.19888,0 0.39023,0.0381 0.57397,0.11417 0.18378,0.0761 0.34601,0.18451 0.48667,0.32516 0.14065,0.14065 0.24902,0.30286 0.32513,0.48663 0.0761,0.18377 0.1142,0.37512 0.11423,0.57404 v 7 c -3e-5,0.1989 -0.0381,0.39024 -0.1142,0.574 -0.0761,0.18378 -0.18451,0.346 -0.32516,0.48665 -0.14066,0.14064 -0.30289,0.24903 -0.48664,0.32515 -0.18377,0.0761 -0.37512,0.11418 -0.574,0.1142 h -7 c -0.19895,-2e-5 -0.39029,-0.0381 -0.57404,-0.1142 -0.1838,-0.0761 -0.34601,-0.18451 -0.48663,-0.32515 -0.14066,-0.14065 -0.24905,-0.30287 -0.3252,-0.48665 -0.0761,-0.18376 -0.11416,-0.3751 -0.11413,-0.574 v -7 c -3e-5,-0.19892 0.038,-0.39027 0.11413,-0.57404 0.0761,-0.18377 0.18454,-0.34598 0.3252,-0.48663 0.14062,-0.14065 0.30283,-0.24904 0.48663,-0.32516 0.18375,-0.0761 0.37509,-0.11417 0.57404,-0.11417 z" /></g><g
           transform="scale(3.0059524)"
           id="g534"><text
             id="text538"
             style="font-variant:normal;font-weight:normal;font-size:7px;font-family:ArialMT;-inkscape-font-specification:ArialMT;writing-mode:lr-tb;fill:#ffffff;fill-opacity:1;fill-rule:nonzero;stroke:none"
             transform="translate(316.65625,131)"><tspan
               id="tspan536"
               y="0"
               x="0">A</tspan></text>
</g></g></g></g></svg>