<?xml version="1.0" encoding="UTF-8" standalone="no"?>
<svg
   xmlns:dc="http://purl.org/dc/elements/1.1/"
   xmlns:cc="http://creativecommons.org/ns#"
   xmlns:rdf="http://www.w3.org/1999/02/22-rdf-syntax-ns#"
   xmlns:svg="http://www.w3.org/2000/svg"
   xmlns="http://www.w3.org/2000/svg"
   viewBox="0 0 670.71997 162.56"
   height="162.56"
   width="670.71997"
   xml:space="preserve"
   id="svg2"
   version="1.1"><metadata
     id="metadata8"><rdf:RDF><cc:Work
         rdf:about=""><dc:format>image/svg+xml</dc:format><dc:type
           rdf:resource="http://purl.org/dc/dcmitype/StillImage" /></cc:Work></rdf:RDF></metadata><defs
     id="defs6"><clipPath
       id="clipPath18"
       clipPathUnits="userSpaceOnUse"><path
         style="clip-rule:evenodd"
         id="path16"
         d="M 0,0 H 2096.875 V 503.96997 H 0 Z" /></clipPath></defs><g
     transform="matrix(0.31999998,0,0,0.31999998,0,6.7306666e-6)"
     id="g10"><g
       id="g12"><g
         clip-path="url(#clipPath18)"
         id="g14"><g
           transform="matrix(2.9998212,0,0,2.9998212,1.4999106,1.4999106)"
           id="g20"><path
             id="path22"
             style="fill:#ffffff;fill-opacity:1;fill-rule:nonzero;stroke:none"
             d="M 20,19 H 680 V 152 H 20 Z" /><path
             id="path24"
             style="fill:none;stroke:#000000;stroke-width:1;stroke-linecap:butt;stroke-linejoin:miter;stroke-miterlimit:10;stroke-dasharray:none;stroke-opacity:1"
             d="m 90,39.5 h 40.75" /><path
             id="path26"
             style="fill:#000000;fill-opacity:1;fill-rule:nonzero;stroke:none"
             d="M 136,39.5 129,43 130.75,39.5 129,36 Z" /><path
             id="path28"
             style="fill:none;stroke:#000000;stroke-width:1;stroke-linecap:butt;stroke-linejoin:miter;stroke-miterlimit:10;stroke-dasharray:none;stroke-opacity:1"
             d="M 136,39.5 129,43 130.75,39.5 129,36 Z" /></g><g
           transform="scale(2.9998212)"
           id="g30"><path
             id="path32"
             style="fill:#ffffff;fill-opacity:1;fill-rule:nonzero;stroke:none"
             d="m 114,31 h 11 v 15 h -11 z" /><path
             id="path34"
             style="fill:#ffffff;fill-opacity:1;fill-rule:nonzero;stroke:none"
             d="m 114,33 h 11 v 9 h -11 z" /><text
             id="text38"
             style="font-variant:normal;font-weight:normal;font-size:8px;font-family:LiberationSerif;-inkscape-font-specification:LiberationSerif;writing-mode:lr-tb;fill:#666666;fill-opacity:1;fill-rule:nonzero;stroke:none"
             transform="translate(114.07813,40)"><tspan
               id="tspan36"
               y="0"
               x="0">y</tspan></text>
<text
             id="text42"
             style="font-variant:normal;font-weight:normal;font-size:6.65999985px;font-family:LiberationSerif;-inkscape-font-specification:LiberationSerif;writing-mode:lr-tb;fill:#666666;fill-opacity:1;fill-rule:nonzero;stroke:none"
             transform="translate(118.07813,42.59375)"><tspan
               id="tspan40"
               y="0"
               x="0 1.8493195 3.513382">t,v</tspan></text>
</g><g
           transform="matrix(2.9998212,0,0,2.9998212,1.4999106,1.4999106)"
           id="g44"><path
             id="path46"
             style="fill:#7aa860;fill-opacity:1;fill-rule:nonzero;stroke:none"
             d="M 2.0999999,29 H 87.900002 c 0.278465,0 0.54634,0.05328 0.803627,0.159851 0.25727,0.106566 0.484367,0.258307 0.681289,0.455221 0.196915,0.196913 0.348656,0.424008 0.455216,0.681288 C 89.946709,30.55364 90,30.82152 90,31.1 v 9.800002 c 0,0.278476 -0.05328,0.546352 -0.159859,0.80363 -0.106567,0.257283 -0.258308,0.484379 -0.455223,0.68129 -0.196922,0.196911 -0.424019,0.348648 -0.681289,0.455219 C 88.446342,42.946712 88.178467,42.999996 87.900002,43 H 2.0999999 C 1.8215225,42.999996 1.5536442,42.946712 1.2963647,42.840141 1.0390851,42.73357 0.81198889,42.581833 0.61507571,42.384922 0.41816249,42.188011 0.26642159,41.960915 0.15985295,41.703632 0.05328432,41.446354 0,41.178478 0,40.900002 V 31.1 C 0,30.82152 0.05328432,30.55364 0.15985295,30.29636 0.26642159,30.03908 0.41816249,29.811985 0.61507571,29.615072 0.81198889,29.418158 1.0390851,29.266417 1.2963647,29.159851 1.5536442,29.053284 1.8215225,29 2.0999999,29 Z" /></g><g
           transform="scale(2.9998212)"
           id="g48"><text
             id="text52"
             style="font-variant:normal;font-weight:normal;font-size:8px;font-family:LiberationSans;-inkscape-font-specification:LiberationSans;writing-mode:lr-tb;fill:#ffffff;fill-opacity:1;fill-rule:nonzero;stroke:none"
             transform="translate(2.078125,39)"><tspan
               id="tspan50"
               y="0"
               x="0 5.3359375 9.3359375 13.785156 16.007812 20.457031 24.90625 27.128906 28.90625 32.90625 38.683594 43.132812 45.355469">SyntheticData</tspan></text>
<text
             id="text56"
             style="font-variant:normal;font-weight:normal;font-size:8.01000023px;font-family:LiberationSans;-inkscape-font-specification:LiberationSans;writing-mode:lr-tb;fill:#ffffff;fill-opacity:1;fill-rule:nonzero;stroke:none"
             transform="translate(51.890625,39)"><tspan
               id="tspan54"
               y="0"
               x="0 6.2226562 10.671875 15.121094 19.570312 22.234375 26.683594 28.90625 33.355469">Generator</tspan></text>
</g><g
           transform="matrix(2.9998212,0,0,2.9998212,1.4999106,1.4999106)"
           id="g58"><path
             id="path60"
             style="fill:none;stroke:#000000;stroke-width:1;stroke-linecap:butt;stroke-linejoin:miter;stroke-miterlimit:10;stroke-dasharray:none;stroke-opacity:1"
             d="m 270,36 h 20 V 59 H 610 V 41 h 4.95001" /><path
             id="path62"
             style="fill:#000000;fill-opacity:1;fill-rule:nonzero;stroke:none"
             d="m 617.20001,41 -3,1.5 0.75,-1.5 -0.75,-1.5 z" /><path
             id="path64"
             style="fill:none;stroke:#000000;stroke-width:1;stroke-linecap:butt;stroke-linejoin:miter;stroke-miterlimit:10;stroke-dasharray:none;stroke-opacity:1"
             d="m 617.20001,41 -3,1.5 0.75,-1.5 -0.75,-1.5 z" /><path
             id="path66"
             style="fill:#7aa860;fill-opacity:1;fill-rule:nonzero;stroke:none"
             d="m 139.22,29 h 128.67999 c 0.27848,0 0.54633,0.05328 0.80362,0.159851 0.25727,0.106566 0.48438,0.258307 0.68131,0.455221 0.1969,0.196913 0.34863,0.424008 0.45517,0.681288 0.1066,0.25728 0.15988,0.52516 0.15991,0.80364 v 9.800002 c -3e-5,0.278476 -0.0533,0.546352 -0.15991,0.80363 -0.10654,0.257283 -0.25827,0.484379 -0.45517,0.68129 -0.19693,0.196911 -0.42404,0.348648 -0.68131,0.455219 -0.25729,0.106571 -0.52514,0.159855 -0.80362,0.159859 L 139.22,43 c -0.27849,-4e-6 -0.54639,-0.05329 -0.80366,-0.159859 -0.25728,-0.106571 -0.48436,-0.258308 -0.68128,-0.455219 -0.19691,-0.196911 -0.34866,-0.424007 -0.45524,-0.68129 -0.10656,-0.257278 -0.15984,-0.525154 -0.15983,-0.80363 V 31.1 c -1e-5,-0.27848 0.0533,-0.54636 0.15983,-0.80364 0.10658,-0.25728 0.25833,-0.484375 0.45524,-0.681288 0.19692,-0.196914 0.424,-0.348655 0.68128,-0.455221 C 138.67361,29.053284 138.94151,29 139.22,29 Z" /></g><g
           transform="scale(2.9998212)"
           id="g68"><text
             id="text72"
             style="font-variant:normal;font-weight:normal;font-size:8px;font-family:LiberationSans;-inkscape-font-specification:LiberationSans;writing-mode:lr-tb;fill:#ffffff;fill-opacity:1;fill-rule:nonzero;stroke:none"
             transform="translate(137.54687,39)"><tspan
               id="tspan70"
               y="0"
               x="0 6.2226562 10.671875 12.894531 14.671875 21.335938 25.785156 27.5625 32.898438 37.347656 39.125 43.574219 45.796875 47.574219 52.023438 56.472656 60.472656 65.808594 70.257812 74.707031 80.929688 85.378906 87.15625 91.605469 95.605469 97.828125 99.605469 103.60547 108.05469 112.79688 117.24609 119.02344 123.47266 127.92188">OptimalSolutionsAndObjectiveValues</tspan></text>
</g><g
           transform="matrix(2.9998212,0,0,2.9998212,1.4999106,1.4999106)"
           id="g74"><path
             id="path76"
             style="fill:none;stroke:#000000;stroke-width:1;stroke-linecap:butt;stroke-linejoin:miter;stroke-miterlimit:10;stroke-dasharray:none;stroke-opacity:1"
             d="M 391.07999,39 H 436.63" /><path
             id="path78"
             style="fill:#000000;fill-opacity:1;fill-rule:nonzero;stroke:none"
             d="m 438.88,39 -3,1.5 0.75,-1.5 -0.75,-1.5 z" /><path
             id="path80"
             style="fill:none;stroke:#000000;stroke-width:1;stroke-linecap:butt;stroke-linejoin:miter;stroke-miterlimit:10;stroke-dasharray:none;stroke-opacity:1"
             d="m 438.88,39 -3,1.5 0.75,-1.5 -0.75,-1.5 z" /><path
             id="path82"
             style="fill:none;stroke:#000000;stroke-width:1;stroke-linecap:butt;stroke-linejoin:miter;stroke-miterlimit:10;stroke-dasharray:none;stroke-opacity:1"
             d="M 391,32.5 V 34 h 19 V 19 h 190 v 15 h 10 l 5.19,0.02" /><path
             id="path84"
             style="fill:#000000;fill-opacity:1;fill-rule:nonzero;stroke:none"
             d="m 617.44,34.029999 -3,1.490001 0.75,-1.5 -0.73999,-1.5 z" /><path
             id="path86"
             style="fill:none;stroke:#000000;stroke-width:1;stroke-linecap:butt;stroke-linejoin:miter;stroke-miterlimit:10;stroke-dasharray:none;stroke-opacity:1"
             d="m 617.44,34.029999 -3,1.490001 0.75,-1.5 -0.73999,-1.5 z" /><path
             id="path88"
             style="fill:#636eff;fill-opacity:1;fill-rule:nonzero;stroke:none"
             d="m 313.10001,29 h 75.79998 c 0.27845,0 0.5463,0.05328 0.80359,0.159851 0.2573,0.106566 0.48441,0.258307 0.68134,0.455221 0.1969,0.196913 0.34863,0.424008 0.45517,0.681288 0.1066,0.25728 0.15988,0.52516 0.15991,0.80364 v 9.800002 c -3e-5,0.278476 -0.0533,0.546352 -0.15991,0.80363 -0.10654,0.257283 -0.25827,0.484379 -0.45517,0.68129 -0.19693,0.196911 -0.42404,0.348648 -0.68131,0.455219 -0.25729,0.106571 -0.52517,0.159855 -0.80362,0.159859 h -75.79998 c -0.27851,-4e-6 -0.54639,-0.05329 -0.80368,-0.159859 -0.25727,-0.106571 -0.48435,-0.258308 -0.68128,-0.455219 -0.19693,-0.196911 -0.34866,-0.424007 -0.45523,-0.68129 C 311.05325,41.446354 310.99997,41.178478 311,40.900002 V 31.1 c -3e-5,-0.27848 0.0532,-0.54636 0.15982,-0.80364 0.10657,-0.25728 0.2583,-0.484375 0.45523,-0.681288 0.19693,-0.196914 0.42401,-0.348655 0.68128,-0.455221 C 312.55362,29.053284 312.8215,29 313.10001,29 Z" /></g><g
           transform="scale(2.9998212)"
           id="g90"><text
             id="text94"
             style="font-variant:normal;font-weight:normal;font-size:8px;font-family:LiberationSans;-inkscape-font-specification:LiberationSans;writing-mode:lr-tb;fill:#ffffff;fill-opacity:1;fill-rule:nonzero;stroke:none"
             transform="translate(319.42188,39)"><tspan
               id="tspan92"
               y="0"
               x="0 5.3359375 9.7851562 11.5625 16.011719 18.234375 20.011719 24.460938 28.910156 34.246094 38.695312 43.144531 45.808594 50.257812 54.707031 58.707031">SolutionApproach</tspan></text>
</g><g
           transform="matrix(2.9998212,0,0,2.9998212,1.4999106,1.4999106)"
           id="g96"><path
             id="path98"
             style="fill:none;stroke:#000000;stroke-width:1;stroke-linecap:butt;stroke-linejoin:miter;stroke-miterlimit:10;stroke-dasharray:none;stroke-opacity:1"
             d="m 580,37 h 34.63" /><path
             id="path100"
             style="fill:#000000;fill-opacity:1;fill-rule:nonzero;stroke:none"
             d="m 616.88,37 -3,1.5 0.75,-1.5 -0.75,-1.5 z" /><path
             id="path102"
             style="fill:none;stroke:#000000;stroke-width:1;stroke-linecap:butt;stroke-linejoin:miter;stroke-miterlimit:10;stroke-dasharray:none;stroke-opacity:1"
             d="m 616.88,37 -3,1.5 0.75,-1.5 -0.75,-1.5 z" /><path
             id="path104"
             style="fill:#7aa860;fill-opacity:1;fill-rule:nonzero;stroke:none"
             d="m 443.10001,29 h 134.80001 c 0.27845,0 0.54633,0.05328 0.80359,0.159851 0.25727,0.106566 0.48432,0.258307 0.68128,0.455221 0.19696,0.196913 0.34869,0.424008 0.4552,0.681288 0.10657,0.25728 0.15985,0.52516 0.15991,0.80364 v 9.800002 c -6e-5,0.278476 -0.0533,0.546352 -0.15991,0.80363 -0.10651,0.257283 -0.25824,0.484379 -0.4552,0.68129 -0.19696,0.196911 -0.42401,0.348648 -0.68128,0.455219 -0.25726,0.106571 -0.52514,0.159855 -0.80359,0.159859 H 443.10001 c -0.27854,-4e-6 -0.54642,-0.05329 -0.80368,-0.159859 -0.2573,-0.106571 -0.48438,-0.258308 -0.68128,-0.455219 -0.19693,-0.196911 -0.34869,-0.424007 -0.45523,-0.68129 -0.1066,-0.257278 -0.15985,-0.525154 -0.15982,-0.80363 L 441,31.1 c -3e-5,-0.27848 0.0532,-0.54636 0.15982,-0.80364 0.10654,-0.25728 0.2583,-0.484375 0.45523,-0.681288 0.1969,-0.196914 0.42398,-0.348655 0.68125,-0.455221 C 442.55359,29.053284 442.82147,29 443.10001,29 Z" /></g><g
           transform="scale(2.9998212)"
           id="g106"><text
             id="text110"
             style="font-variant:normal;font-weight:normal;font-size:8px;font-family:LiberationSans;-inkscape-font-specification:LiberationSans;writing-mode:lr-tb;fill:#ffffff;fill-opacity:1;fill-rule:nonzero;stroke:none"
             transform="translate(444.23438,39)"><tspan
               id="tspan108"
               y="0"
               x="0 6.2226562 10.671875 15.121094 19.570312 22.234375 26.683594 28.90625 33.355469 38.691406 43.140625 44.917969 49.367188 51.589844 53.367188 57.816406 62.265625 66.265625 71.152344 75.601562 78.265625 83.601562 86.265625 90.714844 95.164062 96.941406 100.94141 103.16406 107.61328 112.0625 117.83984 122.28906 126.28906 128.51172">GenerateSolutionsForPredictedCosts</tspan></text>
</g><g
           transform="matrix(2.9998212,0,0,2.9998212,1.4999106,1.4999106)"
           id="g112"><path
             id="path114"
             style="fill:#7aa860;fill-opacity:1;fill-rule:nonzero;stroke:none"
             d="m 620.09998,29 h 75.80004 c 0.27839,0 0.54627,0.05328 0.80353,0.159851 0.25727,0.106566 0.48438,0.258307 0.68134,0.455221 0.19684,0.196913 0.34857,0.424008 0.45514,0.681288 0.10663,0.25728 0.15991,0.52516 0.15997,0.80364 v 9.800002 c -6e-5,0.278476 -0.0533,0.546352 -0.15997,0.80363 -0.10657,0.257283 -0.2583,0.484379 -0.45514,0.68129 -0.19696,0.196911 -0.42407,0.348648 -0.68134,0.455219 -0.25726,0.106571 -0.52514,0.159855 -0.80353,0.159859 h -75.80004 c -0.27851,-4e-6 -0.54645,-0.05329 -0.80372,-0.159859 -0.25726,-0.106571 -0.48437,-0.258308 -0.68121,-0.455219 -0.19696,-0.196911 -0.34875,-0.424007 -0.45526,-0.68129 C 618.05322,41.446354 617.99994,41.178478 618,40.900002 V 31.1 c -6e-5,-0.27848 0.0532,-0.54636 0.15979,-0.80364 0.10651,-0.25728 0.2583,-0.484375 0.45526,-0.681288 0.19684,-0.196914 0.42389,-0.348655 0.68115,-0.455221 C 619.55353,29.053284 619.82147,29 620.09998,29 Z" /></g><g
           transform="scale(2.9998212)"
           id="g116"><text
             id="text120"
             style="font-variant:normal;font-weight:normal;font-size:8px;font-family:LiberationSans;-inkscape-font-specification:LiberationSans;writing-mode:lr-tb;fill:#ffffff;fill-opacity:1;fill-rule:nonzero;stroke:none"
             transform="translate(639.3125,39)"><tspan
               id="tspan118"
               y="0"
               x="0 5.3359375 9.3359375 13.785156 15.5625 20.011719 24.460938 26.683594 28.460938 32.910156">Evaluation</tspan></text>
</g><g
           transform="matrix(2.9998212,0,0,2.9998212,1.4999106,1.4999106)"
           id="g122"><path
             id="path124"
             style="fill:#7a7a7a;fill-opacity:1;fill-rule:nonzero;stroke:none"
             d="m 323.5,77 v -3 h 1 v 3 z m 0,-6 v -2.5 h 1.5 v 1 h -1 V 69 h 0.5 v 2 z m 4.5,-2.5 h 3 v 1 h -3 z m 2.5,-2.5 v -3 h 1 v 3 z m 0,-6 v -3 h 1 v 3 z m 0,-6 v -3 h 1 v 3 z m 0,-6 v -1.630001 h 1 V 48 Z" /><path
             id="path126"
             style="fill:#7a7a7a;fill-opacity:1;fill-rule:nonzero;stroke:none"
             d="m 331,44.119999 1.5,3 -1.5,-0.75 -1.5,0.75 z" /><path
             id="path128"
             style="fill:none;stroke:#7a7a7a;stroke-width:1;stroke-linecap:butt;stroke-linejoin:miter;stroke-miterlimit:10;stroke-dasharray:none;stroke-opacity:1"
             d="m 331,44.119999 1.5,3 -1.5,-0.75 -1.5,0.75 z" /><path
             id="path130"
             style="fill:#636eff;fill-opacity:1;fill-rule:nonzero;stroke:none"
             d="m 290.10001,77 h 67.79998 c 0.27848,0 0.54633,0.05328 0.80359,0.159843 0.25727,0.106575 0.48438,0.258316 0.68131,0.455231 0.19693,0.196907 0.34866,0.424004 0.4552,0.681282 0.1066,0.257279 0.15991,0.525162 0.15991,0.803642 v 9.800004 c 0,0.278465 -0.0533,0.54634 -0.15988,0.803619 -0.10657,0.257278 -0.2583,0.484375 -0.45523,0.681297 -0.19693,0.196907 -0.42404,0.348648 -0.68131,0.455223 -0.25726,0.10656 -0.52511,0.159851 -0.80359,0.159859 h -67.79998 c -0.27848,-8e-6 -0.54639,-0.0533 -0.80371,-0.159866 -0.25727,-0.106575 -0.48435,-0.258309 -0.68125,-0.455216 -0.19693,-0.196922 -0.34866,-0.424019 -0.45523,-0.681297 C 288.05325,89.446342 287.99997,89.178467 288,88.900002 v -9.800004 c -3e-5,-0.27848 0.0532,-0.546363 0.15982,-0.803642 0.10657,-0.257278 0.2583,-0.484375 0.45523,-0.681282 0.1969,-0.196915 0.42398,-0.348656 0.68128,-0.455231 C 289.55362,77.053284 289.82153,77 290.10001,77 Z" /></g><g
           transform="scale(2.9998212)"
           id="g132"><text
             id="text136"
             style="font-variant:normal;font-weight:normal;font-size:8px;font-family:LiberationSans;-inkscape-font-specification:LiberationSans;writing-mode:lr-tb;fill:#ffffff;fill-opacity:1;fill-rule:nonzero;stroke:none"
             transform="translate(289.96875,87)"><tspan
               id="tspan134"
               y="0"
               x="0 5.3359375 9.7851562 14.234375 18.234375 22.683594 28.019531 32.46875 36.917969 41.367188 45.816406 50.265625 52.929688 57.378906 59.15625 63.605469">EndToEndLearning</tspan></text>
</g><g
           transform="matrix(2.9998212,0,0,2.9998212,1.4999106,1.4999106)"
           id="g138"><path
             id="path140"
             style="fill:#7a7a7a;fill-opacity:1;fill-rule:nonzero;stroke:none"
             d="m 410.5,76 v -3 h 1 v 3 z m 0,-6 v -1 h 0.5 v 0.5 h -2 v -1 h 2.5 V 70 Z M 406,69.5 h -3 v -1 h 3 z m -6,0 h -3 v -1 h 3 z m -6,0 h -3 v -1 h 3 z m -6,0 h -3 v -1 h 3 z m -6,0 h -3 v -1 h 3 z m -6,0 h -3 v -1 h 3 z M 370.5,68 v -3 h 1 v 3 z m 0,-6 v -3 h 1 v 3 z m 0,-5.999996 V 53 h 1 v 3.000004 z m 0,-6 v -3 h 1 v 3 z" /><path
             id="path142"
             style="fill:#7a7a7a;fill-opacity:1;fill-rule:nonzero;stroke:none"
             d="m 371,44.119999 1.5,3 -1.5,-0.75 -1.5,0.75 z" /><path
             id="path144"
             style="fill:none;stroke:#7a7a7a;stroke-width:1;stroke-linecap:butt;stroke-linejoin:miter;stroke-miterlimit:10;stroke-dasharray:none;stroke-opacity:1"
             d="m 371,44.119999 1.5,3 -1.5,-0.75 -1.5,0.75 z" /><path
             id="path146"
             style="fill:#636eff;fill-opacity:1;fill-rule:nonzero;stroke:none"
             d="m 367.10001,76 h 78.79998 c 0.27845,0 0.54633,0.05328 0.80362,0.159851 0.25727,0.106567 0.48435,0.258308 0.68128,0.455223 0.1969,0.196907 0.34863,0.424004 0.4552,0.681282 0.10657,0.257279 0.15988,0.525162 0.15991,0.803642 v 9.800004 c -3e-5,0.278465 -0.0533,0.54634 -0.15991,0.803627 -0.10657,0.25727 -0.2583,0.484367 -0.4552,0.681289 -0.19693,0.196915 -0.42401,0.348656 -0.68128,0.455216 C 446.44632,89.946709 446.17844,90 445.89999,90 h -78.79998 c -0.27851,0 -0.54639,-0.05328 -0.80368,-0.159859 -0.2573,-0.106567 -0.48438,-0.258308 -0.68128,-0.455223 -0.19693,-0.196922 -0.34869,-0.424019 -0.45523,-0.681289 C 365.05328,88.446342 365,88.178467 365,87.900002 v -9.800004 c 0,-0.27848 0.0533,-0.546363 0.15982,-0.803642 0.10654,-0.257278 0.2583,-0.484375 0.45523,-0.681282 0.1969,-0.196915 0.42398,-0.348656 0.68125,-0.455223 C 366.55359,76.053284 366.8215,76 367.10001,76 Z" /></g><g
           transform="scale(2.9998212)"
           id="g148"><text
             id="text152"
             style="font-variant:normal;font-weight:normal;font-size:8px;font-family:LiberationSans;-inkscape-font-specification:LiberationSans;writing-mode:lr-tb;fill:#ffffff;fill-opacity:1;fill-rule:nonzero;stroke:none"
             transform="translate(388.70313,86)"><tspan
               id="tspan150"
               y="0"
               x="0 4.4453125 10.222656 14.671875 20.007812 22.230469 26.679688 31.128906">TwoStage</tspan></text>
</g><g
           transform="matrix(2.9998212,0,0,2.9998212,1.4999106,1.4999106)"
           id="g154"><path
             id="path156"
             style="fill:#636eff;fill-opacity:1;fill-rule:nonzero;stroke:none"
             d="m 367.10001,108 h 78.79998 c 0.27845,0 0.54633,0.0533 0.80362,0.15984 0.25727,0.10657 0.48435,0.25831 0.68128,0.45523 0.1969,0.1969 0.34863,0.424 0.4552,0.68128 0.10657,0.25729 0.15988,0.52517 0.15991,0.80365 v 9.8 c -3e-5,0.27847 -0.0533,0.54634 -0.15991,0.80361 -0.10657,0.25729 -0.2583,0.48439 -0.4552,0.68131 -0.19693,0.19691 -0.42401,0.34865 -0.68128,0.45521 -0.25729,0.10658 -0.52517,0.15986 -0.80362,0.15987 h -78.79998 c -0.27851,-1e-5 -0.54639,-0.0533 -0.80368,-0.15987 -0.2573,-0.10656 -0.48438,-0.2583 -0.68128,-0.45521 -0.19693,-0.19692 -0.34869,-0.42402 -0.45523,-0.68131 C 365.05328,120.44634 365,120.17847 365,119.9 v -9.8 c 0,-0.27848 0.0533,-0.54636 0.15982,-0.80364 0.10654,-0.25729 0.2583,-0.48439 0.45523,-0.68129 0.1969,-0.19692 0.42398,-0.34866 0.68125,-0.45523 C 366.55359,108.05328 366.8215,108 367.10001,108 Z" /></g><g
           transform="scale(2.9998212)"
           id="g158"><text
             id="text162"
             style="font-variant:normal;font-weight:normal;font-size:8px;font-family:LiberationSans;-inkscape-font-specification:LiberationSans;writing-mode:lr-tb;fill:#ffffff;fill-opacity:1;fill-rule:nonzero;stroke:none"
             transform="translate(365.8125,118)"><tspan
               id="tspan160"
               y="0"
               x="0 6.6640625 11.113281 12.890625 15.113281 16.890625 23.113281 27.5625 29.785156 34.234375 38.683594 40.90625 46.683594 51.132812 55.582031 58.246094 62.695312 66.695312 70.695312 72.472656 76.921875">MultiOutputRegression</tspan></text>
</g><g
           transform="matrix(2.9998212,0,0,2.9998212,1.4999106,1.4999106)"
           id="g164"><path
             id="path166"
             style="fill:#7aa860;fill-opacity:1;fill-rule:nonzero;stroke:none"
             d="m 291.10001,109 h 66.79998 c 0.27848,0 0.54633,0.0533 0.80359,0.15985 0.25727,0.10656 0.48438,0.2583 0.68131,0.45522 0.19693,0.1969 0.34866,0.424 0.4552,0.68129 C 359.94669,110.55363 360,110.82151 360,111.1 v 9.8 c 0,0.27847 -0.0533,0.54634 -0.15988,0.80362 -0.10657,0.25728 -0.2583,0.48438 -0.45523,0.6813 -0.19693,0.19691 -0.42404,0.34864 -0.68131,0.45521 -0.25726,0.10657 -0.52511,0.15986 -0.80359,0.15987 h -66.79998 c -0.27851,-1e-5 -0.54639,-0.0533 -0.80365,-0.15987 -0.2573,-0.10657 -0.48441,-0.2583 -0.68131,-0.45521 -0.19693,-0.19692 -0.34869,-0.42402 -0.45523,-0.6813 C 289.05325,121.44634 288.99997,121.17847 289,120.9 v -9.8 c -3e-5,-0.27849 0.0532,-0.54637 0.15982,-0.80365 0.10654,-0.25729 0.2583,-0.48438 0.45523,-0.68128 0.1969,-0.19693 0.42401,-0.34867 0.68131,-0.45523 C 290.55362,109.05328 290.8215,109 291.10001,109 Z" /></g><g
           transform="scale(2.9998212)"
           id="g168"><text
             id="text172"
             style="font-variant:normal;font-weight:normal;font-size:8px;font-family:LiberationSans;-inkscape-font-specification:LiberationSans;writing-mode:lr-tb;fill:#ffffff;fill-opacity:1;fill-rule:nonzero;stroke:none"
             transform="translate(308.26563,119)"><tspan
               id="tspan170"
               y="0"
               x="0 5.3359375 10.671875 16.894531 22.230469 24.007812 28.457031">SPOPlus</tspan></text>
</g><g
           transform="matrix(2.9998212,0,0,2.9998212,1.4999106,1.4999106)"
           id="g174"><path
             id="path176"
             style="fill:#7aa860;fill-opacity:1;fill-rule:nonzero;stroke:none"
             d="m 497.10001,152 h 75.80001 c 0.27845,0 0.54633,0.0533 0.80359,0.15984 0.25727,0.10656 0.48432,0.2583 0.68128,0.45521 0.19696,0.19692 0.34869,0.42403 0.4552,0.68131 0.10657,0.25727 0.15985,0.52516 0.15991,0.80365 v 9.79998 c -6e-5,0.27846 -0.0533,0.54634 -0.15991,0.80362 -0.10651,0.25727 -0.25824,0.48436 -0.4552,0.68129 -0.19696,0.19692 -0.42401,0.34865 -0.68128,0.45523 -0.25726,0.10657 -0.52514,0.15985 -0.80359,0.15987 h -75.80001 c -0.27851,-2e-5 -0.54639,-0.0533 -0.80368,-0.15987 -0.2573,-0.10658 -0.48441,-0.25831 -0.68128,-0.45523 -0.19696,-0.19693 -0.34872,-0.42402 -0.45529,-0.68129 -0.10654,-0.25728 -0.15979,-0.52516 -0.15976,-0.80362 v -9.79998 c -3e-5,-0.27849 0.0532,-0.54638 0.15976,-0.80365 0.10654,-0.25728 0.2583,-0.48438 0.45526,-0.68129 0.1969,-0.19692 0.42398,-0.34867 0.68128,-0.45523 C 496.55359,152.05328 496.8215,152 497.10001,152 Z" /></g><g
           transform="scale(2.9998212)"
           id="g178"><text
             id="text182"
             style="font-variant:normal;font-weight:normal;font-size:8px;font-family:LiberationSans;-inkscape-font-specification:LiberationSans;writing-mode:lr-tb;fill:#ffffff;fill-opacity:1;fill-rule:nonzero;stroke:none"
             transform="translate(496.01563,162)"><tspan
               id="tspan180"
               y="0"
               x="0 4.4492188 6.2265625 10.675781 15.125 17.347656 23.570312 28.90625">LightGBM</tspan></text>
<text
             id="text186"
             style="font-variant:normal;font-weight:normal;font-size:8px;font-family:LiberationSans;-inkscape-font-specification:LiberationSans;writing-mode:lr-tb;fill:#ffffff;fill-opacity:1;fill-rule:nonzero;stroke:none"
             transform="translate(531.59375,162)"><tspan
               id="tspan184"
               y="0"
               x="0 4.4492188 6.2265625 10.675781 15.125 19.574219 22.238281 26.828125 29.492188 33.941406 38.390625">LinearTrees</tspan></text>
</g><g
           transform="matrix(2.9998212,0,0,2.9998212,1.4999106,1.4999106)"
           id="g188"><path
             id="path190"
             style="fill:#7a7a7a;fill-opacity:1;fill-rule:nonzero;stroke:none"
             d="m 448.5,152 v -3 h 1 v 3 z m 1.5,-4.5 h -3 v -1 h 3 z m -6,0 h -3 v -1 h 3 z m -6,0 h -3 v -1 h 3 z m -6,0 h -3 v -1 h 3 z m -6,0 h -3 v -1 h 3 z m -6,0 h -3 v -1 h 3 z m -6.2998,-0.70047 0.003,-3 1,9.2e-4 -0.003,3 z m 0.006,-6 0.003,-3 1,9.2e-4 -0.003,3 z m 0.006,-6 0.003,-3 1,9.2e-4 -0.003,3 z m 0.006,-6.00002 0.003,-2.99998 1,9.3e-4 -0.003,3 z" /><path
             id="path192"
             style="fill:#7a7a7a;fill-opacity:1;fill-rule:nonzero;stroke:none"
             d="m 414.22,123.24 1.5,3.01 -1.5,-0.76 -1.5,0.75 z" /><path
             id="path194"
             style="fill:none;stroke:#7a7a7a;stroke-width:1;stroke-linecap:butt;stroke-linejoin:miter;stroke-miterlimit:10;stroke-dasharray:none;stroke-opacity:1"
             d="m 414.22,123.24 1.5,3.01 -1.5,-0.76 -1.5,0.75 z" /><path
             id="path196"
             style="fill:#7aa860;fill-opacity:1;fill-rule:nonzero;stroke:none"
             d="m 411.10001,152 h 75.79998 c 0.27845,0 0.5463,0.0533 0.80359,0.15984 0.25727,0.10656 0.48438,0.2583 0.68131,0.45521 0.1969,0.19692 0.34863,0.42403 0.45517,0.68131 0.1066,0.25727 0.15991,0.52516 0.15994,0.80365 v 9.79998 c -3e-5,0.27846 -0.0533,0.54634 -0.15991,0.80362 -0.10657,0.25727 -0.2583,0.48436 -0.4552,0.68129 -0.19693,0.19692 -0.42404,0.34865 -0.68131,0.45523 -0.25729,0.10657 -0.52514,0.15985 -0.80359,0.15987 h -75.79998 c -0.27854,-2e-5 -0.54642,-0.0533 -0.80371,-0.15987 -0.25727,-0.10658 -0.48435,-0.25831 -0.68125,-0.45523 -0.19693,-0.19693 -0.34869,-0.42402 -0.45526,-0.68129 -0.10657,-0.25728 -0.15982,-0.52516 -0.15979,-0.80362 v -9.79998 c -3e-5,-0.27849 0.0532,-0.54638 0.15979,-0.80365 0.10657,-0.25728 0.25833,-0.48438 0.45526,-0.68129 0.1969,-0.19692 0.42398,-0.34867 0.68125,-0.45523 C 410.55359,152.05328 410.82147,152 411.10001,152 Z" /></g><g
           transform="scale(2.9998212)"
           id="g198"><text
             id="text202"
             style="font-variant:normal;font-weight:normal;font-size:8px;font-family:LiberationSans;-inkscape-font-specification:LiberationSans;writing-mode:lr-tb;fill:#ffffff;fill-opacity:1;fill-rule:nonzero;stroke:none"
             transform="translate(431.20313,162)"><tspan
               id="tspan200"
               y="0"
               x="0 4.4492188 6.2265625 10.675781 15.125 17.347656 23.570312 28.90625">LightGBM</tspan></text>
</g><g
           transform="matrix(2.9998212,0,0,2.9998212,1.4999106,1.4999106)"
           id="g204"><path
             id="path206"
             style="fill:#7a7a7a;fill-opacity:1;fill-rule:nonzero;stroke:none"
             d="m 363.5,152 v -3 h 1 v 3 z m 3.5,-3.5 h 3 v 1 h -3 z m 6,0 h 3 v 1 h -3 z m 6,0 h 3 v 1 h -3 z m 6,0 h 3 v 1 h -3 z m 6,0 h 2 v 0.5 h -0.5 v -1 h 1 v 1.5 H 391 Z m 1.5,-3.5 v -3 h 1 v 3 z m 1.8e-4,-6.01395 0.0837,-2.99884 0.99964,0.0279 -0.0837,2.99884 z m 0.16733,-5.99766 0.0837,-2.99883 0.99963,0.0279 -0.0837,2.99882 -0.99963,-0.0279 z m 0.16736,-5.99766 0.0453,-1.62467 0.99963,0.0279 -0.0453,1.62467 z" /><path
             id="path208"
             style="fill:#7a7a7a;fill-opacity:1;fill-rule:nonzero;stroke:none"
             d="m 393.44,123.13 1.41001,3.04 -1.47001,-0.79 -1.52001,0.71 z" /><path
             id="path210"
             style="fill:none;stroke:#7a7a7a;stroke-width:1;stroke-linecap:butt;stroke-linejoin:miter;stroke-miterlimit:10;stroke-dasharray:none;stroke-opacity:1"
             d="m 393.44,123.13 1.41001,3.04 -1.47001,-0.79 -1.52001,0.71 z" /><path
             id="path212"
             style="fill:#7aa860;fill-opacity:1;fill-rule:nonzero;stroke:none"
             d="m 326.10001,152 h 75.79998 c 0.27848,0 0.54633,0.0533 0.80359,0.15984 0.2573,0.10656 0.48441,0.2583 0.68134,0.45521 0.19687,0.19692 0.3486,0.42403 0.45517,0.68131 0.1066,0.25727 0.15988,0.52516 0.15991,0.80365 v 9.79998 c -3e-5,0.27846 -0.0533,0.54634 -0.15991,0.80362 -0.10657,0.25727 -0.2583,0.48436 -0.45517,0.68129 -0.19693,0.19692 -0.42404,0.34865 -0.68131,0.45523 -0.25729,0.10657 -0.52514,0.15985 -0.80362,0.15987 h -75.79998 c -0.27851,-2e-5 -0.54639,-0.0533 -0.80365,-0.15987 -0.2573,-0.10658 -0.48438,-0.25831 -0.68131,-0.45523 -0.19693,-0.19693 -0.34866,-0.42402 -0.45523,-0.68129 -0.1066,-0.25728 -0.15985,-0.52516 -0.15982,-0.80362 v -9.79998 c -3e-5,-0.27849 0.0532,-0.54638 0.15982,-0.80365 0.10657,-0.25728 0.2583,-0.48438 0.45523,-0.68129 0.19693,-0.19692 0.42401,-0.34867 0.68131,-0.45523 C 325.55362,152.05328 325.8215,152 326.10001,152 Z" /></g><g
           transform="scale(2.9998212)"
           id="g214"><text
             id="text218"
             style="font-variant:normal;font-weight:normal;font-size:8px;font-family:LiberationSans;-inkscape-font-specification:LiberationSans;writing-mode:lr-tb;fill:#ffffff;fill-opacity:1;fill-rule:nonzero;stroke:none"
             transform="translate(332.64063,162)"><tspan
               id="tspan216"
               y="0"
               x="0 4.4492188 6.2265625 10.675781 15.125 19.574219 22.238281 28.015625 32.464844 36.914062 39.578125 44.027344 48.027344 52.027344 53.804688 58.253906">LinearRegression</tspan></text>
</g><g
           transform="matrix(2.9998212,0,0,2.9998212,1.4999106,1.4999106)"
           id="g220"><path
             id="path222"
             style="fill:#7aa860;fill-opacity:1;fill-rule:nonzero;stroke:none"
             d="m 241.10001,152 h 75.79998 c 0.27845,0 0.5463,0.0533 0.80359,0.15984 0.2573,0.10656 0.48441,0.2583 0.68134,0.45521 0.19693,0.19692 0.34866,0.42403 0.4552,0.68131 0.10657,0.25727 0.15985,0.52516 0.15988,0.80365 v 9.79998 c -3e-5,0.27846 -0.0533,0.54634 -0.15988,0.80362 -0.10654,0.25727 -0.25827,0.48436 -0.4552,0.68129 -0.19693,0.19692 -0.42404,0.34865 -0.68131,0.45523 -0.25729,0.10657 -0.52517,0.15985 -0.80362,0.15987 h -75.79998 c -0.27851,-2e-5 -0.54639,-0.0533 -0.80367,-0.15987 -0.25728,-0.10658 -0.48437,-0.25831 -0.68127,-0.45523 -0.19692,-0.19693 -0.34865,-0.42402 -0.45523,-0.68129 -0.10657,-0.25728 -0.15986,-0.52516 -0.15984,-0.80362 v -9.79998 c -2e-5,-0.27849 0.0533,-0.54638 0.15984,-0.80365 0.10658,-0.25728 0.25831,-0.48438 0.45523,-0.68129 0.1969,-0.19692 0.42399,-0.34867 0.68129,-0.45523 C 240.55362,152.05328 240.8215,152 241.10001,152 Z" /></g><g
           transform="scale(2.9998212)"
           id="g224"><text
             id="text228"
             style="font-variant:normal;font-weight:normal;font-size:8px;font-family:LiberationSans;-inkscape-font-specification:LiberationSans;writing-mode:lr-tb;fill:#ffffff;fill-opacity:1;fill-rule:nonzero;stroke:none"
             transform="translate(252.53125,162)"><tspan
               id="tspan226"
               y="0"
               x="0 5.7773438 10.226562 14.675781 19.125 23.574219 30.238281 35.125 39.574219 42.238281 46.6875 50.6875">RandomForest</tspan></text>
</g><g
           transform="matrix(2.9998212,0,0,2.9998212,1.4999106,1.4999106)"
           id="g230"><path
             id="path232"
             style="fill:none;stroke:#000000;stroke-width:1;stroke-linecap:butt;stroke-linejoin:miter;stroke-miterlimit:10;stroke-dasharray:none;stroke-opacity:1"
             d="m 90,36 h 20 V 19 h 190 v 17 h 7.63" /><path
             id="path234"
             style="fill:#000000;fill-opacity:1;fill-rule:nonzero;stroke:none"
             d="m 309.88,36 -3,1.5 0.75,-1.5 -0.75,-1.5 z" /><path
             id="path236"
             style="fill:none;stroke:#000000;stroke-width:1;stroke-linecap:butt;stroke-linejoin:miter;stroke-miterlimit:10;stroke-dasharray:none;stroke-opacity:1"
             d="m 309.88,36 -3,1.5 0.75,-1.5 -0.75,-1.5 z" /><path
             id="path238"
             style="fill:none;stroke:#000000;stroke-width:1;stroke-linecap:butt;stroke-linejoin:miter;stroke-miterlimit:10;stroke-dasharray:none;stroke-opacity:1"
             d="m 270,39.5 h 10 V 116 h 5.63" /><path
             id="path240"
             style="fill:#000000;fill-opacity:1;fill-rule:nonzero;stroke:none"
             d="m 287.88,116 -3,1.5 0.75,-1.5 -0.75,-1.5 z" /><path
             id="path242"
             style="fill:none;stroke:#000000;stroke-width:1;stroke-linecap:butt;stroke-linejoin:miter;stroke-miterlimit:10;stroke-dasharray:none;stroke-opacity:1"
             d="m 287.88,116 -3,1.5 0.75,-1.5 -0.75,-1.5 z" /><path
             id="path244"
             style="fill:none;stroke:#000000;stroke-width:1;stroke-linecap:butt;stroke-linejoin:miter;stroke-miterlimit:10;stroke-dasharray:none;stroke-opacity:1"
             d="m 90,32.5 h 10 V 9 h 510 v 22 l 4.54999,0.03" /><path
             id="path246"
             style="fill:#000000;fill-opacity:1;fill-rule:nonzero;stroke:none"
             d="M 616.79999,31.040001 613.78998,32.52 614.54999,31.030001 613.81,29.52 Z" /><path
             id="path248"
             style="fill:none;stroke:#000000;stroke-width:1;stroke-linecap:butt;stroke-linejoin:miter;stroke-miterlimit:10;stroke-dasharray:none;stroke-opacity:1"
             d="M 616.79999,31.040001 613.78998,32.52 614.54999,31.030001 613.81,29.52 Z" /><path
             id="path250"
             style="fill:#7a7a7a;fill-opacity:1;fill-rule:nonzero;stroke:none"
             d="m 535,151.5 h 1 v 0.5 h -0.5 v -2 h 1 v 2.5 H 535 Z m 0.5,-4.5 v -3 h 1 v 3 z m 0,-6 v -2 h 0.5 v 0.5 h -1 v -1 h 1.5 v 2.5 z m -3.5,-1.5 h -3 v -1 h 3 z m -6,0 h -3 v -1 h 3 z m -6,0 h -3 v -1 h 3 z m -6,0 h -3 v -1 h 3 z m -6,0 h -3 v -1 h 3 z m -6,0 h -3 v -1 h 3 z m -6,0 h -3 v -1 h 3 z m -6,0 h -3 v -1 h 3 z m -6,0 h -3 v -1 h 3 z m -6,0 h -3 v -1 h 3 z m -6,0 h -3 v -1 h 3 z m -6,0 h -3 v -1 h 3 z m -6,0 h -3 v -1 h 3 z m -6,0 h -3 v -1 h 3 z m -6,0 h -3 v -1 h 3 z m -6,0 h -3 v -1 h 3 z m -6,0 h -2.80069 l 0.002,-1.20071 1,10e-4 -9.8e-4,0.70001 -0.5,-7e-4 v -0.5 h 2.29999 v 1 z m -2.7948,-4.20071 0.004,-3 1,10e-4 -0.004,3 z m 0.008,-6 0.004,-2.99999 1,10e-4 -0.004,3 -1,-0.001 z" /><path
             id="path252"
             style="fill:#7a7a7a;fill-opacity:1;fill-rule:nonzero;stroke:none"
             d="m 433.72,122.49 1.5,3 -1.5,-0.75 -1.5,0.75 z" /><path
             id="path254"
             style="fill:none;stroke:#7a7a7a;stroke-width:1;stroke-linecap:butt;stroke-linejoin:miter;stroke-miterlimit:10;stroke-dasharray:none;stroke-opacity:1"
             d="m 433.72,122.49 1.5,3 -1.5,-0.75 -1.5,0.75 z" /><path
             id="path256"
             style="fill:#7a7a7a;fill-opacity:1;fill-rule:nonzero;stroke:none"
             d="m 278.5,152 v -3 h 1 v 3 z m 0,-6 v -3 h 1 v 3 z m 0,-6 v -1.5 h 2.5 v 1 h -2 V 139 h 0.5 v 1 z m 5.5,-1.5 h 3 v 1 h -3 z m 6,0 h 3 v 1 h -3 z m 6,0 h 3 v 1 h -3 z m 6,0 h 3 v 1 h -3 z m 6,0 h 3 v 1 h -3 z m 6,0 h 3 v 1 h -3 z m 6,0 h 3 v 1 h -3 z m 6,0 h 3 v 1 h -3 z m 6,0 h 3 v 1 h -3 z m 6,0 h 3 v 1 h -3 z m 6,0 h 3 v 1 h -3 z m 6,0 h 3 v 1 h -3 z m 6,0 h 3 v 1 h -3 z m 6,0 h 3 v 1 h -3 z m 6,0 h 3 v 1 h -3 z m 5.29999,0.29999 v -3 h 1 v 3 z m 0,-6 v -3 h 1 v 3 z m 0,-6 V 125.37 h 1 v 1.42999 z" /><path
             id="path258"
             style="fill:#7a7a7a;fill-opacity:1;fill-rule:nonzero;stroke:none"
             d="m 373.79999,123.12 1.5,3 -1.5,-0.75 -1.5,0.75 z" /><path
             id="path260"
             style="fill:none;stroke:#7a7a7a;stroke-width:1;stroke-linecap:butt;stroke-linejoin:miter;stroke-miterlimit:10;stroke-dasharray:none;stroke-opacity:1"
             d="m 373.79999,123.12 1.5,3 -1.5,-0.75 -1.5,0.75 z" /></g><g
           transform="scale(2.9998212)"
           id="g262"><path
             id="path264"
             style="fill:#ffffff;fill-opacity:1;fill-rule:nonzero;stroke:none"
             d="m 258,11 h 11 v 15 h -11 z" /><path
             id="path266"
             style="fill:#ffffff;fill-opacity:1;fill-rule:nonzero;stroke:none"
             d="m 258,13 h 11 v 9 h -11 z" /><text
             id="text270"
             style="font-variant:normal;font-weight:normal;font-size:8px;font-family:LiberationSerif;-inkscape-font-specification:LiberationSerif;writing-mode:lr-tb;fill:#666666;fill-opacity:1;fill-rule:nonzero;stroke:none"
             transform="translate(258.07813,20)"><tspan
               id="tspan268"
               y="0"
               x="0">y</tspan></text>
<text
             id="text274"
             style="font-variant:normal;font-weight:normal;font-size:6.65999985px;font-family:LiberationSerif;-inkscape-font-specification:LiberationSerif;writing-mode:lr-tb;fill:#666666;fill-opacity:1;fill-rule:nonzero;stroke:none"
             transform="translate(262.07813,22.59375)"><tspan
               id="tspan272"
               y="0"
               x="0 1.8493195 3.513382">t,v</tspan></text>
<path
             id="path276"
             style="fill:#ffffff;fill-opacity:1;fill-rule:nonzero;stroke:none"
             d="m 243,11 h 11 v 15 h -11 z" /><path
             id="path278"
             style="fill:#ffffff;fill-opacity:1;fill-rule:nonzero;stroke:none"
             d="m 243,13 h 11 v 9 h -11 z" /><text
             id="text282"
             style="font-variant:normal;font-weight:normal;font-size:8px;font-family:LiberationSerif;-inkscape-font-specification:LiberationSerif;writing-mode:lr-tb;fill:#666666;fill-opacity:1;fill-rule:nonzero;stroke:none"
             transform="translate(243.07813,20)"><tspan
               id="tspan280"
               y="0"
               x="0">x</tspan></text>
<text
             id="text286"
             style="font-variant:normal;font-weight:normal;font-size:6.65999985px;font-family:LiberationSerif;-inkscape-font-specification:LiberationSerif;writing-mode:lr-tb;fill:#666666;fill-opacity:1;fill-rule:nonzero;stroke:none"
             transform="translate(247.07813,22.59375)"><tspan
               id="tspan284"
               y="0"
               x="0 1.8493195 3.513382">t,v</tspan></text>
<path
             id="path288"
             style="fill:#ffffff;fill-opacity:1;fill-rule:nonzero;stroke:none"
             d="m 515,54 h 13 v 15 h -13 z" /><path
             id="path290"
             style="fill:#ffffff;fill-opacity:1;fill-rule:nonzero;stroke:none"
             d="m 515,56 h 13 v 9 h -13 z" /><text
             id="text294"
             style="font-variant:normal;font-weight:normal;font-size:8px;font-family:LiberationSerif;-inkscape-font-specification:LiberationSerif;writing-mode:lr-tb;fill:#666666;fill-opacity:1;fill-rule:nonzero;stroke:none"
             transform="translate(514.71875,63)"><tspan
               id="tspan292"
               y="0"
               x="0 4 8">obj</tspan></text>
<text
             id="text298"
             style="font-variant:normal;font-weight:normal;font-size:6.65999985px;font-family:LiberationSerif;-inkscape-font-specification:LiberationSerif;writing-mode:lr-tb;fill:#666666;fill-opacity:1;fill-rule:nonzero;stroke:none"
             transform="translate(524.95313,65.59375)"><tspan
               id="tspan296"
               y="0"
               x="0">v</tspan></text>
<path
             id="path300"
             style="fill:#ffffff;fill-opacity:1;fill-rule:nonzero;stroke:none"
             d="m 534,54 h 13 v 15 h -13 z" /><path
             id="path302"
             style="fill:#ffffff;fill-opacity:1;fill-rule:nonzero;stroke:none"
             d="m 534,56 h 13 v 9 h -13 z" /><text
             id="text306"
             style="font-variant:normal;font-weight:normal;font-size:8px;font-family:LiberationSerif;-inkscape-font-specification:LiberationSerif;writing-mode:lr-tb;fill:#666666;fill-opacity:1;fill-rule:nonzero;stroke:none"
             transform="translate(534.17188,63)"><tspan
               id="tspan304"
               y="0"
               x="0 3.1132812 7.1132812">sol</tspan></text>
<text
             id="text310"
             style="font-variant:normal;font-weight:normal;font-size:6.65999985px;font-family:LiberationSerif;-inkscape-font-specification:LiberationSerif;writing-mode:lr-tb;fill:#666666;fill-opacity:1;fill-rule:nonzero;stroke:none"
             transform="translate(543.51563,65.59375)"><tspan
               id="tspan308"
               y="0"
               x="0">v</tspan></text>
<path
             id="path312"
             style="fill:#ffffff;fill-opacity:1;fill-rule:nonzero;stroke:none"
             d="m 587,36 h 21 v 15 h -21 z" /><path
             id="path314"
             style="fill:#ffffff;fill-opacity:1;fill-rule:nonzero;stroke:none"
             d="m 587,38 h 21 v 9 h -21 z" /><text
             id="text318"
             style="font-variant:normal;font-weight:normal;font-size:8px;font-family:LiberationSerif;-inkscape-font-specification:LiberationSerif;writing-mode:lr-tb;fill:#666666;fill-opacity:1;fill-rule:nonzero;stroke:none"
             transform="translate(586.92188,45)"><tspan
               id="tspan316"
               y="0"
               x="0 3.1132812 7.1132812">sol</tspan></text>
<text
             id="text322"
             style="font-variant:normal;font-weight:normal;font-size:6.65999985px;font-family:LiberationSerif;-inkscape-font-specification:LiberationSerif;writing-mode:lr-tb;fill:#666666;fill-opacity:1;fill-rule:nonzero;stroke:none"
             transform="translate(596.26563,47.59375)"><tspan
               id="tspan320"
               y="0"
               x="0 3.328125 5.5447083 8.4990692">pred</tspan></text>
<path
             id="path324"
             style="fill:#ffffff;fill-opacity:1;fill-rule:nonzero;stroke:none"
             d="m 414,31 h 15 v 15 h -15 z" /><path
             id="path326"
             style="fill:#ffffff;fill-opacity:1;fill-rule:nonzero;stroke:none"
             d="m 414,33 h 15 v 9 h -15 z" /><text
             id="text330"
             style="font-variant:normal;font-weight:normal;font-size:8px;font-family:LiberationSerif;-inkscape-font-specification:LiberationSerif;writing-mode:lr-tb;fill:#666666;fill-opacity:1;fill-rule:nonzero;stroke:none"
             transform="translate(413.59375,40)"><tspan
               id="tspan328"
               y="0"
               x="0">y</tspan></text>
<text
             id="text334"
             style="font-variant:normal;font-weight:normal;font-size:6.65999985px;font-family:LiberationSerif;-inkscape-font-specification:LiberationSerif;writing-mode:lr-tb;fill:#666666;fill-opacity:1;fill-rule:nonzero;stroke:none"
             transform="translate(417.59375,42.59375)"><tspan
               id="tspan332"
               y="0"
               x="0 3.328125 5.5447083 8.4990692">pred</tspan></text>
<path
             id="path336"
             style="fill:#ffffff;fill-opacity:1;fill-rule:nonzero;stroke:none"
             d="m 271,63 h 17 v 15 h -17 z" /><path
             id="path338"
             style="fill:#ffffff;fill-opacity:1;fill-rule:nonzero;stroke:none"
             d="m 271,65 h 17 v 9 h -17 z" /><text
             id="text342"
             style="font-variant:normal;font-weight:normal;font-size:8px;font-family:LiberationSerif;-inkscape-font-specification:LiberationSerif;writing-mode:lr-tb;fill:#666666;fill-opacity:1;fill-rule:nonzero;stroke:none"
             transform="translate(270.96875,72)"><tspan
               id="tspan340"
               y="0"
               x="0 4 8">obj</tspan></text>
<text
             id="text346"
             style="font-variant:normal;font-weight:normal;font-size:6.65999985px;font-family:LiberationSerif;-inkscape-font-specification:LiberationSerif;writing-mode:lr-tb;fill:#666666;fill-opacity:1;fill-rule:nonzero;stroke:none"
             transform="translate(281.20313,74.59375)"><tspan
               id="tspan344"
               y="0"
               x="0 1.8493195 3.513382">t,v</tspan></text>
<path
             id="path348"
             style="fill:#ffffff;fill-opacity:1;fill-rule:nonzero;stroke:none"
             d="m 271,77 h 17 v 15 h -17 z" /><path
             id="path350"
             style="fill:#ffffff;fill-opacity:1;fill-rule:nonzero;stroke:none"
             d="m 271,79 h 17 v 9 h -17 z" /><text
             id="text354"
             style="font-variant:normal;font-weight:normal;font-size:8px;font-family:LiberationSerif;-inkscape-font-specification:LiberationSerif;writing-mode:lr-tb;fill:#666666;fill-opacity:1;fill-rule:nonzero;stroke:none"
             transform="translate(271.40625,86)"><tspan
               id="tspan352"
               y="0"
               x="0 3.1132812 7.1132812">sol</tspan></text>
<text
             id="text358"
             style="font-variant:normal;font-weight:normal;font-size:6.65999985px;font-family:LiberationSerif;-inkscape-font-specification:LiberationSerif;writing-mode:lr-tb;fill:#666666;fill-opacity:1;fill-rule:nonzero;stroke:none"
             transform="translate(280.75,88.59375)"><tspan
               id="tspan356"
               y="0"
               x="0 1.8493195 3.513382">t,v</tspan></text>
<path
             id="path360"
             style="fill:#ffffff;fill-opacity:1;fill-rule:nonzero;stroke:none"
             d="m 491,1 h 7 v 15 h -7 z" /><path
             id="path362"
             style="fill:#ffffff;fill-opacity:1;fill-rule:nonzero;stroke:none"
             d="m 491,3 h 7 v 9 h -7 z" /><text
             id="text366"
             style="font-variant:normal;font-weight:normal;font-size:8px;font-family:LiberationSerif;-inkscape-font-specification:LiberationSerif;writing-mode:lr-tb;fill:#666666;fill-opacity:1;fill-rule:nonzero;stroke:none"
             transform="translate(490.84375,10)"><tspan
               id="tspan364"
               y="0"
               x="0">y</tspan></text>
<text
             id="text370"
             style="font-variant:normal;font-weight:normal;font-size:6.65999985px;font-family:LiberationSerif;-inkscape-font-specification:LiberationSerif;writing-mode:lr-tb;fill:#666666;fill-opacity:1;fill-rule:nonzero;stroke:none"
             transform="translate(494.84375,12.59375)"><tspan
               id="tspan368"
               y="0"
               x="0">v</tspan></text>
<path
             id="path372"
             style="fill:#ffffff;fill-opacity:1;fill-rule:nonzero;stroke:none"
             d="m 465,11 h 15 v 15 h -15 z" /><path
             id="path374"
             style="fill:#ffffff;fill-opacity:1;fill-rule:nonzero;stroke:none"
             d="m 465,13 h 15 v 9 h -15 z" /><text
             id="text378"
             style="font-variant:normal;font-weight:normal;font-size:8px;font-family:LiberationSerif;-inkscape-font-specification:LiberationSerif;writing-mode:lr-tb;fill:#666666;fill-opacity:1;fill-rule:nonzero;stroke:none"
             transform="translate(464.59375,20)"><tspan
               id="tspan376"
               y="0"
               x="0">y</tspan></text>
<text
             id="text382"
             style="font-variant:normal;font-weight:normal;font-size:6.65999985px;font-family:LiberationSerif;-inkscape-font-specification:LiberationSerif;writing-mode:lr-tb;fill:#666666;fill-opacity:1;fill-rule:nonzero;stroke:none"
             transform="translate(468.59375,22.59375)"><tspan
               id="tspan380"
               y="0"
               x="0 3.328125 5.5447083 8.4990692">pred</tspan></text>
</g><g
           transform="matrix(2.9998212,0,0,2.9998212,1.4999106,1.4999106)"
           id="g384"><path
             id="path386"
             style="fill:#7a7a7a;fill-opacity:1;fill-rule:nonzero;stroke:none"
             d="m 324.00018,109.01401 -0.084,-2.99883 0.99963,-0.028 0.084,2.99882 m -1.16773,-5.96962 -0.084,-2.99883 0.99963,-0.02801 0.084,2.99882 m -1.1677,-5.96963 -0.0739,-2.634705 0.99963,-0.02802 0.0739,2.634705" /><path
             id="path388"
             style="fill:#7a7a7a;fill-opacity:1;fill-rule:nonzero;stroke:none"
             d="M 324.03,92.120003 325.60999,95.07 324.09,94.370003 l -1.48001,0.790001 z" /><path
             id="path390"
             style="fill:none;stroke:#7a7a7a;stroke-width:1;stroke-linecap:butt;stroke-linejoin:miter;stroke-miterlimit:10;stroke-dasharray:none;stroke-opacity:1"
             d="M 324.03,92.120003 325.60999,95.07 324.09,94.370003 l -1.48001,0.790001 z" /><path
             id="path392"
             style="fill:#7a7a7a;fill-opacity:1;fill-rule:nonzero;stroke:none"
             d="m 406,108 v -3 h 1 v 3 m -1,-6 v -3 h 1 v 3 m -1,-6 v -2.629997 h 1 V 96" /><path
             id="path394"
             style="fill:#7a7a7a;fill-opacity:1;fill-rule:nonzero;stroke:none"
             d="m 406.5,91.120003 1.5,3 -1.5,-0.75 -1.5,0.75 z" /><path
             id="path396"
             style="fill:none;stroke:#7a7a7a;stroke-width:1;stroke-linecap:butt;stroke-linejoin:miter;stroke-miterlimit:10;stroke-dasharray:none;stroke-opacity:1"
             d="m 406.5,91.120003 1.5,3 -1.5,-0.75 -1.5,0.75 z" /><path
             id="path398"
             style="fill:none;stroke:#000000;stroke-width:1;stroke-linecap:butt;stroke-linejoin:miter;stroke-miterlimit:10;stroke-dasharray:none;stroke-opacity:1"
             d="m 40,73 h 110 v 60 H 40 Z" /></g><g
           transform="scale(2.9998212)"
           id="g400"><path
             id="path402"
             style="fill:#ffffff;fill-opacity:1;fill-rule:nonzero;stroke:none"
             d="m 42,77 h 104 v 54 H 42 Z" /><text
             id="text406"
             style="font-variant:normal;font-weight:normal;font-size:9px;font-family:LiberationSerif;-inkscape-font-specification:LiberationSerif;writing-mode:lr-tb;fill:#000000;fill-opacity:1;fill-rule:nonzero;stroke:none"
             transform="translate(42,85)"><tspan
               id="tspan404"
               y="0"
               x="0 2.25 4.5 9 11.25 13.5 18 20.500488 22.750488 25.747559 29.742188 33.736816 36.237305 40.737305 43.734375 47.729004 51.231445 53.481445 57.476074 61.976074 66.476074 68.726074 72.720703 77.220703 80.723145 83.223633"> x, y: features and costs</tspan></text>
<text
             id="text410"
             style="font-variant:normal;font-weight:normal;font-size:9px;font-family:LiberationSerif;-inkscape-font-specification:LiberationSerif;writing-mode:lr-tb;fill:#000000;fill-opacity:1;fill-rule:nonzero;stroke:none"
             transform="translate(42,95)"><tspan
               id="tspan408"
               y="0"
               x="0 2.25 4.5 9 13.5 16.000488 18.500977 20.750977 25.250977 29.750977 32.251465 36.246094 40.240723 42.741211 45.241699 49.741699 53.736328 55.986328 60.486328 64.480957 66.981445 71.481445 75.476074"> obj: objective values</tspan></text>
<text
             id="text414"
             style="font-variant:normal;font-weight:normal;font-size:9px;font-family:LiberationSerif;-inkscape-font-specification:LiberationSerif;writing-mode:lr-tb;fill:#000000;fill-opacity:1;fill-rule:nonzero;stroke:none"
             transform="translate(42,106)"><tspan
               id="tspan412"
               y="0"
               x="0 2.25 4.5 8.0024414 12.502441 15.00293 17.503418 19.753418 23.255859 27.755859 30.256348 34.756348 37.256836 39.757324 44.257324 48.757324"> sol: solutions</tspan></text>
<text
             id="text418"
             style="font-variant:normal;font-weight:normal;font-size:9px;font-family:LiberationSerif;-inkscape-font-specification:LiberationSerif;writing-mode:lr-tb;fill:#000000;fill-opacity:1;fill-rule:nonzero;stroke:none"
             transform="translate(42,117)"><tspan
               id="tspan416"
               y="0"
               x="0 2.25 4.5 7.0004883 9.2504883 11.500488 16.000488 18.500977 20.750977 23.251465 26.248535 30.243164 32.743652 37.243652 39.744141 44.244141 48.744141 50.994141 54.98877 59.48877 63.98877 66.23877 70.73877 74.733398 77.233887 79.734375 84.234375 88.229004 90.729492 93.22998 97.72998 102.22998"> t, v: training and validation</tspan></text>
<text
             id="text422"
             style="font-variant:normal;font-weight:normal;font-size:9px;font-family:LiberationSerif;-inkscape-font-specification:LiberationSerif;writing-mode:lr-tb;fill:#000000;fill-opacity:1;fill-rule:nonzero;stroke:none"
             transform="translate(42,128)"><tspan
               id="tspan420"
               y="0"
               x="0 2.25 4.5 9 11.99707 15.991699 20.491699 22.992188 25.242188 29.742188 32.739258 36.733887 41.233887 43.734375 47.729004 50.229492 52.72998 57.22998 61.72998"> pred: prediction</tspan></text>
</g></g></g></g></svg>